<svg xmlns="http://www.w3.org/2000/svg" xmlns:xlink="http://www.w3.org/1999/xlink" id="Layer_1" x="0px" y="0px" viewBox="0 0 2777.2 700" style="enable-background:new 0 0 2777.2 700;" xml:space="preserve"><style type="text/css">	.st0{fill:#00FFCE;}	.st1{fill:#1546A3;}	.st2{enable-background:new    ;}	.st3{fill:#FFFFFF;}</style><g id="Layer_2_1_">	<g id="Layer_2-2">		<path class="st0" d="M138.2,64.9h370.4c55.2,0,99.9,44.7,99.9,99.9v370.4c0,55.2-44.7,99.9-99.9,99.9H138.2   c-55.2,0-99.9-44.7-99.9-99.9V164.8C38.3,109.6,83,64.9,138.2,64.9z"></path>		<path class="st1" d="M197.4,464.9h63.2l0,0v63.2c0,34.9-28.3,63.2-63.2,63.2c0,0,0,0,0,0l0,0c-34.9,0-63.2-28.3-63.2-63.2l0,0   C134.2,493.2,162.5,464.9,197.4,464.9C197.4,464.9,197.4,464.9,197.4,464.9z"></path>		<path class="st1" d="M444.9,268.4c0,0-35.5-0.6-247.2-0.1c-53.5,0.1-63.4,34-63.4,34l0.1-98.9c0-34.7,30.4-62.9,68-62.9h309.1   v66.4C511.4,240.8,481.6,268.4,444.9,268.4z"></path>		<path class="st1" d="M325.7,431.2c0,0,56.9-0.6-134.3-0.1c-48.4,0.1-57.3,33.9-57.3,33.9l0.1-98.8c0-34.7,27.5-62.8,61.4-62.8   h190.3v66.3C385.8,403.7,358.9,431.2,325.7,431.2z"></path>		<g class="st2">			<path class="st3" d="M806.3,373.1h-63v-76.3h63v-54.7c0-67.4,17.2-124.7,120.9-124.7c19.1,0,38.2,1.3,56,5.7l-4.5,80.8    c-10.8-3.8-19.7-6.4-31.2-6.4c-30.5,0-45.8,9.5-45.8,50.3v49h70.6v76.3h-70.6v232.8h-95.4V373.1z M1009.9,125h95.4v480.9h-95.4    V125z"></path>		</g>		<g class="st2">			<path class="st3" d="M1428.5,552.5c-30.5,38.8-80.8,61.1-130.4,61.1c-95.4,0-171.8-63.6-171.8-162.2    c0-98.6,76.3-162.2,171.8-162.2c89.1,0,145,63.6,145,162.2v29.9h-221.4c7.6,36.3,35,59.8,71.9,59.8c31.2,0,52.2-15.9,68.1-37.5    L1428.5,552.5z M1347.7,416.4c0.6-31.8-24.2-58.5-58.5-58.5c-42,0-64.9,28.6-67.4,58.5H1347.7z"></path>			<path class="st3" d="M1558.9,440.5l-103.1-143.8h112.6l54.7,84l52.8-84h106.2l-100.5,143.8l119,165.4H1688l-67.4-103.1    l-72.5,103.1h-111.3L1558.9,440.5z"></path>			<path class="st3" d="M1852.8,144.1c30.5,0,55.3,24.8,55.3,55.3c0,30.5-24.8,55.3-55.3,55.3c-30.5,0-55.3-24.8-55.3-55.3    C1797.4,168.9,1822.2,144.1,1852.8,144.1z M1805.1,296.8h95.4v309.2h-95.4V296.8z"></path>			<path class="st3" d="M2118.7,387.7c-14-17.2-32.4-26.1-55.3-26.1c-15.9,0-35,7-35,25.4c0,45.8,160.9,7,160.9,124.7    c0,78.9-76.3,101.8-142.5,101.8c-43.3,0-91-10.8-121.5-42l57.9-64.3C2001,529,2022,541,2050.6,541c21.6,0,43.3-5.7,43.3-22.3    c0-49.6-160.9-7.6-160.9-125.3c0-72.5,64.9-104.3,129.8-104.3c40.7,0,85.9,10.2,114.5,40.7L2118.7,387.7z"></path>			<path class="st3" d="M2406.9,567.1h-1.3c-21,33.1-59.2,46.4-98,46.4c-57.9,0-110.1-33.1-110.1-95.4    c0-106.9,129.8-108.8,209.3-108.8c0-33.7-28-55.3-61.1-55.3c-31.2,0-57.3,14-77.6,36.9l-50.9-52.2c35-33.1,85.9-49.6,136.1-49.6    c111.3,0,141.2,56.6,141.2,159.7v157.1h-87.8V567.1z M2383.3,470.4c-29.3,0-94.1,2.5-94.1,44.5c0,22.9,24.2,33.7,45.2,33.7    c37.5,0,72.5-19.7,72.5-57.9v-20.4H2383.3z"></path>			<path class="st3" d="M2562.1,373.1h-63v-76.3h63v-54.7c0-67.4,17.2-124.7,120.9-124.7c19.1,0,38.2,1.3,56,5.7l-4.5,80.8    c-10.8-3.8-19.7-6.4-31.2-6.4c-30.5,0-45.8,9.5-45.8,50.3v49h70.6v76.3h-70.6v232.8h-95.4V373.1z"></path>		</g>	</g></g></svg>