<svg xmlns="http://www.w3.org/2000/svg" width="371" height="287" viewBox="0 0 371 287" fill="none"><path d="M0 286.569H371C366.935 274.615 359.428 264.475 348.845 261.466C333.364 257.071 316.98 269.156 301.534 264.612C292.758 262.033 285.849 254.518 278.589 248.28C251.2 224.734 213.669 217.775 181.256 230.236C164.316 236.747 148.879 248.134 131.525 252.975C109.084 259.235 85.6172 254.044 62.54 253.188C40.0666 252.353 7.86447 262.914 0 286.569Z" fill="#F3F5FD"></path><path d="M41.1654 284.279C33.9988 282.067 27.0459 279.175 20.7103 271.082C19.4104 269.423 18.1888 267.299 18.9016 265.314C19.4373 263.82 20.9885 262.863 22.5642 262.618C23.1505 262.533 23.7447 262.517 24.3347 262.57C24.3347 262.57 24.3404 262.57 24.3416 262.57C25.2506 262.662 26.1491 262.838 27.0259 263.094L27.276 263.165C31.4579 264.349 35.4416 266.141 39.0985 268.484C39.4298 268.694 39.8228 268.787 40.2136 268.747C40.6045 268.706 40.9702 268.536 41.2512 268.262C41.5322 267.988 41.7121 267.628 41.7615 267.24C41.811 266.851 41.7271 266.458 41.5235 266.123C41.1502 265.516 40.716 264.949 40.2276 264.429C39.5075 263.679 38.7186 262.997 37.8711 262.393C36.7443 261.574 35.542 260.844 34.3661 260.095C29.993 257.32 25.8501 254.201 21.9771 250.767C19.2123 248.313 16.5091 245.588 15.1949 242.14C14.5912 240.554 14.3165 238.726 15.0367 237.189C16.2252 234.664 19.5909 233.958 22.3432 234.482C27.1664 235.402 31.0198 238.925 34.4363 242.436C37.2697 245.354 40.4446 248.582 44.5156 248.763C45.2093 248.829 45.9071 248.69 46.5226 248.365C47.6837 247.664 47.9818 246.04 47.5684 244.751C47.1549 243.461 46.1976 242.431 45.2718 241.442C39.8986 235.698 34.6111 229.723 31.1215 222.685C27.6319 215.647 26.087 207.337 28.5114 199.865C29.1553 197.647 30.3388 195.621 31.9571 193.968C32.7729 193.151 33.7597 192.523 34.847 192.13C35.9344 191.736 37.0955 191.587 38.2475 191.692C41.3636 192.101 43.7104 194.721 45.2895 197.427C50.7153 206.712 50.3857 218.088 51.9146 228.725C52.3424 231.703 52.9655 234.758 54.744 237.207C54.9083 237.443 55.1213 237.641 55.3688 237.788C56.8332 238.633 58.148 236.929 58.698 235.483C60.8683 229.762 61.412 223.219 65.2991 218.484C66.7841 216.682 68.8818 215.175 71.22 215.19C74.0757 215.209 76.5224 217.587 77.3563 220.311C78.1901 223.036 77.6909 225.992 76.7977 228.695C75.1414 233.709 72.1687 238.212 68.6671 242.171C66.8206 244.262 64.7337 246.373 64.1797 249.1C64.0102 250.027 64.0812 250.982 64.386 251.873C64.6907 252.765 65.2191 253.565 65.9211 254.196C66.2493 254.48 66.6316 254.696 67.0452 254.831C67.4588 254.966 67.8954 255.016 68.329 254.98C69.2598 254.826 70.1471 254.477 70.9322 253.956C71.2748 253.761 71.6176 253.564 71.9659 253.37C73.3313 252.596 74.6969 251.82 76.0627 251.044C79.534 249.07 83.7261 247.053 87.3425 248.753C88.2367 249.208 89.0228 249.848 89.6478 250.63C90.2728 251.413 90.7222 252.32 90.9658 253.29C91.4746 255.069 91.4746 256.954 90.9658 258.733C89.8886 262.432 83.099 272.732 80.2987 275.384C77.0267 278.473 65.6852 291.851 41.1654 284.279Z" fill="#8DDBE0"></path><path d="M307.317 198.075L330.563 286.131L327.249 287L304.003 198.944L307.317 198.075Z" fill="#C1D8ED"></path><path d="M266.122 198.245L269.508 198.773L255.651 286.83L252.265 286.302L266.122 198.245Z" fill="#C1D8ED"></path><path d="M310.428 114.041C310.428 114.041 338.736 112.259 338.736 136.902C338.736 161.546 334.567 195.986 313.706 199.846C292.845 203.705 262.029 202.542 254.875 201.334C246.084 199.849 242.253 179.532 253.961 178.173C287.186 174.314 271.095 116.715 310.428 114.041Z" fill="#C1D8ED"></path><path d="M250.334 269.982L251.411 283.901" stroke="#C56D42" stroke-width="21" stroke-miterlimit="10"></path><path d="M230.236 286.462C229.614 286.46 229.018 286.211 228.58 285.77C228.143 285.33 227.898 284.734 227.901 284.115C227.901 284.058 227.901 284.001 227.908 283.944C227.943 283.5 228.104 283.075 228.373 282.719C228.642 282.363 229.007 282.091 229.426 281.936L243.386 277.277C243.657 277.187 243.943 277.157 244.227 277.189C244.51 277.22 244.783 277.312 245.027 277.459C246.946 278.785 249.242 279.463 251.576 279.394C253.395 279.265 255.14 278.629 256.614 277.559C256.743 277.454 256.9 277.387 257.067 277.366C257.233 277.346 257.402 277.373 257.553 277.445C257.704 277.516 257.832 277.629 257.921 277.771C258.011 277.912 258.058 278.075 258.058 278.242V285.046C258.058 285.45 257.896 285.837 257.61 286.123C257.323 286.409 256.934 286.569 256.528 286.569H256.522L230.236 286.462Z" fill="#C1D8ED"></path><path d="M202.756 269.982L200.406 283.901" stroke="#C56D42" stroke-width="21" stroke-miterlimit="10"></path><path d="M190.732 272.04L217.065 171.096C217.654 168.841 218.977 166.843 220.827 165.418C222.677 163.992 224.95 163.218 227.289 163.217H285V163.254H317.331V173.126C317.331 175.973 316.769 178.791 315.676 181.421C314.583 184.05 312.98 186.44 310.961 188.452C308.941 190.465 306.543 192.062 303.904 193.151C301.265 194.24 298.436 194.801 295.579 194.801H279.81V194.863H252.282L259.862 275.166L238.823 277.135L231.493 199.483L211.184 277.334L190.732 272.04Z" fill="#013856"></path><path d="M234.703 115.008C234.703 115.008 234.617 108.173 229.714 108.529C226.621 108.753 211.923 108.074 211.704 109.408C211.163 112.708 224.607 113.515 225.827 116.59L234.703 115.008Z" fill="#C56D42"></path><path d="M231.45 108.749C231.45 108.749 224.626 106.529 222.949 106.928C221.464 107.279 224.559 109.688 224.559 109.688L231.45 108.749Z" fill="#C56D42"></path><path d="M248.799 144.998L224.448 116.755L234.942 110.876L254.439 132.732L269.688 105.535C271.131 101.237 274.417 98.3578 281.122 98.0699C281.482 98.0585 282.059 98.0414 282.801 98.03C282.95 101.16 302.408 101.149 302.819 97.9561C308.314 97.9617 312.826 99.6462 315.43 102.241C324.425 111.204 313.385 126.478 313.385 138.428C313.385 150.378 318.811 155.739 318.411 161.874C317.783 171.514 270.762 169.237 268.369 163.757C266.764 160.086 268.319 157.327 269.543 150.761H248.797L248.799 144.998ZM270.689 136.15C270.666 134.139 270.51 132.035 270.296 129.894L265.555 138.351H270.688C270.695 137.639 270.698 136.911 270.688 136.15H270.689Z" fill="#0066F5"></path><path d="M282.803 98.03C282.952 101.16 284.665 105.764 289.931 106.105C296.961 106.572 302.41 101.149 302.821 97.9561H302.798C295.888 97.9561 286.841 97.9674 282.803 98.03Z" fill="#C56D42"></path><path d="M180.945 286.462C180.323 286.459 179.727 286.21 179.289 285.769C178.851 285.329 178.607 284.733 178.61 284.113C178.61 284.056 178.61 283.999 178.617 283.942C178.652 283.498 178.814 283.073 179.083 282.718C179.352 282.362 179.717 282.09 180.136 281.934L194.096 277.275C194.366 277.186 194.653 277.156 194.936 277.187C195.219 277.219 195.492 277.311 195.736 277.457C197.655 278.784 199.951 279.462 202.286 279.392C204.104 279.263 205.85 278.628 207.323 277.558C207.453 277.452 207.61 277.385 207.776 277.365C207.942 277.345 208.111 277.372 208.262 277.444C208.413 277.515 208.541 277.628 208.63 277.769C208.72 277.911 208.767 278.074 208.767 278.241V285.045C208.767 285.449 208.606 285.837 208.319 286.123C208.032 286.409 207.643 286.569 207.237 286.569H207.231L180.945 286.462Z" fill="#C1D8ED"></path><path d="M344.689 156.277H350.052V286.569H344.689V156.277Z" fill="#DEE8F5"></path><path d="M85.981 156.277H91.3445V286.569H85.981V156.277Z" fill="#C1D8ED"></path><path d="M85.981 154.645H134.353V277.66H85.981V154.645Z" fill="#C1D8ED"></path><path d="M138.647 268.751H144.01V286.569H138.647V268.751Z" fill="#C1D8ED"></path><path d="M78.5654 150.896H357.467V158.244H78.5654V150.896Z" fill="#DEE8F5"></path><path d="M131.671 156.277H137.035V286.569H131.671V156.277Z" fill="#DEE8F5"></path><path d="M184.337 156.277H189.701V286.569H184.337V156.277Z" fill="#DEE8F5"></path><path d="M134.353 158.254H187.019V277.659H134.353V158.254Z" fill="#DEE8F5"></path><path d="M282.094 85.9977C279.071 85.9977 276.62 83.5559 276.62 80.5438C276.62 77.5317 279.071 75.0898 282.094 75.0898C285.117 75.0898 287.567 77.5317 287.567 80.5438C287.567 83.5559 285.117 85.9977 282.094 85.9977Z" fill="#DEE8F5"></path><path d="M281.141 81.1799C280.936 81.1402 280.747 81.0458 280.592 80.9067C280.438 80.7676 280.325 80.5891 280.265 80.3906C280.122 79.9183 278.613 68.8038 282.981 62.107C283.678 60.9546 284.64 59.9839 285.788 59.2751C286.935 58.5662 288.236 58.1395 289.582 58.0303C289.731 58.0145 289.882 58.0282 290.026 58.0707C290.17 58.1132 290.305 58.1836 290.421 58.2779C290.538 58.3721 290.635 58.4884 290.707 58.62C290.778 58.7516 290.823 58.896 290.838 59.0449C290.903 59.6709 290.447 59.6612 289.819 59.7278C286.774 60.0419 286.313 61.2335 284.884 63.3698C281.03 69.1344 282.423 79.6292 282.454 79.7344C282.511 79.9223 282.518 80.1217 282.475 80.3133C282.432 80.5048 282.34 80.6819 282.208 80.8274C282.075 80.9729 281.908 81.0819 281.721 81.1438C281.534 81.2056 281.334 81.2183 281.141 81.1804V81.1799Z" fill="#C1D8ED"></path><path d="M283.507 85.8693C280.484 85.8693 278.034 83.4275 278.034 80.4154C278.034 77.4032 280.484 74.9614 283.507 74.9614C286.53 74.9614 288.981 77.4032 288.981 80.4154C288.981 83.4275 286.53 85.8693 283.507 85.8693Z" fill="#C1D8ED"></path><path d="M300.842 101.187C300.842 101.187 296.426 98.8535 297.411 86.8712L288.287 85.1851C288.287 85.1851 289.315 95.9285 284.696 99.3394L300.842 101.187Z" fill="#C56D42"></path><g opacity="0.15"><path d="M286.566 97.0937L294.146 91.3154L288.192 91.2539C288.02 93.2845 287.468 95.265 286.566 97.0937Z" fill="black"></path></g><path d="M302.589 82.2248C301.957 85.86 299.966 89.3028 296.748 90.4763C292.927 91.8705 290.097 91.9649 285.692 91.9649C279.681 91.9649 279.879 85.7183 279.71 79.4239C279.539 73.1038 280.046 66.3245 282.422 64.1222C287.162 59.7268 301.082 62.5106 302.775 69.863C303.651 73.666 303.19 78.7643 302.589 82.2248Z" fill="#C56D42"></path><path d="M288.482 79.4246C288.025 79.4246 287.655 79.0554 287.655 78.6C287.655 78.1446 288.025 77.7754 288.482 77.7754C288.939 77.7754 289.31 78.1446 289.31 78.6C289.31 79.0554 288.939 79.4246 288.482 79.4246Z" fill="#0F1011"></path><path d="M281.953 78.8913C281.496 78.8913 281.126 78.5222 281.126 78.0668C281.126 77.6114 281.496 77.2422 281.953 77.2422C282.41 77.2422 282.781 77.6114 282.781 78.0668C282.781 78.5222 282.41 78.8913 281.953 78.8913Z" fill="#0F1011"></path><path d="M280.52 76.3117H280.524L282.716 76.2849C282.767 76.2843 282.818 76.2737 282.865 76.2537C282.912 76.2337 282.954 76.2046 282.99 76.1682C283.026 76.1318 283.054 76.0888 283.073 76.0415C283.092 75.9943 283.101 75.9438 283.101 75.8929C283.101 75.8418 283.09 75.7912 283.071 75.7442C283.051 75.6971 283.022 75.6545 282.985 75.6188C282.948 75.5831 282.905 75.5551 282.857 75.5364C282.809 75.5177 282.758 75.5087 282.707 75.5099L280.515 75.5372C280.414 75.5416 280.319 75.5847 280.25 75.6574C280.181 75.7301 280.142 75.8267 280.143 75.9269C280.144 76.0272 280.183 76.1232 280.253 76.195C280.324 76.2667 280.419 76.3086 280.52 76.3117Z" fill="#0F1011"></path><path d="M290.268 77.1083C290.363 77.1082 290.455 77.0734 290.526 77.0103C290.598 76.9473 290.643 76.8605 290.654 76.7664C290.665 76.6722 290.641 76.5772 290.587 76.4994C290.533 76.4216 290.452 76.3663 290.359 76.3441L288.197 75.8256C288.097 75.8017 287.991 75.8184 287.903 75.8721C287.815 75.9258 287.752 76.0122 287.728 76.1122C287.704 76.2122 287.721 76.3176 287.775 76.4053C287.829 76.4929 287.915 76.5557 288.016 76.5797L290.177 77.0975C290.207 77.1047 290.238 77.1083 290.268 77.1083Z" fill="#0F1011"></path><path d="M295.828 69.9262C295.183 82.1999 296.389 87.9053 297.059 90.0427C297.103 90.1837 297.178 90.3128 297.28 90.4204C297.381 90.5279 297.506 90.6111 297.645 90.6635C297.783 90.716 297.932 90.7364 298.079 90.7232C298.227 90.71 298.37 90.6635 298.497 90.5873C300.642 89.3172 305.518 85.3576 307.163 75.004C308.637 65.7282 301.704 61.6344 297.124 60.2692C293.176 59.0924 287.824 59.3194 283.566 62.0225C278.202 65.4272 278.996 72.4324 278.996 72.4324C285.503 72.7312 299.408 73.3065 299.408 73.3065" fill="#0F1011"></path><path d="M292.787 80.618C292.717 81.5388 293.016 82.4496 293.618 83.1517C294.22 83.8538 295.076 84.29 296 84.3652C296.924 84.4403 297.84 84.1483 298.548 83.5528C299.256 82.9574 299.699 82.1069 299.781 81.1871C299.826 80.728 299.779 80.2644 299.641 79.824C299.503 79.3836 299.277 78.9754 298.978 78.6236C298.678 78.2718 298.311 77.9837 297.897 77.7764C297.483 77.5691 297.032 77.4469 296.57 77.417C294.069 77.3362 292.946 78.6934 292.787 80.618Z" fill="#C56D42"></path><g opacity="0.15"><path d="M284.808 83.1735C284.877 83.1736 284.943 83.1491 284.995 83.1047C285.047 83.0602 285.081 82.9987 285.091 82.9313C285.101 82.8639 285.087 82.7951 285.05 82.7374C285.014 82.6797 284.958 82.637 284.892 82.617L283.209 82.102L284.387 79.4899C284.418 79.4211 284.42 79.3428 284.394 79.2722C284.367 79.2016 284.313 79.1445 284.244 79.1135C284.175 79.0825 284.096 79.0801 284.025 79.1068C283.954 79.1336 283.897 79.1872 283.866 79.2561L282.556 82.1623C282.539 82.1991 282.531 82.239 282.531 82.2793C282.531 82.3196 282.539 82.3595 282.556 82.3963C282.573 82.433 282.597 82.4658 282.627 82.4925C282.658 82.5192 282.694 82.5391 282.732 82.551L284.724 83.161C284.752 83.1692 284.78 83.1735 284.808 83.1735Z" fill="black"></path></g><path d="M288.099 85.094C288.099 85.094 285.045 85.4149 282.902 84.6694C282.902 84.6694 282.918 86.6737 285.336 86.8712C287.754 87.0686 288.099 85.094 288.099 85.094Z" fill="white"></path><path d="M301.999 80.5267C301.983 80.5233 301.966 80.5205 301.95 80.5159C301.655 80.4452 301.401 80.2609 301.243 80.0035C301.085 79.7461 301.036 79.4367 301.107 79.1433C301.129 79.05 303.315 69.7162 299.077 64.0693C297.078 61.4055 293.906 59.9465 289.641 59.7302C289.02 59.7006 288.526 59.7336 288.556 59.1042C288.585 58.8074 288.723 58.5319 288.945 58.3319C289.167 58.1318 289.456 58.0217 289.755 58.023C293.681 57.73 298.485 59.4753 300.91 62.7116C305.789 69.2228 303.428 79.2509 303.325 79.6748C303.256 79.9596 303.08 80.207 302.833 80.3656C302.586 80.5243 302.287 80.582 301.999 80.5267Z" fill="#C1D8ED"></path><path d="M300.373 86.1974C297.35 86.1974 294.9 83.7556 294.9 80.7435C294.9 77.7314 297.35 75.2896 300.373 75.2896C303.396 75.2896 305.847 77.7314 305.847 80.7435C305.847 83.7556 303.396 86.1974 300.373 86.1974Z" fill="#C1D8ED"></path><path d="M302.055 86.3615C299.032 86.3615 296.582 83.9197 296.582 80.9075C296.582 77.8954 299.032 75.4536 302.055 75.4536C305.078 75.4536 307.529 77.8954 307.529 80.9075C307.529 83.9197 305.078 86.3615 302.055 86.3615Z" fill="#DEE8F5"></path><path d="M301.394 83.7861C301.13 84.9806 300.789 86.1568 300.373 87.3075C299.713 88.3973 290.356 87.9056 290.356 87.9056" stroke="#DEE8F5" stroke-width="3" stroke-linecap="round" stroke-linejoin="round"></path><path d="M290.556 89.2583H289.396C288.657 89.2583 288.057 88.6608 288.057 87.9238C288.057 87.1868 288.657 86.5894 289.396 86.5894H290.556C291.296 86.5894 291.895 87.1868 291.895 87.9238C291.895 88.6608 291.296 89.2583 290.556 89.2583Z" fill="#C1D8ED"></path><path d="M91.1269 112.995C59.811 112.995 34.4244 87.7001 34.4244 56.4975C34.4244 25.2948 59.811 0 91.1269 0C122.443 0 147.829 25.2948 147.829 56.4975C147.829 87.7001 122.443 112.995 91.1269 112.995Z" fill="#DEE8F5"></path><path d="M68.3285 33.8457C68.3285 33.8457 67.6671 27.4653 62.0398 27.4653C55.3575 27.4653 59.9203 45.7603 62.8445 56.9481C63.1563 58.1444 63.2112 59.3928 63.0059 60.6117C62.8005 61.8307 62.3394 62.9927 61.6527 64.022C60.966 65.0513 60.069 65.9247 59.0205 66.5852C57.972 67.2456 56.7954 67.6782 55.5677 67.8548C54.3843 68.0264 53.1783 67.9565 52.0229 67.6492C50.8675 67.342 49.7869 66.8039 48.8467 66.0676C47.9066 65.3313 47.1265 64.4123 46.5539 63.3663C45.9812 62.3203 45.6281 61.1692 45.5158 59.9829C44.1628 45.6373 44.478 19.1678 59.6227 19.6777C69.4633 20.0089 69.4633 29.7832 69.4633 29.7832L68.3285 33.8457Z" fill="#0F1011"></path><path d="M68.3285 55.7794C68.3285 55.7794 72.3995 53.6283 71.4908 42.5833L79.9019 41.0298C79.9019 41.0298 78.9566 50.9315 83.2144 54.0768L68.3285 55.7794Z" fill="#C56D42"></path><g opacity="0.15"><path d="M81.4885 52.0059L74.5007 46.6795L79.9887 46.6226C80.1475 48.4945 80.6561 50.3203 81.4885 52.0059Z" fill="black"></path></g><path d="M66.7184 38.2982C67.3004 41.6494 69.136 44.8225 72.1025 45.9054C75.3361 47.1848 78.8347 47.6564 82.2932 47.2792C91.501 46.5269 89.6796 25.666 85.3082 21.6143C80.9367 17.5625 68.1068 20.1285 66.5459 26.9066C65.7395 30.4103 66.1639 35.1114 66.7184 38.2982Z" fill="#C56D42"></path><path d="M79.8899 35.7181C79.4688 35.7181 79.1274 35.378 79.1274 34.9584C79.1274 34.5389 79.4688 34.1987 79.8899 34.1987C80.311 34.1987 80.6523 34.5389 80.6523 34.9584C80.6523 35.378 80.311 35.7181 79.8899 35.7181Z" fill="#0F1011"></path><path d="M85.9079 35.2264C85.4868 35.2264 85.1454 34.8863 85.1454 34.4667C85.1454 34.0472 85.4868 33.707 85.9079 33.707C86.329 33.707 86.6703 34.0472 86.6703 34.4667C86.6703 34.8863 86.329 35.2264 85.9079 35.2264Z" fill="#0F1011"></path><path d="M87.2295 32.8471H87.2249L85.2042 32.8221C85.1117 32.8179 85.0243 32.7781 84.9605 32.7111C84.8967 32.6441 84.8614 32.5552 84.862 32.4628C84.8626 32.3705 84.899 32.2819 84.9637 32.2158C85.0283 32.1496 85.1162 32.111 85.2088 32.1079H85.2134L87.2346 32.1329C87.3272 32.1372 87.4145 32.1771 87.4783 32.2441C87.5421 32.3111 87.5773 32.4001 87.5766 32.4925C87.576 32.5849 87.5395 32.6734 87.4747 32.7395C87.41 32.8056 87.3221 32.8442 87.2295 32.8471Z" fill="#0F1011"></path><path d="M78.2427 33.581C78.1552 33.5806 78.0709 33.5483 78.0056 33.4902C77.9403 33.432 77.8986 33.3521 77.8884 33.2655C77.8781 33.1789 77.9 33.0916 77.9499 33.0199C77.9998 32.9483 78.0743 32.8973 78.1594 32.8765L80.152 32.3991C80.1978 32.3881 80.2452 32.3862 80.2917 32.3935C80.3382 32.4008 80.3828 32.4172 80.423 32.4416C80.4631 32.4661 80.498 32.4982 80.5257 32.5361C80.5534 32.574 80.5733 32.617 80.5844 32.6626C80.5954 32.7082 80.5973 32.7555 80.59 32.8018C80.5827 32.8481 80.5662 32.8925 80.5417 32.9325C80.5171 32.9725 80.4849 33.0073 80.4469 33.0349C80.4088 33.0625 80.3657 33.0824 80.3199 33.0934L78.3273 33.5714C78.2995 33.5776 78.2712 33.5809 78.2427 33.581Z" fill="#0F1011"></path><path d="M80.2428 40.9447C80.2428 40.9447 83.0585 41.2407 85.0323 40.5532C85.0323 40.5532 85.0163 42.401 82.7884 42.5831C80.5604 42.7652 80.2428 40.9447 80.2428 40.9447Z" fill="white"></path><path d="M72.9135 29.6177C73.7165 44.9068 71.6102 46.4854 71.6102 46.4854C71.6102 46.4854 63.9439 41.8908 62.9427 32.7089C62.0043 24.1018 68.3684 19.0194 72.6708 18.0611C89.0154 14.4191 90.819 29.2461 90.819 29.2461C82.6387 31.3414 71.1447 29.9233 71.1447 29.9233" fill="#0F1011"></path><path d="M75.9211 36.8187C75.9581 37.2417 75.9109 37.6677 75.7821 38.0725C75.6534 38.4772 75.4456 38.8525 75.1708 39.177C74.896 39.5014 74.5595 39.7685 74.1808 39.963C73.802 40.1575 73.3884 40.2754 72.9637 40.3101C72.539 40.3448 72.1117 40.2955 71.7062 40.1651C71.3007 40.0347 70.9251 39.8257 70.6009 39.5502C70.2768 39.2746 70.0104 38.938 69.8172 38.5596C69.6241 38.1812 69.5079 37.7684 69.4753 37.3451C69.4332 36.922 69.4769 36.4948 69.604 36.0889C69.731 35.683 69.9388 35.3067 70.2148 34.9825C70.4909 34.6583 70.8296 34.3927 71.2108 34.2017C71.592 34.0106 72.0079 33.898 72.4337 33.8704C74.7388 33.7953 75.7754 35.045 75.9211 36.8187Z" fill="#C56D42"></path><g opacity="0.15"><path d="M83.2761 39.1744C83.2136 39.1738 83.1533 39.151 83.1061 39.1101C83.0588 39.0692 83.0278 39.0129 83.0184 38.9513C83.0091 38.8897 83.0221 38.8267 83.055 38.7738C83.088 38.7208 83.1389 38.6813 83.1984 38.6623L84.7491 38.1842L83.6639 35.776C83.6376 35.7129 83.6371 35.6421 83.6624 35.5786C83.6877 35.5151 83.7369 35.464 83.7994 35.436C83.862 35.4081 83.933 35.4056 83.9974 35.429C84.0618 35.4524 84.1144 35.4999 84.1442 35.5614L85.3527 38.2411C85.368 38.2751 85.3758 38.3118 85.3757 38.3489C85.3757 38.3861 85.3677 38.4228 85.3523 38.4567C85.3369 38.4905 85.3145 38.5207 85.2865 38.5452C85.2585 38.5698 85.2256 38.5882 85.19 38.5991L83.3532 39.1608C83.3283 39.1692 83.3024 39.1738 83.2761 39.1744Z" fill="black"></path></g><path d="M63.2745 28.8929C63.2182 28.8929 63.1619 28.8893 63.1061 28.882C62.9345 28.8606 62.7688 28.8055 62.6186 28.7201C62.4684 28.6346 62.3366 28.5205 62.2308 28.3842C62.125 28.2479 62.0473 28.0921 62.002 27.9258C61.9568 27.7595 61.945 27.5859 61.9672 27.415C62.3471 24.9978 63.5317 22.778 65.3306 21.1126C65.4608 20.9994 65.6122 20.9129 65.776 20.858C65.9398 20.8031 66.1128 20.7809 66.2853 20.7926C66.4577 20.8043 66.6261 20.8498 66.7808 20.9264C66.9356 21.0029 67.0738 21.1091 67.1874 21.2389C67.301 21.3687 67.3878 21.5195 67.4429 21.6827C67.498 21.8459 67.5203 22.0183 67.5085 22.1901C67.4967 22.3619 67.4511 22.5297 67.3742 22.6839C67.2974 22.8381 67.1908 22.9758 67.0606 23.089C65.7505 24.3335 64.8806 25.9675 64.5813 27.7462C64.5408 28.063 64.3858 28.3543 64.1452 28.5654C63.9047 28.7765 63.5951 28.8929 63.2745 28.8929Z" fill="#013856"></path><path d="M123.888 60.7924C123.888 60.7924 124.729 54.5475 129.176 55.4164C131.982 55.965 145.507 56.9711 145.558 58.2174C145.685 61.2989 133.293 60.5454 131.833 63.2252L123.888 60.7924Z" fill="#C56D42"></path><path d="M127.563 55.4272C127.563 55.4272 134.055 54.1559 135.546 54.705C136.865 55.1916 133.764 57.0524 133.764 57.0524L127.563 55.4272Z" fill="#C56D42"></path><path d="M57.0652 89.9852C57.0723 93.5186 56.5211 97.031 55.4318 100.393C61.4602 105.259 68.4261 108.84 75.8989 110.916C83.3717 112.992 91.1925 113.519 98.8777 112.463C100.328 107.723 96.2277 103.95 96.4218 87.8911C96.4276 87.1854 96.4504 83.771 96.4504 83.771L102.961 93.8719C103.428 94.7442 104.114 95.4811 104.952 96.0107C105.79 96.5403 106.751 96.8445 107.742 96.8937C107.839 96.8937 107.93 96.8994 108.022 96.8994C108.968 96.8992 109.9 96.6658 110.734 96.22C111.568 95.7742 112.278 95.1298 112.802 94.3443L133.425 63.4554L123.865 57.1217L108.57 80.0379L96.5646 57.5997L96.4504 57.6566C94.817 54.8283 91.8699 53.0016 86.7983 52.7854C86.467 52.7683 85.9359 52.7569 85.2505 52.7455C85.1135 55.6307 67.1799 55.6193 66.803 52.6772C61.737 52.6829 57.5849 54.2308 55.1805 56.6266C46.8876 64.8894 57.0652 78.9681 57.0652 89.9852Z" fill="#0066F5"></path><path d="M85.2505 52.7465C85.114 55.6317 83.5371 59.8752 78.6825 60.1956C72.207 60.6201 67.1845 55.6214 66.8058 52.6782H66.8212C73.1945 52.6782 81.5336 52.689 85.2505 52.7465Z" fill="#C56D42"></path><path d="M76.4711 50.8097L70.3428 52.8538C70.1018 52.9341 69.8464 52.9628 69.5935 52.938C69.3405 52.9131 69.0957 52.8353 68.875 52.7097C68.6543 52.584 68.4627 52.4133 68.3128 52.2088C68.163 52.0042 68.0581 51.7705 68.0052 51.5227L64.8942 36.9427C64.8022 36.5108 64.8728 36.0602 65.0928 35.6768C65.3127 35.2934 65.6665 35.0041 66.0868 34.8639L72.215 32.8204C72.4561 32.7401 72.7114 32.7114 72.9644 32.7362C73.2173 32.761 73.4622 32.8388 73.6829 32.9645C73.9036 33.0902 74.0951 33.2608 74.245 33.4654C74.3949 33.6699 74.4997 33.9037 74.5527 34.1514L77.663 48.7309C77.7552 49.1628 77.6847 49.6134 77.4649 49.9968C77.2451 50.3802 76.8913 50.6695 76.4711 50.8097Z" fill="white"></path><path d="M68.1663 54.5878L74.4561 55.4089C74.4561 55.4089 80.0029 46.7398 75.0398 40.6786C74.4687 39.9804 72.9038 38.5458 72.0831 39.3635C69.3593 42.0768 70.585 47.2639 70.0841 49.922C69.7414 48.7952 69.1749 47.2832 68.6689 47.4255C67.3381 47.8016 68.1663 53.0245 68.1663 54.5878Z" fill="#C56D42"></path><path d="M75.5681 78.5039L77.703 51.7174L66.2593 50.812L64.8885 68.0456" fill="#0066F5"></path><path d="M231.595 145.825C234.867 145.634 240.671 145.098 243.092 143.666C241.864 143.293 240.218 142.684 240.373 142.136C240.779 140.696 246.469 141.592 248.171 141.592L248.791 141.617V148.904C248.791 148.904 237.577 153.093 230.977 147.73C230.81 147.593 230.687 147.409 230.626 147.201C230.564 146.994 230.567 146.773 230.634 146.568C230.701 146.362 230.828 146.181 230.999 146.049C231.171 145.916 231.378 145.839 231.595 145.825Z" fill="#C56D42"></path><path d="M190.427 118.006L197.362 147.012C197.47 147.464 197.473 147.933 197.373 148.386C197.272 148.839 197.07 149.264 196.782 149.628C196.493 149.992 196.126 150.286 195.707 150.488C195.288 150.691 194.828 150.796 194.363 150.796H153.479C152.804 150.796 152.147 150.575 151.61 150.167C151.072 149.759 150.685 149.186 150.506 148.537L142.515 119.532C142.389 119.076 142.371 118.597 142.462 118.133C142.552 117.669 142.749 117.232 143.037 116.856C143.324 116.48 143.695 116.175 144.12 115.965C144.546 115.755 145.014 115.646 145.488 115.646H187.428C188.121 115.646 188.794 115.879 189.338 116.307C189.883 116.735 190.266 117.334 190.427 118.006Z" fill="#9EBCEA"></path><path d="M211.917 150.796H162.503C162.265 150.796 162.029 150.75 161.81 150.659C161.59 150.568 161.39 150.435 161.222 150.267C161.054 150.1 160.92 149.901 160.829 149.682C160.738 149.463 160.691 149.228 160.691 148.991C160.691 148.754 160.738 148.519 160.829 148.3C160.92 148.081 161.054 147.882 161.222 147.715C161.39 147.547 161.59 147.414 161.81 147.323C162.029 147.233 162.265 147.186 162.503 147.186H211.917C212.397 147.186 212.858 147.376 213.198 147.715C213.537 148.053 213.728 148.512 213.728 148.991C213.728 149.228 213.681 149.463 213.59 149.682C213.499 149.901 213.366 150.1 213.198 150.267C213.029 150.435 212.83 150.568 212.61 150.659C212.39 150.75 212.154 150.796 211.917 150.796Z" fill="#9EBCEA"></path><path d="M168.264 137.753C165.594 137.753 163.429 135.596 163.429 132.935C163.429 130.274 165.594 128.117 168.264 128.117C170.935 128.117 173.1 130.274 173.1 132.935C173.1 135.596 170.935 137.753 168.264 137.753Z" fill="white"></path><path d="M131.718 88.1572L149.596 103.037H113.577" fill="#DEE8F5"></path></svg>