<svg xmlns="http://www.w3.org/2000/svg" width="336" height="246" viewBox="0 0 336 246" fill="none"><path d="M151.046 217.034C149.321 216.469 147.55 217.105 145.856 218.394C148.087 212.752 149.008 207.656 145.193 207.426C142.523 207.266 140.478 209.316 138.925 212.231C138.378 207.106 136.969 203.283 133.811 204.55C130.344 205.942 129.816 210.71 130.342 215.7C128.815 213.151 127.17 211.73 125.677 213.225C121.221 217.686 132.159 230.258 132.159 230.258C132.159 230.258 141.568 233.837 145.231 229.999C150.195 224.797 155.167 218.385 151.046 217.034Z" fill="#8DDBE0"></path><path d="M146.176 246H130.802L128.228 228.032H148.749L146.176 246Z" fill="#C1D8ED"></path><path d="M244.435 246H188.842C184.763 242.742 184.482 235.401 188.709 232.122C191.967 229.596 196.892 230.272 199.955 232.9C199.382 230.944 199.37 228.865 199.92 226.903C200.916 223.368 203.13 219.778 206.509 218.349C215.133 214.705 221.262 222.339 222.49 226.606C224.699 223.355 229.637 221.637 232.739 223.825C236.667 226.597 236.489 230.967 233.356 234.103C237.532 233.324 240.675 233.925 243.571 237.036C245.774 239.405 246.111 243.441 244.435 246Z" fill="#8DDBE0"></path><path d="M83.1316 62.2394L82.1543 61.3308C82.6105 60.839 83.0707 60.3508 83.5347 59.8662L84.4982 60.7887C84.0388 61.2689 83.5832 61.7525 83.1316 62.2394Z" fill="#C1D8ED"></path><path d="M87.2745 57.962L86.3376 57.0122C87.2856 56.0749 88.2574 55.142 89.2254 54.2393L90.134 55.2163C89.1757 56.1101 88.2149 57.034 87.2745 57.962ZM268.939 58.0169C268.005 57.0899 267.046 56.1647 266.088 55.2664L266.999 54.2918C267.965 55.1983 268.936 56.1329 269.878 57.0692L268.939 58.0169ZM93.0726 52.555L92.1925 51.553C93.1906 50.6751 94.2148 49.8007 95.2363 48.9535L96.087 49.9821C95.0752 50.8195 94.0609 51.6861 93.0726 52.555ZM263.157 52.6006C262.169 51.7282 261.157 50.8603 260.15 50.0218L261.002 48.9953C262.02 49.8421 263.042 50.7183 264.039 51.5993L263.157 52.6006ZM99.1749 47.4969L98.355 46.4442C99.3999 45.6288 100.474 44.8159 101.546 44.0285L102.335 45.1058C101.272 45.8848 100.209 46.6895 99.1749 47.4969ZM257.067 47.5332C256.032 46.7213 254.969 45.9149 253.913 45.1372L254.703 44.0617C255.77 44.8473 256.842 45.6617 257.889 46.4819L257.067 47.5332ZM105.564 42.8092L104.808 41.7092C105.904 40.9543 107.024 40.2073 108.137 39.4887L108.862 40.6109C107.758 41.3212 106.649 42.0616 105.564 42.8092ZM250.687 42.8365C249.606 42.0892 248.499 41.3482 247.395 40.6333L248.119 39.5122C249.234 40.2343 250.354 40.983 251.445 41.7379L250.687 42.8365ZM112.22 38.5123L111.529 37.3691C112.67 36.6805 113.833 36.0023 114.986 35.3531L115.639 36.5164C114.5 37.1594 113.349 37.8317 112.22 38.5123ZM244.038 38.5306C242.909 37.8476 241.76 37.1749 240.618 36.5309L241.274 35.368C242.426 36.0185 243.589 36.6981 244.728 37.3881L244.038 38.5306ZM119.121 34.6265L118.502 33.4439C119.679 32.8276 120.881 32.2212 122.074 31.6422L122.656 32.8431C121.475 33.4156 120.285 34.0157 119.121 34.6259V34.6265ZM237.139 34.6373C235.972 34.025 234.782 33.4239 233.602 32.8504L234.185 31.6473C235.377 32.2267 236.579 32.8341 237.757 33.4526L237.139 34.6373ZM126.245 31.1681L125.7 29.9496C126.914 29.4058 128.15 28.8747 129.375 28.3707L129.882 29.6055C128.669 30.1044 127.445 30.6302 126.245 31.1681ZM230.014 31.1726C228.812 30.6333 227.588 30.1068 226.374 29.6072L226.881 28.3724C228.108 28.8772 229.345 29.4089 230.559 29.9541L230.014 31.1726ZM133.564 28.1578L133.095 26.9078C134.34 26.4407 135.606 25.9871 136.86 25.5604L137.29 26.8242C136.049 27.2447 134.795 27.6935 133.564 28.1578ZM222.687 28.1578C221.454 27.6942 220.199 27.2451 218.956 26.8218L219.386 25.5577C220.641 25.9854 221.91 26.4394 223.156 26.9078L222.687 28.1578ZM141.055 25.605L140.664 24.3287C141.934 23.9397 143.226 23.5662 144.505 23.218L144.855 24.5067C143.589 24.8511 142.311 25.2211 141.055 25.605ZM215.186 25.6012C213.928 25.2163 212.647 24.8459 211.378 24.5011L211.728 23.2128C213.009 23.5614 214.304 23.9352 215.576 24.3242L215.186 25.6012ZM148.687 23.5282L148.376 22.2298C149.667 21.9213 150.98 21.6294 152.278 21.3623L152.546 22.67C151.265 22.9333 149.965 23.2221 148.687 23.5282ZM207.538 23.522C206.259 23.2173 204.957 22.9281 203.668 22.6634L203.936 21.3557C205.238 21.6232 206.554 21.9151 207.847 22.2233L207.538 23.522ZM156.432 21.9327L156.205 20.6174C157.51 20.3908 158.838 20.1818 160.151 19.9955L160.338 21.3177C159.038 21.5012 157.724 21.7081 156.432 21.932V21.9327ZM199.773 21.9265C198.476 21.7023 197.158 21.4957 195.856 21.3126L196.042 19.9903C197.357 20.1755 198.689 20.3842 200 20.6122L199.773 21.9265ZM164.26 20.8261L164.115 19.4991C165.434 19.3546 166.772 19.2292 168.091 19.1266L168.194 20.4575C166.889 20.559 165.565 20.6834 164.26 20.8261ZM191.92 20.8209C190.615 20.6789 189.286 20.5552 187.971 20.4533L188.075 19.1221C189.403 19.2258 190.746 19.3498 192.065 19.4939L191.92 20.8209ZM172.138 20.2115L172.076 18.8779C173.402 18.816 174.747 18.7742 176.075 18.7535L176.095 20.0885C174.781 20.1078 173.45 20.1503 172.138 20.2115ZM184.012 20.209C182.755 20.151 181.478 20.1109 180.216 20.0902L180.054 20.0874L180.076 18.7524L180.238 18.7552C181.515 18.7763 182.804 18.8167 184.074 18.8754L184.012 20.209Z" fill="#C1D8ED"></path><path d="M273.096 62.3315C272.646 61.8432 272.193 61.3584 271.736 60.877L272.702 59.9573C273.164 60.4435 273.621 60.933 274.076 61.4256L273.096 62.3315Z" fill="#C1D8ED"></path><path d="M303.728 68.0261H231.793C226.284 68.0261 221.819 72.4969 221.819 78.012V233.762C221.819 239.277 226.284 243.748 231.793 243.748H303.728C309.236 243.748 313.702 239.277 313.702 233.762V78.012C313.702 72.4969 309.236 68.0261 303.728 68.0261Z" fill="white"></path><path d="M303.729 246H231.793C228.552 245.996 225.445 244.706 223.153 242.412C220.862 240.117 219.573 237.007 219.569 233.762V78.0129C219.573 74.7682 220.862 71.6575 223.153 69.3631C225.445 67.0688 228.552 65.7782 231.793 65.7744H303.729C306.97 65.7786 310.077 67.0694 312.368 69.3637C314.66 71.658 315.948 74.7685 315.952 78.0129V233.762C315.948 237.006 314.66 240.117 312.368 242.411C310.077 244.705 306.97 245.996 303.729 246ZM231.793 70.2783C229.745 70.2807 227.782 71.0964 226.333 72.5464C224.885 73.9964 224.071 75.9624 224.069 78.0129V233.762C224.071 235.812 224.886 237.778 226.334 239.228C227.782 240.677 229.745 241.493 231.793 241.495H303.729C305.777 241.492 307.74 240.677 309.188 239.227C310.636 237.777 311.45 235.812 311.452 233.762V78.0129C311.45 75.9627 310.636 73.9969 309.188 72.5469C307.741 71.0969 305.777 70.281 303.729 70.2783H231.793Z" fill="#C1D8ED"></path><path d="M252.01 68.026H283.511V74.1434C283.511 75.358 283.029 76.5229 282.171 77.3818C281.313 78.2407 280.15 78.7233 278.936 78.7233H256.585C255.371 78.7233 254.208 78.2407 253.35 77.3818C252.492 76.5229 252.01 75.358 252.01 74.1434V68.0247V68.026Z" fill="#C1D8ED"></path><path d="M296.94 193.339L296.913 169.611C296.922 169.467 296.9 169.323 296.849 169.188C296.798 169.053 296.72 168.93 296.618 168.828C296.516 168.726 296.394 168.646 296.26 168.594C296.125 168.543 295.981 168.52 295.837 168.528L267.76 168.555L239.684 168.528C239.54 168.52 239.396 168.543 239.261 168.594C239.127 168.646 239.005 168.726 238.903 168.828C238.801 168.93 238.723 169.053 238.672 169.188C238.621 169.323 238.599 169.467 238.608 169.611L238.581 193.339L238.579 196.881C238.57 197.026 238.592 197.17 238.644 197.305C238.695 197.44 238.774 197.563 238.876 197.665C238.978 197.768 239.1 197.848 239.235 197.899C239.37 197.951 239.514 197.974 239.658 197.966L244.588 197.971L261.088 197.987L261.091 197.998L267.76 197.992L274.43 197.998L274.433 197.987L290.933 197.969L295.863 197.963C296.007 197.971 296.151 197.949 296.286 197.897C296.421 197.845 296.543 197.765 296.645 197.663C296.747 197.561 296.826 197.438 296.877 197.303C296.929 197.168 296.951 197.023 296.942 196.879L296.94 193.339Z" fill="#8DDBE0"></path><path opacity="0.47" d="M293.687 176.075C292.547 176.072 291.454 175.618 290.646 174.812C289.838 174.006 289.382 172.913 289.376 171.771L267.76 171.79L246.143 171.771C246.138 172.913 245.681 174.006 244.873 174.812C244.066 175.618 242.973 176.072 241.832 176.075L241.817 190.419C242.306 190.419 242.791 190.503 243.25 190.669C243.798 190.865 244.301 191.169 244.729 191.563C245.158 191.957 245.503 192.433 245.744 192.963C245.998 193.519 246.128 194.125 246.123 194.737L260.203 194.75L260.207 194.762L267.759 194.756L275.311 194.762L275.315 194.75L289.395 194.737C289.391 194.125 289.52 193.519 289.774 192.963C290.016 192.433 290.361 191.957 290.789 191.563C291.217 191.169 291.72 190.865 292.268 190.669C292.728 190.503 293.212 190.419 293.701 190.419L293.687 176.075Z" fill="white"></path><path d="M250.657 185.897C252.143 185.897 253.349 184.691 253.349 183.202C253.349 181.714 252.143 180.507 250.657 180.507C249.17 180.507 247.965 181.714 247.965 183.202C247.965 184.691 249.17 185.897 250.657 185.897Z" fill="#8DDBE0"></path><path d="M284.864 185.897C286.351 185.897 287.556 184.691 287.556 183.202C287.556 181.714 286.351 180.507 284.864 180.507C283.377 180.507 282.172 181.714 282.172 183.202C282.172 184.691 283.377 185.897 284.864 185.897Z" fill="#8DDBE0"></path><path d="M272.507 175.265C273.82 176.02 274.922 177.095 275.709 178.391C276.496 179.687 276.943 181.161 277.008 182.676C277.049 184.163 277.008 185.897 275.441 188.418C274.627 189.668 273.502 190.685 272.178 191.371C271.62 191.679 271.03 191.923 270.418 192.099C269.556 192.36 268.661 192.491 267.761 192.489C266.133 192.489 264.534 192.058 263.125 191.241C261.717 190.424 260.549 189.249 259.739 187.834C258.932 186.447 258.506 184.871 258.504 183.265C258.5 183.247 258.504 183.23 258.501 183.214C258.507 180.755 259.486 178.399 261.224 176.661C262.962 174.924 265.317 173.947 267.773 173.946C267.94 173.949 268.107 173.953 268.272 173.964C269.77 174.037 271.226 174.484 272.507 175.265Z" fill="#8DDBE0"></path><path d="M267.199 188.954V187.59C266.766 187.535 266.342 187.423 265.939 187.255C265.521 187.091 265.135 186.853 264.802 186.552L265.675 185.202C265.978 185.441 266.309 185.641 266.662 185.796C266.966 185.926 267.292 185.994 267.622 185.995C267.92 186.02 268.218 185.938 268.461 185.763C268.554 185.672 268.627 185.561 268.673 185.439C268.719 185.316 268.737 185.185 268.727 185.055C268.728 184.941 268.706 184.829 268.66 184.725C268.614 184.622 268.546 184.529 268.462 184.454C268.258 184.272 268.034 184.114 267.794 183.983C267.526 183.833 267.239 183.683 266.932 183.534C266.626 183.385 266.336 183.204 266.069 182.994C265.805 182.79 265.579 182.54 265.402 182.257C265.217 181.944 265.125 181.585 265.137 181.221C265.115 180.616 265.311 180.023 265.689 179.55C266.08 179.097 266.617 178.796 267.208 178.699V177.295H268.529V178.672C268.934 178.725 269.323 178.86 269.673 179.069C270 179.269 270.297 179.512 270.559 179.792L269.549 180.937C269.338 180.734 269.1 180.562 268.841 180.425C268.6 180.307 268.334 180.248 268.065 180.252C267.799 180.234 267.535 180.306 267.315 180.457C267.223 180.54 267.152 180.644 267.107 180.76C267.062 180.876 267.044 181.001 267.056 181.124C267.055 181.231 267.079 181.336 267.125 181.432C267.171 181.527 267.238 181.611 267.321 181.677C267.526 181.846 267.75 181.99 267.988 182.107C268.256 182.244 268.544 182.385 268.853 182.531C269.159 182.676 269.449 182.855 269.716 183.064C269.983 183.273 270.209 183.529 270.383 183.821C270.569 184.156 270.661 184.536 270.648 184.919C270.663 185.525 270.475 186.117 270.115 186.603C269.715 187.099 269.148 187.431 268.52 187.536V188.955L267.199 188.954Z" fill="white"></path><path d="M46.1483 243.748H118.083C123.592 243.748 128.057 239.277 128.057 233.762L128.057 78.0116C128.057 72.4966 123.592 68.0258 118.083 68.0258H46.1483C40.6396 68.0258 36.1739 72.4966 36.1739 78.0116L36.1739 233.762C36.1739 239.277 40.6396 243.748 46.1483 243.748Z" fill="white"></path><path d="M33.9239 233.762V78.0127C33.9273 74.768 35.2161 71.6571 37.5077 69.3625C39.7992 67.068 42.9063 65.7771 46.1473 65.7732H118.083C121.324 65.7769 124.431 67.0677 126.723 69.3623C129.015 71.6569 130.304 74.7679 130.307 78.0127V233.762C130.303 237.006 129.014 240.117 126.723 242.411C124.431 244.706 121.324 245.996 118.083 246H46.1473C42.9065 245.996 39.7996 244.705 37.508 242.411C35.2165 240.117 33.9275 237.006 33.9239 233.762ZM46.1473 70.2781C44.0993 70.2807 42.1359 71.0964 40.6879 72.5465C39.24 73.9965 38.4256 75.9623 38.4236 78.0127V233.762C38.4259 235.812 39.2404 237.777 40.6883 239.227C42.1363 240.677 44.0995 241.493 46.1473 241.495H118.083C120.131 241.493 122.094 240.677 123.542 239.227C124.99 237.778 125.805 235.812 125.807 233.762V78.0127C125.805 75.9624 124.99 73.9967 123.542 72.5469C122.094 71.0971 120.131 70.2815 118.083 70.2791L46.1473 70.2781Z" fill="#C1D8ED"></path><path d="M93.2913 78.7244H70.9399C69.7267 78.7244 68.5631 78.2418 67.7052 77.3829C66.8473 76.5241 66.3653 75.3591 66.3653 74.1445V68.0258H97.866V74.1445C97.866 75.3591 97.384 76.5241 96.5261 77.3829C95.6682 78.2418 94.5046 78.7244 93.2913 78.7244Z" fill="#C1D8ED"></path><path d="M100.95 98.0242H63.2809C60.6297 98.0242 58.4805 100.176 58.4805 102.83V114.407C58.4805 117.061 60.6297 119.213 63.2809 119.213H100.95C103.601 119.213 105.75 117.061 105.75 114.407V102.83C105.75 100.176 103.601 98.0242 100.95 98.0242Z" fill="#013856"></path><path d="M115.236 144.754H48.9951C46.7895 144.754 45.0016 146.544 45.0016 148.752V186.316C45.0016 188.524 46.7895 190.314 48.9951 190.314H115.236C117.441 190.314 119.229 188.524 119.229 186.316V148.752C119.229 146.544 117.441 144.754 115.236 144.754Z" fill="#0CBC8B"></path><path d="M60.2391 150.911H53.3174C52.1211 150.911 51.1512 151.882 51.1512 153.079V157.115C51.1512 158.313 52.1211 159.284 53.3174 159.284H60.2391C61.4354 159.284 62.4053 158.313 62.4053 157.115V153.079C62.4053 151.882 61.4354 150.911 60.2391 150.911Z" fill="white"></path><path d="M62.4053 151.839V153.804H58.5926L57.9773 153.189V150.912H61.4776C61.7234 150.912 61.9592 151.01 62.1332 151.184C62.3071 151.357 62.405 151.593 62.4053 151.839Z" fill="#013856"></path><path d="M62.4053 156.39V158.355C62.4053 158.477 62.3813 158.598 62.3347 158.71C62.2881 158.823 62.2198 158.925 62.1337 159.012C62.0475 159.098 61.9452 159.166 61.8327 159.213C61.7201 159.26 61.5995 159.284 61.4776 159.284H57.9773V156.944L58.5926 156.392L62.4053 156.39Z" fill="#013856"></path><path d="M55.5174 150.913V153.19L54.9653 153.806H51.1512V151.841C51.1512 151.719 51.1752 151.599 51.2218 151.486C51.2684 151.373 51.3367 151.271 51.4228 151.185C51.509 151.098 51.6113 151.03 51.7238 150.983C51.8364 150.937 51.957 150.913 52.0789 150.913H55.5174Z" fill="#013856"></path><path d="M55.5174 156.944V159.284H52.0789C51.957 159.284 51.8364 159.26 51.7238 159.213C51.6113 159.166 51.509 159.098 51.4228 159.012C51.3367 158.925 51.2684 158.823 51.2218 158.71C51.1752 158.598 51.1512 158.477 51.1512 158.355V156.39H54.9643L55.5174 156.944Z" fill="#013856"></path><path d="M63.7512 167.106H52.1058C51.8526 167.106 51.6098 167.005 51.4308 166.826C51.2518 166.647 51.1512 166.404 51.1512 166.15C51.1512 165.897 51.2518 165.654 51.4308 165.474C51.6098 165.295 51.8526 165.195 52.1058 165.195H63.7512C64.0043 165.195 64.2471 165.295 64.4261 165.474C64.6051 165.654 64.7057 165.897 64.7057 166.15C64.7057 166.404 64.6051 166.647 64.4261 166.826C64.2471 167.005 64.0043 167.106 63.7512 167.106Z" fill="white"></path><path d="M80.1375 167.106H68.4921C68.239 167.106 67.9962 167.005 67.8172 166.826C67.6382 166.647 67.5376 166.404 67.5376 166.15C67.5376 165.897 67.6382 165.654 67.8172 165.474C67.9962 165.295 68.239 165.195 68.4921 165.195H80.1375C80.3907 165.195 80.6335 165.295 80.8125 165.474C80.9915 165.654 81.0921 165.897 81.0921 166.15C81.0921 166.404 80.9915 166.647 80.8125 166.826C80.6335 167.005 80.3907 167.106 80.1375 167.106Z" fill="white"></path><path d="M96.5242 167.106H84.8785C84.6253 167.106 84.3825 167.005 84.2035 166.826C84.0245 166.647 83.924 166.404 83.924 166.15C83.924 165.897 84.0245 165.654 84.2035 165.474C84.3825 165.295 84.6253 165.195 84.8785 165.195H96.5242C96.7774 165.195 97.0202 165.295 97.1992 165.474C97.3782 165.654 97.4788 165.897 97.4788 166.15C97.4788 166.404 97.3782 166.647 97.1992 166.826C97.0202 167.005 96.7774 167.106 96.5242 167.106Z" fill="white"></path><path d="M112.911 167.106H101.265C101.012 167.106 100.769 167.005 100.59 166.826C100.411 166.647 100.31 166.404 100.31 166.15C100.31 165.897 100.411 165.654 100.59 165.474C100.769 165.295 101.012 165.195 101.265 165.195H112.911C113.164 165.195 113.407 165.295 113.586 165.474C113.765 165.654 113.865 165.897 113.865 166.15C113.865 166.404 113.765 166.647 113.586 166.826C113.407 167.005 113.164 167.106 112.911 167.106Z" fill="white"></path><path d="M113.08 177.446C113.069 178.745 112.546 179.987 111.624 180.902C110.703 181.817 109.458 182.33 108.16 182.33C106.862 182.33 105.617 181.817 104.695 180.902C103.774 179.987 103.251 178.745 103.24 177.446C103.241 176.712 103.407 175.987 103.726 175.326C104.046 174.665 104.51 174.085 105.085 173.629C105.803 173.04 106.675 172.668 107.597 172.556C108.519 172.444 109.454 172.597 110.292 172.998C111.13 173.398 111.838 174.029 112.331 174.816C112.825 175.604 113.084 176.516 113.08 177.446Z" fill="white"></path><path d="M102.625 181.264C101.904 181.852 101.03 182.224 100.106 182.336C99.1824 182.448 98.2458 182.295 97.4051 181.895C96.5645 181.496 95.8543 180.865 95.3571 180.078C94.8598 179.29 94.5959 178.378 94.5959 177.446C94.5959 176.514 94.8598 175.602 95.3571 174.814C95.8543 174.027 96.5645 173.396 97.4051 172.997C98.2458 172.597 99.1824 172.444 100.106 172.556C101.03 172.668 101.904 173.04 102.625 173.628C102.055 174.089 101.594 174.67 101.275 175.33C100.956 175.99 100.787 176.713 100.78 177.446C100.781 178.18 100.947 178.905 101.266 179.566C101.586 180.227 102.05 180.807 102.625 181.264Z" fill="#013856"></path><path d="M21.8134 102.653C21.8134 102.653 24.5887 101.46 24.5887 94.1603L30.1672 93.5913C30.1672 93.5913 29.0174 100.041 31.6284 102.332L21.8134 102.653Z" fill="#E98862"></path><path d="M21.7012 91.0928C21.9014 93.324 22.9298 95.5054 24.8099 96.3751C26.8538 97.3881 29.1142 97.8849 31.394 97.8223C37.4498 97.8223 37.3815 84.0309 34.7432 81.1367C32.1049 78.2424 23.5855 79.2385 22.2016 83.6038C21.4859 85.8613 21.5104 88.9694 21.7012 91.0928Z" fill="#E98862"></path><path d="M34.4243 86.7383C35.6 86.7295 36.7733 86.6307 37.934 86.4429C37.934 86.4429 37.5786 77.487 28.0783 77.9976C26.8446 77.9412 25.6084 78.0141 24.3899 78.2153C21.5345 78.6537 17.4879 81.5766 16.8322 88.8911C16.5327 92.2468 15.3769 95.4102 14.4956 97.413C14.3913 97.6481 14.3474 97.9055 14.3677 98.1619C14.388 98.4183 14.472 98.6656 14.6119 98.8813C14.7519 99.097 14.9434 99.2743 15.1692 99.397C15.3949 99.5198 15.6477 99.5843 15.9046 99.5845L36.2582 99.4231C36.4989 99.4234 36.7364 99.3672 36.9515 99.2591C37.1666 99.151 37.3535 98.9939 37.4971 98.8005C37.6407 98.6071 37.7371 98.3827 37.7785 98.1453C37.8199 97.9079 37.8052 97.6641 37.7356 97.4334C36.6288 93.7615 34.6041 91.512 34.4243 86.7383Z" fill="#0F1011"></path><path d="M41.0261 150.723C47.9111 181.088 54.145 211.656 59.0648 242.406L52.1493 243.83C44.5464 213.633 38.2214 183.083 32.5756 152.463L41.0261 150.723Z" fill="#E98862"></path><path d="M26.7948 152.605C27.4271 182.771 27.3815 213.005 26.0115 243.15H18.9507C17.5814 213.005 17.5358 182.771 18.1674 152.605H26.7948Z" fill="#E98862"></path><path d="M35.1459 245.936C35.3408 245.935 35.5335 245.894 35.7118 245.815C35.8901 245.736 36.0502 245.621 36.1822 245.478C36.3142 245.334 36.4153 245.165 36.479 244.981C36.5427 244.796 36.5677 244.601 36.5526 244.406C36.5316 244.136 36.4341 243.878 36.2716 243.662C36.1091 243.446 35.8883 243.281 35.6353 243.187L27.2014 240.359C27.038 240.304 26.8649 240.286 26.6938 240.305C26.5227 240.324 26.3578 240.38 26.2103 240.469C25.0507 241.274 23.6635 241.686 22.2527 241.643C21.1539 241.565 20.0993 241.18 19.2089 240.53C19.1306 240.466 19.0357 240.425 18.9352 240.413C18.8348 240.401 18.7329 240.417 18.6414 240.461C18.55 240.504 18.4728 240.573 18.4188 240.658C18.3648 240.744 18.3362 240.844 18.3365 240.945V245.074C18.3364 245.196 18.3603 245.317 18.407 245.429C18.4536 245.542 18.522 245.644 18.6081 245.73C18.6943 245.816 18.7967 245.884 18.9092 245.931C19.0218 245.977 19.1424 246.001 19.2641 246L35.1459 245.936Z" fill="#C1D8ED"></path><path d="M67.4934 245.936C67.6883 245.935 67.8809 245.894 68.0592 245.815C68.2375 245.736 68.3976 245.621 68.5296 245.478C68.6616 245.334 68.7626 245.165 68.8264 244.981C68.8901 244.796 68.9152 244.601 68.9001 244.406C68.879 244.136 68.7815 243.878 68.6189 243.662C68.4563 243.446 68.2355 243.281 67.9824 243.187L59.5475 240.359C59.3841 240.304 59.2109 240.286 59.0398 240.305C58.8686 240.324 58.7036 240.38 58.5561 240.469C57.3966 241.274 56.0095 241.686 54.5988 241.643C53.5 241.565 52.4452 241.18 51.5547 240.53C51.4764 240.466 51.3816 240.425 51.2811 240.413C51.1806 240.401 51.0787 240.417 50.9873 240.461C50.8958 240.504 50.8186 240.573 50.7647 240.658C50.7107 240.744 50.6823 240.844 50.6826 240.945V245.074C50.6826 245.196 50.7066 245.317 50.7532 245.429C50.7999 245.542 50.8683 245.644 50.9545 245.73C51.0408 245.816 51.1431 245.884 51.2557 245.93C51.3683 245.976 51.4889 246 51.6106 245.999L67.4934 245.936Z" fill="#C1D8ED"></path><path d="M13.7939 139.58C13.7939 139.58 9.87361 157.156 9.87361 171.937C9.87361 186.718 5.37213 209.612 5.37213 209.612C5.37213 209.612 18.1294 207.546 26.7838 209.612C41.6955 213.17 55.0654 205.419 55.0654 205.419L40.048 141.204L13.7939 139.58Z" fill="#013856"></path><path d="M5.73383 151.542C5.73383 152.572 6.27667 156.013 5.40357 156.259C4.87971 156.407 4.26129 153.841 4.26129 153.841" fill="#E98862"></path><path d="M1.6106 151.001C1.6106 151.001 -1.2413 157.951 2.0116 161.943C2.09456 162.044 2.20619 162.119 2.3319 162.156C2.45761 162.193 2.59155 162.191 2.71625 162.151C2.84095 162.11 2.95061 162.033 3.03089 161.929C3.11118 161.826 3.15837 161.7 3.1663 161.569C3.32436 158.878 3.86685 153.347 5.63928 153.994V149.654" fill="#E98862"></path><path d="M40.3638 121.315C40.2341 122.615 40.1399 123.892 40.1257 125.113C39.9932 136.33 43.0183 138.443 41.5279 141.873C40.0784 145.198 11.6685 146.581 11.2889 140.727C11.0473 137.003 14.3258 133.751 14.3258 126.494C14.2982 125.115 14.1161 123.743 13.7829 122.405L10.5838 131.113L7.44345 152.292L0 151.186L3.19734 129.623C3.23572 129.368 3.30013 129.118 3.38956 128.877L11.3106 107.313L11.3583 107.33C11.7025 106.269 12.2967 105.305 13.0906 104.522C14.6674 102.943 17.3975 101.922 20.7229 101.922C25.673 101.922 32.4338 101.932 33.8194 101.991C37.8708 102.163 39.8569 103.912 40.7293 106.521C40.7293 106.522 41.1779 111.631 40.3638 121.315Z" fill="#0066F5"></path><path d="M69.2928 118.213C69.2928 118.213 74.2067 116.898 74.9179 115.968C75.6292 115.037 73.9478 111.865 73.9478 111.865C73.9478 111.865 78.8672 109.901 78.4024 109.104C77.854 108.163 71.7047 111.457 71.7047 111.457C71.7047 111.457 73.0506 109.894 72.4025 109.472C72.1364 109.299 71.7861 109.482 70.7805 110.564C69.6358 111.798 67.6608 113.545 67.6608 113.545L69.2928 118.213Z" fill="#E98862"></path><path d="M48.8878 132.723C48.2184 132.723 47.5611 132.544 46.9838 132.205C46.4064 131.866 45.9297 131.378 45.6028 130.794L33.1395 108.459L39.7085 104.784L49.5908 123.531L67.1239 112.678L70.8285 118.754C70.8285 118.754 56.9845 128.287 52.5814 130.919C51.6534 131.474 49.9555 132.723 48.8878 132.723Z" fill="#0066F5"></path><path d="M178.115 38.9615C188.862 38.9615 197.573 30.2396 197.573 19.4807C197.573 8.72182 188.862 0 178.115 0C167.368 0 158.657 8.72182 158.657 19.4807C158.657 30.2396 167.368 38.9615 178.115 38.9615Z" fill="#F3F5FD"></path><path d="M185.646 16.031H184.573V13.6322C184.579 12.7792 184.417 11.9334 184.095 11.1435C183.773 10.3536 183.299 9.63525 182.698 9.02985C182.098 8.42446 181.384 7.94397 180.597 7.61608C179.811 7.28819 178.967 7.11938 178.115 7.11938C177.263 7.11938 176.419 7.28819 175.633 7.61608C174.846 7.94397 174.132 8.42446 173.532 9.02985C172.932 9.63525 172.457 10.3536 172.135 11.1435C171.813 11.9334 171.651 12.7792 171.657 13.6322V16.031H170.585C170.342 16.031 170.101 16.0788 169.877 16.1718C169.653 16.2648 169.449 16.4011 169.277 16.5729C169.106 16.7447 168.97 16.9488 168.877 17.1733C168.784 17.3978 168.736 17.6385 168.736 17.8815V29.9444C168.736 30.1875 168.784 30.4281 168.877 30.6526C168.97 30.8772 169.106 31.0812 169.277 31.253C169.449 31.4249 169.653 31.5612 169.877 31.6541C170.101 31.7471 170.342 31.795 170.585 31.7949H185.646C186.136 31.7949 186.606 31.5999 186.953 31.2529C187.299 30.9059 187.494 30.4352 187.494 29.9444V17.8815C187.494 17.6385 187.446 17.3978 187.353 17.1733C187.26 16.9488 187.124 16.7448 186.953 16.573C186.781 16.4012 186.577 16.2649 186.353 16.1719C186.129 16.0789 185.888 16.031 185.646 16.031ZM173.756 13.6322C173.756 12.4749 174.216 11.365 175.033 10.5467C175.85 9.72837 176.959 9.26864 178.115 9.26864C179.271 9.26864 180.38 9.72837 181.197 10.5467C182.014 11.365 182.474 12.4749 182.474 13.6322V16.031H173.756V13.6322Z" fill="#0CBC8B"></path><path d="M178.115 26.7148C179.592 26.7148 180.789 25.516 180.789 24.0372C180.789 22.5584 179.592 21.3596 178.115 21.3596C176.638 21.3596 175.44 22.5584 175.44 24.0372C175.44 25.516 176.638 26.7148 178.115 26.7148Z" fill="white"></path><path d="M267.76 153.562C283.577 153.562 296.399 140.726 296.399 124.891C296.399 109.056 283.577 96.2192 267.76 96.2192C251.944 96.2192 239.122 109.056 239.122 124.891C239.122 140.726 251.944 153.562 267.76 153.562Z" fill="#C1D8ED"></path><path d="M262.85 140.545C262.253 140.545 261.679 140.317 261.245 139.907L250.366 129.63C250.135 129.42 249.949 129.167 249.817 128.885C249.685 128.603 249.611 128.297 249.599 127.986C249.587 127.675 249.637 127.364 249.746 127.072C249.855 126.781 250.021 126.514 250.235 126.287C250.448 126.06 250.705 125.879 250.989 125.753C251.274 125.627 251.581 125.559 251.892 125.553C252.203 125.547 252.512 125.603 252.801 125.718C253.09 125.833 253.353 126.005 253.575 126.223L262.721 134.861L281.818 113.792C282.235 113.333 282.817 113.057 283.437 113.027C284.056 112.997 284.662 113.215 285.122 113.632C285.581 114.049 285.856 114.632 285.886 115.253C285.916 115.873 285.699 116.48 285.282 116.94L264.582 139.777C264.373 140.007 264.12 140.194 263.838 140.325C263.557 140.457 263.251 140.531 262.941 140.543C262.91 140.544 262.88 140.545 262.85 140.545Z" fill="white"></path><path d="M321.103 243.129C321.103 243.129 321.078 235.616 321.078 234.95H328.325C328.325 235.614 328.35 243.106 328.35 243.106L321.103 243.129Z" fill="#E98862"></path><path d="M312.293 245.935C312.098 245.934 311.905 245.893 311.727 245.814C311.549 245.736 311.389 245.621 311.257 245.477C311.125 245.334 311.024 245.164 310.96 244.98C310.896 244.796 310.871 244.6 310.886 244.406C310.907 244.136 311.005 243.878 311.167 243.662C311.33 243.446 311.551 243.281 311.804 243.186L320.239 240.358C320.402 240.304 320.575 240.286 320.746 240.305C320.918 240.324 321.083 240.38 321.23 240.468C322.39 241.274 323.777 241.686 325.187 241.643C326.286 241.565 327.341 241.179 328.231 240.53C328.31 240.465 328.405 240.425 328.505 240.412C328.606 240.4 328.707 240.417 328.799 240.46C328.89 240.504 328.968 240.572 329.021 240.658C329.075 240.744 329.104 240.843 329.104 240.944V245.074C329.104 245.196 329.08 245.316 329.033 245.429C328.986 245.541 328.918 245.643 328.832 245.729C328.745 245.815 328.643 245.883 328.53 245.93C328.418 245.976 328.297 246 328.176 245.999L312.293 245.935Z" fill="#C1D8ED"></path><path d="M292.226 242.261C291.462 235.828 291.462 235.167 291.462 234.949H298.709C298.709 234.927 298.709 234.899 298.709 234.865C298.735 235.402 299.101 238.677 299.424 241.404L292.226 242.261Z" fill="#E98862"></path><path d="M317.494 240.637L330.218 239.561C328.667 215.82 323.872 139.094 323.872 139.094L297.618 140.718L297.348 142.559L297.256 142.532C294.177 158.869 292.867 176.913 290.372 193.366C290.196 208.602 290.148 224.561 289.553 239.756L302.321 239.974C302.281 225.143 302.649 209.624 303.084 194.749C305.263 182.886 306.968 170.471 309.474 158.492C311.661 183.161 315.187 217.072 317.494 240.637Z" fill="#013856"></path><path d="M283.397 245.935C283.202 245.934 283.009 245.893 282.831 245.814C282.652 245.736 282.492 245.621 282.36 245.477C282.228 245.334 282.127 245.164 282.063 244.98C282 244.796 281.975 244.6 281.99 244.406C282.011 244.136 282.108 243.878 282.271 243.662C282.433 243.446 282.654 243.281 282.907 243.186L291.342 240.358C291.506 240.304 291.679 240.286 291.85 240.305C292.021 240.324 292.186 240.38 292.334 240.468C293.493 241.274 294.88 241.686 296.291 241.643C297.39 241.565 298.445 241.179 299.335 240.53C299.413 240.466 299.508 240.425 299.609 240.413C299.709 240.4 299.811 240.417 299.902 240.46C299.994 240.504 300.071 240.572 300.125 240.658C300.179 240.744 300.208 240.843 300.207 240.944V245.074C300.207 245.196 300.183 245.316 300.137 245.429C300.09 245.541 300.022 245.643 299.935 245.729C299.849 245.815 299.747 245.883 299.634 245.93C299.522 245.976 299.401 245.999 299.279 245.999L283.397 245.935Z" fill="#C1D8ED"></path><path d="M313.209 97.1965C313.204 97.162 313.203 97.1275 313.202 97.0929C313.185 96.4644 313.19 95.7835 313.231 95.0358L307.693 94.1655C307.814 95.3269 307.835 96.4967 307.754 97.6616C307.738 97.8622 307.72 98.0666 307.698 98.2748C307.508 99.9702 307.017 101.764 305.853 102.744L314.477 102.502C313.905 101.566 313.304 99.9415 313.209 97.1965Z" fill="#E98862"></path><path d="M316.28 92.1262C315.96 94.3436 314.816 96.4667 312.893 97.2344C310.609 98.1454 308.901 98.2508 306.24 98.3258C302.61 98.4294 302.623 94.6342 302.414 90.8168C302.203 86.9842 302.392 82.8614 303.789 81.4846C306.579 78.7359 315.033 80.188 316.181 84.6214C316.774 86.9141 316.584 90.0163 316.28 92.1262Z" fill="#E98862"></path><path d="M300.268 83.8028C300.268 83.8028 298.772 83.5123 299.138 82.0163C299.379 81.0244 300.646 81.2075 300.646 81.2075C300.646 81.2075 299.447 81.0223 299.417 79.9799C299.399 79.3235 299.872 78.1958 301.411 78.789C303.216 79.4848 305.249 79.3318 306.789 79.0274C307.66 78.8107 308.545 78.66 309.438 78.5765H309.442C310.47 78.5297 311.499 78.638 312.494 78.8978C315.284 79.6486 319.606 82.0228 318.81 87.6693C317.949 93.7717 314.329 96.545 313.832 96.9285C312.896 97.651 307.025 97.9578 306.426 97.3915C305.529 96.5437 304.957 93.0497 304.962 86.9347C302.544 86.621 300.885 86.505 300.885 86.505C300.885 86.505 298.884 86.6366 298.844 85.1724C298.804 83.7082 300.268 83.8028 300.268 83.8028Z" fill="#0F1011"></path><path d="M303.333 91.5156C303.316 91.7952 303.354 92.0754 303.446 92.3401C303.537 92.6048 303.68 92.8487 303.867 93.0578C304.053 93.2669 304.278 93.437 304.531 93.5584C304.783 93.6798 305.056 93.75 305.336 93.765C305.615 93.78 305.895 93.7395 306.158 93.6458C306.422 93.5521 306.664 93.4071 306.872 93.2192C307.079 93.0312 307.248 92.804 307.367 92.5506C307.486 92.2973 307.554 92.0228 307.567 91.743C307.587 91.4638 307.55 91.1835 307.459 90.9187C307.369 90.6539 307.226 90.4101 307.039 90.2018C306.852 89.9935 306.625 89.8249 306.372 89.7061C306.119 89.5872 305.845 89.5206 305.565 89.51C304.052 89.5035 303.396 90.3468 303.333 91.5156Z" fill="#E98862"></path><path d="M333.826 154.574L329.703 155.115C329.703 156.144 329.159 159.587 330.033 159.833C330.365 159.926 330.734 158.93 330.961 158.188C331.829 159.653 332.154 163.163 332.27 165.142C332.278 165.273 332.325 165.399 332.405 165.503C332.486 165.606 332.595 165.683 332.72 165.724C332.845 165.764 332.979 165.766 333.104 165.729C333.23 165.692 333.342 165.617 333.425 165.516C336.677 161.525 333.826 154.574 333.826 154.574Z" fill="#E98862"></path><path d="M297.207 125.113C297.095 115.531 292.065 102.483 303.514 101.992C304.899 101.932 311.661 101.923 316.61 101.923C319.936 101.923 322.666 102.945 324.242 104.523C329.678 109.965 323.006 119.238 323.006 126.497C323.006 133.755 326.285 137.006 326.043 140.729C325.664 146.584 297.252 145.201 295.805 141.875C294.314 138.443 297.339 136.33 297.207 125.113Z" fill="#0066F5"></path><path d="M328.518 156.288L325.675 129.708L318.177 108.764L325.26 106.222L332.91 127.589C333.01 127.87 333.077 128.162 333.109 128.459L336 155.485L328.518 156.288Z" fill="#0066F5"></path><path d="M267.304 116.103C267.631 115.419 268.008 114.375 267.545 113.91C267.07 113.435 266.276 114.565 265.79 115.391C264.675 114.918 263.427 114.524 263.035 114.916C262.276 115.676 261.37 118.237 261.82 119.453C262.27 120.67 266.755 120.89 266.755 120.89L268.239 116.344C267.919 116.299 267.605 116.219 267.304 116.103Z" fill="#E98862"></path><path d="M285.888 127.952C285.528 127.952 285.17 127.9 284.824 127.798L265.978 122.235L268.106 115.009L284.596 119.876L297.951 104.028L303.703 108.886L288.763 126.612C288.41 127.032 287.97 127.369 287.473 127.6C286.977 127.832 286.436 127.952 285.888 127.952Z" fill="#0066F5"></path><path d="M99.1746 107.173V108.594H84.686V107.173H99.1746ZM99.1746 110.241V111.662H84.686V110.241H99.1746ZM97.6973 101.861V116.406H95.9928L88.0666 104.986H87.9246V116.406H86.1632V101.861H87.8678L95.8223 113.309H95.9644V101.861H97.6973Z" fill="white"></path></svg>