<svg xmlns="http://www.w3.org/2000/svg" width="326" height="260" viewBox="0 0 326 260" fill="none"><path d="M230.23 49.0851C244.706 49.0851 256.442 38.097 256.442 24.5425C256.442 10.9881 244.706 0 230.23 0C215.753 0 204.017 10.9881 204.017 24.5425C204.017 38.097 215.753 49.0851 230.23 49.0851Z" fill="#0CBC8B"></path><g opacity="0.29"><path d="M230.23 40.4522C239.614 40.4522 247.222 33.3292 247.222 24.5425C247.222 15.7558 239.614 8.63281 230.23 8.63281C220.845 8.63281 213.237 15.7558 213.237 24.5425C213.237 33.3292 220.845 40.4522 230.23 40.4522Z" fill="white"></path></g><path d="M202.046 85.1749C209.713 83.4803 214.46 76.2876 212.65 69.1095C210.841 61.9314 203.158 57.4861 195.492 59.1807C187.825 60.8753 183.077 68.068 184.887 75.2461C186.697 82.4242 194.379 86.8694 202.046 85.1749Z" fill="#AACDF7"></path><path d="M189.32 68.8187C189.32 66.7899 190.74 65.2192 193.089 65.2192C195.419 65.2192 196.857 66.8058 196.857 68.8187C196.857 70.8148 195.438 72.4505 193.089 72.4505C190.74 72.4505 189.32 70.8168 189.32 68.8187ZM194.102 68.8187C194.102 68.1152 193.798 67.5589 193.089 67.5589C192.396 67.5589 192.058 68.1316 192.058 68.8187C192.058 69.5223 192.379 70.1113 193.089 70.1113C193.799 70.1113 194.102 69.5223 194.102 68.8187ZM202.046 65.8484C202.27 65.829 202.496 65.8666 202.699 65.9572C202.903 66.0479 203.076 66.1881 203.202 66.3633C203.327 66.5385 203.4 66.7421 203.413 66.9528C203.425 67.1634 203.377 67.3733 203.272 67.5604L196.6 78.1209C196.47 78.3143 196.289 78.4729 196.074 78.5814C195.859 78.6899 195.618 78.7446 195.374 78.7402C195.15 78.7596 194.924 78.722 194.72 78.6314C194.517 78.5408 194.343 78.4006 194.218 78.2254C194.092 78.0503 194.02 77.8467 194.007 77.6361C193.995 77.4255 194.043 77.2157 194.147 77.0287L200.82 66.4682C200.95 66.2749 201.131 66.1162 201.345 66.0077C201.56 65.8991 201.801 65.8443 202.045 65.8484H202.046ZM200.662 75.5269C200.662 73.4981 202.098 71.911 204.447 71.911C206.777 71.911 208.216 73.4976 208.216 75.5269C208.216 77.523 206.78 79.1428 204.447 79.1428C202.082 79.1413 200.662 77.5215 200.662 75.5269ZM205.462 75.5269C205.462 74.8234 205.14 74.2507 204.447 74.2507C203.738 74.2507 203.416 74.8234 203.416 75.5269C203.416 76.2141 203.738 76.8031 204.447 76.8031C205.157 76.8031 205.462 76.2126 205.462 75.5269Z" fill="white"></path><path d="M279.14 181.565L276.068 182.321L297.62 259.04L300.693 258.283L279.14 181.565Z" fill="#AACDF7"></path><path d="M241.006 181.714L228.15 258.439L231.289 258.901L244.145 182.175L241.006 181.714Z" fill="#AACDF7"></path><path d="M282.025 108.349C282.025 108.349 308.271 106.796 308.271 128.267C308.271 149.738 304.406 179.744 285.064 183.106C265.722 186.469 237.151 185.455 230.517 184.403C222.367 183.109 218.814 165.408 229.67 164.224C260.477 160.863 245.556 110.679 282.025 108.349Z" fill="#AACDF7"></path><path d="M186.765 136.411C186.901 136.408 219.836 136.472 219.901 136.472C224.521 136.472 226.308 138.978 226.308 138.978V140.329H181.278V138.979C183.311 137.688 185.163 136.372 186.765 136.411Z" fill="#DEE8F5"></path><path d="M193.041 139.312C193.041 139.312 190.665 136.119 186.767 136.412C185.709 136.449 184.672 136.697 183.726 137.14C182.779 137.583 181.944 138.21 181.278 138.98V140.331H205.789V138.98C205.789 138.98 204.005 136.474 199.385 136.474C194.765 136.474 193.041 139.312 193.041 139.312Z" fill="#AACDF7"></path><path d="M205.79 140.331H226.307V138.98H205.79V140.331Z" fill="#AACDF7"></path><path d="M231.852 243.812L220.764 244.612L221.763 256.739L232.85 255.938L231.852 243.812Z" fill="#E98862"></path><path d="M207.673 258.572C207.096 258.569 206.544 258.352 206.138 257.968C205.732 257.585 205.505 257.066 205.508 256.526C205.508 256.476 205.508 256.427 205.514 256.377C205.547 255.99 205.696 255.62 205.946 255.31C206.195 255 206.534 254.763 206.922 254.628L219.865 250.568C220.116 250.491 220.382 250.465 220.644 250.492C220.907 250.519 221.16 250.6 221.386 250.727C223.166 251.883 225.294 252.474 227.459 252.413C229.145 252.301 230.764 251.747 232.13 250.815C232.25 250.723 232.395 250.664 232.549 250.647C232.704 250.629 232.86 250.653 233 250.715C233.141 250.777 233.259 250.876 233.342 250.999C233.425 251.122 233.469 251.264 233.468 251.41V257.337C233.468 257.689 233.319 258.026 233.053 258.275C232.787 258.524 232.426 258.664 232.05 258.664H232.044L207.673 258.572Z" fill="#AACDF7"></path><path d="M176.709 243.348L174.531 255.475L185.497 257.202L187.676 245.075L176.709 243.348Z" fill="#E98862"></path><path d="M171.045 246.006L195.461 158.059C196.007 156.094 197.233 154.354 198.949 153.111C200.664 151.869 202.771 151.195 204.94 151.194H258.449V151.227H288.425V159.828C288.425 162.307 287.904 164.763 286.89 167.054C285.877 169.345 284.391 171.427 282.518 173.18C280.646 174.934 278.422 176.325 275.975 177.274C273.528 178.223 270.906 178.712 268.257 178.712H253.637V178.766H228.113L235.141 248.73L215.634 250.445L208.838 182.793L190.008 250.618L171.045 246.006Z" fill="#013856"></path><path d="M161.972 258.572C161.395 258.569 160.842 258.352 160.436 257.968C160.03 257.584 159.804 257.065 159.806 256.525C159.806 256.475 159.806 256.426 159.813 256.376C159.846 255.989 159.995 255.619 160.245 255.309C160.494 254.999 160.833 254.762 161.221 254.627L174.164 250.567C174.415 250.49 174.681 250.463 174.943 250.491C175.206 250.518 175.459 250.598 175.686 250.726C177.465 251.882 179.593 252.473 181.758 252.412C183.444 252.3 185.063 251.746 186.429 250.814C186.549 250.722 186.695 250.664 186.849 250.646C187.003 250.628 187.159 250.652 187.299 250.714C187.439 250.777 187.558 250.875 187.641 250.998C187.723 251.121 187.767 251.263 187.767 251.409V257.337C187.767 257.689 187.618 258.026 187.352 258.275C187.086 258.524 186.725 258.664 186.349 258.664H186.341L161.972 258.572Z" fill="#AACDF7"></path><path d="M211.812 109.192C211.812 109.192 211.733 103.237 207.187 103.547C204.319 103.742 190.691 103.15 190.488 104.312C189.986 107.188 202.452 107.891 203.583 110.57L211.812 109.192Z" fill="#E98862"></path><path d="M208.799 103.738C208.799 103.738 202.471 101.804 200.916 102.151C199.539 102.458 202.409 104.556 202.409 104.556L208.799 103.738Z" fill="#E98862"></path><path d="M224.884 140.342H244.119C242.984 146.062 241.543 148.466 243.031 151.665C245.249 156.439 288.846 158.422 289.429 150.024C289.799 144.679 284.769 140.008 284.769 129.597C284.769 119.185 295.005 105.878 286.664 98.0688C284.25 95.808 280.066 94.3404 274.972 94.3354C274.591 97.1169 256.55 97.1268 256.412 94.3999C255.724 94.4098 255.189 94.4247 254.855 94.4346C248.638 94.6855 245.591 97.1942 244.254 100.939L230.115 124.634L212.038 105.592L202.308 110.714L224.884 135.323L224.884 140.342ZM245.18 127.613C245.188 128.277 245.185 128.911 245.18 129.531H240.422L244.817 122.164C245.015 124.029 245.16 125.862 245.181 127.613H245.18Z" fill="#0066F5"></path><path d="M256.411 94.3999C256.549 97.1268 258.138 101.138 263.02 101.435C269.539 101.842 274.59 97.1169 274.972 94.3354H274.951C268.543 94.3354 260.155 94.3454 256.411 94.3999Z" fill="#E98862"></path><path d="M217.065 137.745C218.097 138.504 222.567 138.741 224.886 138.816V130.769C223.705 130.174 222.233 129.406 221.137 128.751C219.617 127.838 218.929 127.576 218.547 127.675H218.542C218.452 127.7 218.371 127.748 218.309 127.814C218.258 127.867 218.218 127.93 218.193 127.997C217.944 128.627 219.082 129.574 219.712 130.04L219.718 130.045C219.945 130.213 220.109 130.323 220.109 130.323L218.764 130.903L218.759 130.908L217.584 131.418L217.568 131.423L216.932 131.696C216.932 131.696 216.821 132.133 216.699 132.772V132.777C216.413 134.309 216.069 137.016 217.065 137.745Z" fill="#E98862"></path><path d="M209.436 137.755L212.169 136.883L220.218 129.586L221.31 128.592L223.263 126.825L221.434 125.06L219.464 126.847L218.369 127.837L210.344 135.115L209.436 137.755Z" fill="#0CBC8B"></path><path d="M218.369 127.837L220.218 129.586L221.311 128.592L219.465 126.847L218.369 127.837Z" fill="white"></path><path d="M219.297 130.164C218.604 130.176 217.913 130.23 217.228 130.324C216.522 130.41 215.826 130.557 215.149 130.763C214.772 130.875 214.408 131.02 214.061 131.197C213.866 131.296 213.681 131.411 213.506 131.539L213.116 131.854C212.604 132.286 212.136 132.763 211.72 133.277C211.606 133.419 211.55 133.594 211.56 133.771C211.571 133.947 211.648 134.115 211.778 134.244C211.908 134.372 212.082 134.454 212.27 134.474C212.458 134.494 212.648 134.451 212.805 134.353L212.843 134.33L214.378 133.366L214.762 133.129C214.851 133.082 214.944 133.04 215.038 133.003C215.274 132.913 215.518 132.843 215.767 132.795C216.341 132.682 216.921 132.604 217.506 132.562C218.103 132.517 218.739 132.484 219.315 132.475H219.342C219.504 132.472 219.664 132.44 219.813 132.379C219.961 132.318 220.096 132.231 220.208 132.122C220.321 132.013 220.409 131.884 220.469 131.743C220.528 131.602 220.557 131.451 220.554 131.299C220.551 131.147 220.517 130.998 220.452 130.859C220.387 130.72 220.294 130.594 220.178 130.488C220.061 130.383 219.923 130.3 219.773 130.244C219.622 130.189 219.461 130.162 219.299 130.164L219.297 130.164Z" fill="#E98862"></path><path d="M170.02 145.147H165.047V258.664H170.02V145.147Z" fill="#AACDF7"></path><path d="M275.889 145.44H270.916V258.957H275.889V145.44Z" fill="#AACDF7"></path><path d="M318.763 145.147H313.79V258.664H318.763V145.147Z" fill="#AACDF7"></path><g opacity="0.05"><path d="M170.02 145.147H165.047V258.664H170.02V145.147Z" fill="black"></path></g><g opacity="0.05"><path d="M318.763 145.147H313.79V258.664H318.763V145.147Z" fill="black"></path></g><path d="M127.657 145.147H122.684V258.664H127.657V145.147Z" fill="#AACDF7"></path><path d="M325.638 140.459H115.809V146.861H325.638V140.459Z" fill="#AACDF7"></path><path d="M167.946 111.804L174.374 137.076C174.474 137.469 174.477 137.878 174.384 138.273C174.291 138.667 174.104 139.037 173.836 139.354C173.569 139.671 173.228 139.928 172.839 140.104C172.451 140.28 172.025 140.372 171.593 140.372H133.689C133.062 140.372 132.453 140.18 131.955 139.824C131.457 139.469 131.098 138.97 130.932 138.404L123.523 113.133C123.407 112.736 123.39 112.319 123.474 111.915C123.558 111.51 123.74 111.129 124.007 110.802C124.273 110.474 124.617 110.209 125.012 110.026C125.406 109.843 125.84 109.748 126.28 109.748H165.165C165.808 109.748 166.432 109.951 166.936 110.324C167.441 110.697 167.797 111.218 167.946 111.804Z" fill="#9EBCEA"></path><path d="M187.87 140.372H142.055C141.61 140.372 141.182 140.207 140.867 139.912C140.552 139.617 140.376 139.217 140.376 138.8C140.376 138.383 140.552 137.983 140.867 137.688C141.182 137.393 141.61 137.227 142.055 137.227H187.87C188.316 137.227 188.743 137.393 189.058 137.688C189.373 137.983 189.55 138.383 189.55 138.8C189.55 139.217 189.373 139.617 189.058 139.912C188.743 140.207 188.316 140.372 187.87 140.372Z" fill="#9EBCEA"></path><path d="M147.397 129.008C149.873 129.008 151.88 127.129 151.88 124.811C151.88 122.493 149.873 120.613 147.397 120.613C144.921 120.613 142.914 122.493 142.914 124.811C142.914 127.129 144.921 129.008 147.397 129.008Z" fill="white"></path><path d="M251.816 66.9734C251.816 66.9734 247.802 80.4388 245.547 87.4261C245.44 87.7571 245.418 88.107 245.481 88.4477C245.545 88.7884 245.693 89.1104 245.913 89.3879C246.133 89.6655 246.42 89.8909 246.75 90.046C247.08 90.2012 247.444 90.2818 247.814 90.2814H261.9C262.508 90.2813 263.093 90.0619 263.533 89.6687C263.974 89.2756 264.236 88.7388 264.264 88.1698L265.214 69.4251L251.816 66.9734Z" fill="#0F1011"></path><path d="M273.403 96.9266C273.403 96.9266 269.306 94.8973 270.21 84.4567L261.748 82.9951C261.748 82.9951 262.707 92.3543 258.43 95.3296L273.403 96.9266Z" fill="#E98862"></path><g opacity="0.15"><path d="M260.163 93.3716L267.186 88.3313L261.666 88.2817C261.508 90.0512 260.998 91.7774 260.163 93.3716Z" fill="black"></path></g><path d="M275.007 80.4051C274.424 83.5727 272.581 86.5738 269.597 87.5991C266.346 88.8109 262.827 89.2591 259.348 88.9046C250.086 88.2015 251.899 68.4831 256.293 64.6496C260.686 60.8161 273.593 63.2306 275.169 69.6348C275.984 72.9488 275.561 77.3921 275.007 80.4051Z" fill="#E98862"></path><path d="M261.755 77.9764C262.179 77.9764 262.522 77.6547 262.522 77.258C262.522 76.8612 262.179 76.5396 261.755 76.5396C261.331 76.5396 260.988 76.8612 260.988 77.258C260.988 77.6547 261.331 77.9764 261.755 77.9764Z" fill="#0F1011"></path><path d="M255.701 77.5167C256.125 77.5167 256.469 77.195 256.469 76.7982C256.469 76.4015 256.125 76.0798 255.701 76.0798C255.278 76.0798 254.934 76.4015 254.934 76.7982C254.934 77.195 255.278 77.5167 255.701 77.5167Z" fill="#0F1011"></path><path d="M254.37 75.2687H254.375L256.408 75.2429C256.503 75.2418 256.595 75.205 256.661 75.1409C256.728 75.0767 256.765 74.9904 256.764 74.9008C256.762 74.8113 256.723 74.7259 256.655 74.6634C256.586 74.6009 256.494 74.5665 256.398 74.5677L254.365 74.5934C254.318 74.5937 254.271 74.6028 254.227 74.62C254.184 74.6372 254.144 74.6623 254.111 74.6939C254.078 74.7255 254.051 74.7629 254.034 74.8039C254.016 74.845 254.007 74.889 254.007 74.9333C254.007 74.9776 254.017 75.0215 254.035 75.0624C254.054 75.1032 254.081 75.1403 254.114 75.1714C254.148 75.2025 254.188 75.2272 254.232 75.2439C254.276 75.2606 254.323 75.269 254.37 75.2687Z" fill="#0F1011"></path><path d="M263.409 75.9549C263.498 75.9548 263.583 75.9244 263.649 75.8695C263.715 75.8146 263.757 75.739 263.767 75.6569C263.777 75.5749 263.755 75.4921 263.705 75.4243C263.654 75.3565 263.579 75.3084 263.493 75.289L261.489 74.8393C261.443 74.8278 261.394 74.8252 261.347 74.8314C261.299 74.8377 261.253 74.8528 261.212 74.8759C261.171 74.899 261.135 74.9295 261.107 74.9657C261.078 75.002 261.058 75.0432 261.046 75.0869C261.035 75.1306 261.033 75.1761 261.041 75.2204C261.049 75.2648 261.066 75.3073 261.092 75.3454C261.117 75.3835 261.151 75.4164 261.19 75.4422C261.229 75.468 261.274 75.4863 261.321 75.4958L263.325 75.9454C263.352 75.9517 263.381 75.9549 263.409 75.9549Z" fill="#0F1011"></path><path d="M261.405 82.9145C261.405 82.9145 258.574 83.1966 256.587 82.5491C256.587 82.5491 256.604 84.2953 258.846 84.4658C261.087 84.6364 261.405 82.9145 261.405 82.9145Z" fill="white"></path><g opacity="0.15"><path d="M258.352 81.2455C258.416 81.2456 258.477 81.2243 258.525 81.1856C258.573 81.1468 258.605 81.0932 258.614 81.0345C258.624 80.9757 258.61 80.9158 258.576 80.8655C258.543 80.8153 258.491 80.7781 258.43 80.7606L256.869 80.3144L257.959 78.0372C257.984 77.9778 257.984 77.9116 257.958 77.8523C257.932 77.7931 257.883 77.7455 257.821 77.7194C257.758 77.6933 257.688 77.6907 257.624 77.7122C257.559 77.7338 257.506 77.7777 257.476 77.8349L256.141 80.6243L258.275 81.2361C258.3 81.2428 258.326 81.246 258.352 81.2455Z" fill="black"></path></g><path d="M251.333 68.5857C251.333 68.5857 252.689 58.3162 270.264 60.8384C274.645 61.467 280.854 64.6699 281.86 75.167C282.32 79.9822 284.093 84.5222 285.445 87.3958C285.605 87.7332 285.673 88.1027 285.642 88.4707C285.611 88.8387 285.482 89.1936 285.267 89.5032C285.052 89.8128 284.758 90.0673 284.412 90.2435C284.066 90.4197 283.678 90.5122 283.283 90.5124L270.929 90.5164C270.619 90.517 270.311 90.4603 270.024 90.3496C269.737 90.2389 269.476 90.0763 269.256 89.8711C269.036 89.666 268.862 89.4222 268.743 89.1539C268.623 88.8855 268.562 88.5978 268.561 88.3071C268.561 88.2744 268.561 88.2422 268.561 88.208C268.65 86.2391 268.72 82.9059 268.6 77.8111C267.958 74.9032 269.669 72.8531 267.185 73.5214C257.964 76.0009 252.025 68.7538 251.333 68.5857Z" fill="#0F1011"></path><path d="M265.632 80.351C265.598 80.7497 265.647 81.1508 265.778 81.5315C265.91 81.9122 266.119 82.265 266.396 82.5697C266.955 83.1852 267.752 83.5677 268.612 83.6329C269.472 83.6982 270.324 83.441 270.981 82.9179C271.639 82.3947 272.047 81.6485 272.117 80.8433C272.2 80.053 271.943 79.2642 271.405 78.6506C270.867 78.037 270.09 77.6487 269.246 77.5711C269.21 77.5676 269.174 77.5646 269.14 77.5626C266.819 77.4912 265.778 78.6742 265.632 80.351Z" fill="#E98862"></path><path d="M58.2957 249.83L47.2532 248.6C47.7505 244.687 48.3123 239.987 48.3504 239.216C48.3504 239.266 48.3504 239.306 48.3504 239.338H59.4707C59.4681 239.653 59.4681 240.6 58.2957 249.83Z" fill="#E98862"></path><path d="M13.9867 251.074L2.86639 251.041C2.86639 251.041 2.90346 240.29 2.90346 239.34H14.0237C14.0237 240.292 13.9867 251.074 13.9867 251.074Z" fill="#E98862"></path><path d="M42.8083 246.544L62.3986 246.231C61.5841 226.913 61.4454 204.818 61.2262 184.824C59.2939 158.612 55.1068 132.666 50.5782 106.711L50.4368 106.75L50.0227 104.107L9.73766 101.779C6.98407 130.139 4.07161 187.602 0 245.953L19.5235 247.497C23.0412 213.887 28.4865 164.917 31.8331 129.611C41.4458 168.091 43.6402 207.265 42.8083 246.544Z" fill="#013856"></path><path d="M27.5047 255.102C29.8606 255.151 30.4807 251.871 28.2551 251.157C27.348 251.107 14.3182 246.157 13.7913 247.256C6.70659 251.905 2.14145 245.262 1.70935 247.94V253.867C1.70935 254.041 1.74622 254.215 1.81785 254.376C1.88948 254.537 1.99446 254.684 2.12676 254.807C2.25906 254.931 2.41608 255.028 2.5888 255.095C2.76153 255.161 2.94656 255.195 3.13328 255.194L27.5047 255.102Z" fill="#AACDF7"></path><path d="M71.8444 255.102C74.2004 255.151 74.821 251.871 72.5953 251.157C71.6877 251.107 58.6584 246.157 58.131 247.256C51.0469 251.905 46.4838 245.262 46.0496 247.94V253.867C46.0496 254.041 46.0865 254.215 46.1581 254.376C46.2298 254.537 46.3347 254.684 46.467 254.807C46.5993 254.931 46.7564 255.028 46.9291 255.095C47.1018 255.161 47.2868 255.195 47.4735 255.194L71.8444 255.102Z" fill="#AACDF7"></path><path d="M61.8119 87.5653C65.2539 87.1191 74.6621 87.1935 65.4514 89.7469L61.8119 87.5653Z" fill="#E98862"></path><path d="M60.9566 93.6819C60.9566 93.6819 71.953 97.9116 78.2725 93.087C78.4303 92.9626 78.545 92.797 78.6018 92.6113C78.6586 92.4256 78.6551 92.2283 78.5916 92.0445C78.5281 91.8608 78.4076 91.6989 78.2454 91.5795C78.0832 91.4602 77.8867 91.3888 77.681 91.3745C73.4219 91.138 64.6735 90.3333 65.6949 87.7056H58.8242" fill="#E98862"></path><path d="M69.9614 81.9916C70.987 81.9905 71.9932 81.7294 72.8731 81.236C73.7531 80.7426 74.4739 80.0354 74.9591 79.1894L90.0764 52.7603L80.0803 47.7483L68.4771 68.0359L49.5398 51.1718L42.678 59.7149C45.0461 61.0531 67.0071 83.3883 69.9614 81.9916Z" fill="#0066F5"></path><path d="M53.4705 106.906C51.2084 111.774 7.81436 113.798 7.22022 105.233C6.84213 99.783 9.32407 95.0258 9.32407 84.4043C7.80853 69.8437 -3.96096 49.1624 20.9013 48.4504C21.29 51.2869 39.6809 51.2968 39.8207 48.5164C59.3076 47.9323 51.713 67.7767 51.2783 82.3874C51.068 98.7958 55.8032 101.891 53.4705 106.906Z" fill="#0066F5"></path><path d="M39.8185 48.5164C39.4341 60.1771 22.0833 55.5235 20.8992 48.4504C27.4406 48.4504 36.0059 48.4608 39.8185 48.5164Z" fill="#E98862"></path><path d="M29.2474 98.1019C29.3766 98.1053 63.2013 97.1326 63.3565 97.1306L62.9969 86.1129L32.9049 86.9717L17.0283 55.8652L6.40472 60.6194L23.9361 94.9684C24.4154 95.9068 25.1684 96.699 26.1083 97.2535C27.0482 97.808 28.1365 98.1021 29.2474 98.1019Z" fill="#0066F5"></path><path d="M92.203 47.1057L88.3268 51.8852L80.6379 48.0259C82.0147 46.0626 85.3614 43.5142 85.3614 43.5142L92.203 47.1057Z" fill="#E98862"></path><path d="M114.156 31.9506L91.7864 28.4949C90.8691 28.3532 90.0028 28.9345 89.8514 29.7934L85.0174 57.225C84.8661 58.0838 85.487 58.8949 86.4043 59.0366L108.774 62.4923C109.691 62.634 110.558 62.0527 110.709 61.1938L115.543 33.7623C115.694 32.9034 115.073 32.0923 114.156 31.9506Z" fill="#013856"></path><path d="M112.397 34.4019L92.6096 31.3451C92.2853 31.295 91.979 31.5006 91.9254 31.8042L91.3728 34.9404C91.3193 35.2441 91.5388 35.5309 91.8632 35.581L111.651 38.6378C111.975 38.6879 112.281 38.4823 112.335 38.1787L112.888 35.0425C112.941 34.7388 112.722 34.452 112.397 34.4019Z" fill="white"></path><path d="M96.1517 37.9773L92.3231 37.3859C91.7884 37.3033 91.2834 37.6422 91.1952 38.1428L90.8075 40.3427C90.7193 40.8433 91.0812 41.3161 91.6159 41.3987L95.4446 41.9901C95.9793 42.0727 96.4843 41.7339 96.5725 41.2332L96.9602 39.0334C97.0484 38.5327 96.6864 38.0599 96.1517 37.9773Z" fill="#FD5D76"></path><path opacity="0.29" d="M103.374 39.0933L99.5457 38.5019C99.011 38.4193 98.5061 38.7581 98.4178 39.2588L98.0302 41.4586C97.942 41.9592 98.3039 42.432 98.8386 42.5146L102.667 43.1061C103.202 43.1887 103.707 42.8498 103.795 42.3492L104.183 40.1493C104.271 39.6487 103.909 39.1759 103.374 39.0933Z" fill="white"></path><path opacity="0.29" d="M110.597 40.2085L106.768 39.6171C106.233 39.5345 105.728 39.8734 105.64 40.374L105.252 42.5739C105.164 43.0745 105.526 43.5473 106.061 43.6299L109.89 44.2213C110.424 44.3039 110.929 43.9651 111.017 43.4644L111.405 41.2646C111.493 40.764 111.131 40.2911 110.597 40.2085Z" fill="white"></path><path opacity="0.29" d="M95.2382 43.1612L91.4095 42.5697C90.8749 42.4871 90.3699 42.826 90.2817 43.3266L89.894 45.5265C89.8058 46.0271 90.1677 46.4999 90.7024 46.5825L94.5311 47.174C95.0658 47.2566 95.5708 46.9177 95.659 46.4171L96.0466 44.2172C96.1349 43.7166 95.7729 43.2438 95.2382 43.1612Z" fill="white"></path><path opacity="0.29" d="M102.461 44.2769L98.6323 43.6854C98.0976 43.6028 97.5926 43.9417 97.5044 44.4424L97.1168 46.6422C97.0285 47.1428 97.3905 47.6156 97.9252 47.6982L101.754 48.2897C102.289 48.3723 102.794 48.0334 102.882 47.5328L103.269 45.3329C103.358 44.8323 102.996 44.3595 102.461 44.2769Z" fill="white"></path><path opacity="0.29" d="M109.702 45.4551L105.872 44.8629C105.337 44.7802 104.832 45.1191 104.743 45.6199L104.355 47.8205C104.267 48.3213 104.629 48.7943 105.164 48.8771L108.994 49.4693C109.529 49.552 110.034 49.213 110.122 48.7122L110.51 46.5116C110.599 46.0108 110.237 45.5378 109.702 45.4551Z" fill="white"></path><path opacity="0.29" d="M94.3248 48.345L90.4961 47.7536C89.9614 47.671 89.4565 48.0098 89.3682 48.5105L88.9806 50.7103C88.8924 51.211 89.2543 51.6838 89.789 51.7664L93.6177 52.3578C94.1524 52.4404 94.6573 52.1015 94.7456 51.6009L95.1332 49.401C95.2214 48.9004 94.8595 48.4276 94.3248 48.345Z" fill="white"></path><path opacity="0.29" d="M101.548 49.4603L97.7188 48.8688C97.1842 48.7862 96.6792 49.1251 96.591 49.6257L96.2033 51.8256C96.1151 52.3262 96.477 52.799 97.0117 52.8816L100.84 53.473C101.375 53.5556 101.88 53.2168 101.968 52.7161L102.356 50.5163C102.444 50.0157 102.082 49.5429 101.548 49.4603Z" fill="white"></path><path opacity="0.29" d="M93.4113 53.5286L89.5826 52.9372C89.0479 52.8546 88.543 53.1934 88.4547 53.6941L88.0671 55.8939C87.9789 56.3946 88.3408 56.8673 88.8755 56.9499L92.7042 57.5414C93.2389 57.624 93.7438 57.2851 93.832 56.7845L94.2197 54.5846C94.3079 54.084 93.946 53.6112 93.4113 53.5286Z" fill="white"></path><path opacity="0.29" d="M100.634 54.6443L96.8054 54.0529C96.2707 53.9703 95.7657 54.3092 95.6775 54.8098L95.2898 57.0096C95.2016 57.5103 95.5635 57.9831 96.0982 58.0657L99.9269 58.6571C100.462 58.7397 100.967 58.4008 101.055 57.9002L101.442 55.7004C101.531 55.1997 101.169 54.7269 100.634 54.6443Z" fill="white"></path><path d="M104.941 49.9854C104.813 49.9658 104.683 49.9698 104.558 49.9972C104.432 50.0246 104.314 50.0749 104.209 50.1452C104.104 50.2155 104.015 50.3044 103.947 50.4069C103.879 50.5094 103.834 50.6234 103.813 50.7425L103.113 54.7089L102.954 55.6013L102.51 58.1175C102.468 58.358 102.53 58.6043 102.681 58.8024C102.833 59.0005 103.062 59.1342 103.319 59.174L107.148 59.765C107.275 59.7848 107.405 59.7808 107.53 59.7535C107.656 59.7261 107.774 59.6758 107.879 59.6056C107.984 59.5353 108.073 59.4464 108.141 59.344C108.209 59.2415 108.255 59.1275 108.276 59.0084L108.719 56.4918L108.878 55.5993L109.577 51.6329C109.619 51.3926 109.558 51.1463 109.406 50.9482C109.255 50.7502 109.025 50.6166 108.769 50.5769L104.941 49.9854Z" fill="#0CBC8B"></path><path d="M83.991 47.9299C83.991 47.9299 81.7139 46.862 83.1744 45.4212C85.1056 43.5178 87.6654 41.4687 89.1471 42.2059C90.0801 42.6705 87.4356 45.3349 85.4403 47.2041" fill="#E98862"></path><path d="M26.1502 41.7741C26.1555 41.6352 26.1555 41.5019 26.1555 41.3576C26.1608 40.4557 26.1189 39.4735 26.0231 38.4031L27.1351 38.2093L34.4846 36.9351C34.338 38.6955 34.3666 40.4648 34.5698 42.2203C34.5958 42.4186 34.6228 42.6224 34.654 42.8256C34.6752 42.9838 34.7022 43.1474 34.7334 43.3066C34.7647 43.4657 34.7864 43.6184 34.8235 43.7721C34.887 44.0993 34.9611 44.4271 35.0512 44.7488C35.0677 44.8261 35.0889 44.9024 35.1147 44.9774C35.116 44.9909 35.1196 45.0041 35.1253 45.0166C35.1677 45.1807 35.2206 45.3493 35.2789 45.5074C35.3371 45.6909 35.4007 45.8694 35.4753 46.0483C35.4965 46.1024 35.5177 46.1624 35.5436 46.2169C35.6125 46.3954 35.6919 46.5684 35.7766 46.737C35.8666 46.9304 35.9673 47.1188 36.0732 47.3022C36.0746 47.3022 36.0759 47.3027 36.0769 47.3037C36.0779 47.3046 36.0785 47.3059 36.0785 47.3072C36.4777 48.0395 37.0394 48.6835 37.7259 49.1962H24.4186C25.2394 47.8674 26.0866 45.5818 26.1502 41.7741Z" fill="#E98862"></path><path opacity="0.15" d="M36.0806 47.3098L29.0526 42.275L34.5725 42.2214C34.7324 43.9907 35.2439 45.7164 36.0806 47.3098Z" fill="black"></path><path d="M21.2243 34.3554C21.81 37.5225 23.6565 40.5221 26.6404 41.5445C30.1825 42.7592 32.8064 42.8415 36.8907 42.8415C42.4646 42.8415 42.2803 37.3991 42.4365 31.9151C42.5954 26.4087 42.1262 20.5023 39.9234 18.5835C35.5282 14.754 22.6218 17.1794 21.0522 23.5851C20.2405 26.8986 20.6673 31.3404 21.2243 34.3554Z" fill="#E98862"></path><path d="M45.8802 18.5232C44.9477 15.3223 42.0421 13.7581 37.2365 14.9341C33.8189 15.7705 33.3863 15.0184 30.4923 13.714C28.8349 12.9668 23.3965 13.3084 22.051 16.7542C20.6085 20.4459 16.1456 17.4563 15.731 23.4703C15.3846 28.5041 16.4257 35.0417 22.3984 39.4415C23.3511 40.338 24.4336 41.1047 25.6142 41.7192C26.121 42.0013 26.2439 41.7717 26.4197 41.2452C27.0413 39.383 28.2985 32.8721 27.7848 27.574C27.7006 26.7024 27.8743 25.3479 30.2615 25.2537C32.8689 25.1511 39.6454 25.6999 42.0437 24.0905C42.0426 24.0905 46.8127 21.7246 45.8802 18.5232Z" fill="#0F1011"></path><path d="M34.4729 31.9153C34.8966 31.9153 35.2402 31.5937 35.2402 31.1969C35.2402 30.8002 34.8966 30.4785 34.4729 30.4785C34.0491 30.4785 33.7056 30.8002 33.7056 31.1969C33.7056 31.5937 34.0491 31.9153 34.4729 31.9153Z" fill="#0F1011"></path><path d="M40.526 31.451C40.9498 31.451 41.2933 31.1293 41.2933 30.7326C41.2933 30.3358 40.9498 30.0142 40.526 30.0142C40.1022 30.0142 39.7587 30.3358 39.7587 30.7326C39.7587 31.1293 40.1022 31.451 40.526 31.451Z" fill="#0F1011"></path><path d="M41.8557 29.2015H41.8515L39.8186 29.1777C39.7254 29.1738 39.6374 29.1363 39.5731 29.073C39.5089 29.0097 39.4733 28.9255 39.4739 28.8382C39.4746 28.7508 39.5113 28.6671 39.5765 28.6046C39.6416 28.5421 39.7301 28.5056 39.8233 28.5029H39.8276L41.8605 28.5262C41.9561 28.5268 42.0476 28.563 42.1148 28.6267C42.1819 28.6904 42.2193 28.7766 42.2187 28.8661C42.2181 28.9556 42.1795 29.0413 42.1114 29.1042C42.0433 29.1671 41.9513 29.2021 41.8557 29.2015Z" fill="#0F1011"></path><path d="M32.8165 29.8952C32.7283 29.895 32.6432 29.8645 32.5774 29.8096C32.5116 29.7546 32.4695 29.679 32.4592 29.597C32.4489 29.515 32.4711 29.4323 32.5215 29.3645C32.5719 29.2968 32.6471 29.2487 32.7328 29.2293L34.7366 28.7776C34.8296 28.7567 34.9277 28.7713 35.0093 28.8181C35.0909 28.8649 35.1492 28.9402 35.1716 29.0273C35.1939 29.1144 35.1784 29.2062 35.1284 29.2826C35.0784 29.359 34.998 29.4137 34.905 29.4346L32.9012 29.8862C32.8734 29.8921 32.845 29.8951 32.8165 29.8952Z" fill="#0F1011"></path><path d="M30.4812 32.9538C30.5224 33.3555 30.4779 33.7609 30.3503 34.1464C30.2226 34.5319 30.0144 34.8898 29.7378 35.1993C29.4611 35.5088 29.1216 35.7638 28.7388 35.9493C28.356 36.1349 27.9376 36.2474 27.508 36.2802C27.0783 36.3131 26.646 36.2657 26.2361 36.1407C25.8262 36.0158 25.447 35.8158 25.1203 35.5524C24.7937 35.289 24.5263 34.9675 24.3335 34.6065C24.1408 34.2455 24.0266 33.8522 23.9976 33.4496C23.9553 33.0496 23.9993 32.6458 24.1272 32.2622C24.255 31.8786 24.464 31.5229 24.7416 31.2165C25.0193 30.9101 25.36 30.6591 25.7435 30.4785C26.1269 30.2979 26.5453 30.1914 26.9736 30.1654C29.2919 30.0975 30.3346 31.2785 30.4812 32.9538Z" fill="#E98862"></path><g opacity="0.15"><path d="M37.8789 35.182C37.8155 35.1821 37.7541 35.1608 37.706 35.1221C37.658 35.0833 37.6263 35.0297 37.6169 34.971C37.6075 34.9123 37.6209 34.8523 37.6547 34.802C37.6885 34.7518 37.7404 34.7146 37.801 34.6971L39.3616 34.2484L38.2702 31.9727C38.2554 31.943 38.2471 31.9108 38.2458 31.878C38.2444 31.8452 38.25 31.8125 38.2622 31.7817C38.2745 31.751 38.2931 31.7228 38.3171 31.6988C38.341 31.6749 38.3698 31.6556 38.4018 31.6422C38.4337 31.6287 38.4682 31.6213 38.5033 31.6204C38.5383 31.6196 38.5732 31.6252 38.6059 31.6371C38.6386 31.6489 38.6684 31.6667 38.6937 31.6894C38.719 31.7122 38.7392 31.7394 38.7532 31.7694L39.9674 34.301C39.9829 34.3331 39.9909 34.3679 39.9909 34.4031C39.9909 34.4383 39.9829 34.4731 39.9674 34.5052C39.9519 34.5373 39.9293 34.5659 39.9011 34.5892C39.8729 34.6124 39.8397 34.6298 39.8038 34.6401L37.9567 35.1711C37.9315 35.1784 37.9053 35.182 37.8789 35.182Z" fill="black"></path></g><path d="M34.8277 36.8547C34.8277 36.8547 37.6602 37.1348 39.6465 36.4854C39.6465 36.4854 39.6306 38.2315 37.3896 38.4036C35.1486 38.5756 34.8277 36.8547 34.8277 36.8547Z" fill="#F8FCFF"></path><path d="M237.943 20.767V22.1875H223.455V20.767H237.943ZM237.943 23.8352V25.2557H223.455V23.8352H237.943ZM236.466 15.4545V30H234.761L226.835 18.5795H226.693V30H224.932V15.4545H226.636L234.591 26.9034H234.733V15.4545H236.466Z" fill="white"></path></svg>