<svg xmlns="http://www.w3.org/2000/svg" width="324" height="265" viewBox="0 0 324 265" fill="none"><path d="M9.5488 264.033H323.744C323.778 264.033 323.811 264.027 323.842 264.015C323.873 264.003 323.901 263.985 323.925 263.963C323.949 263.941 323.968 263.914 323.981 263.885C323.993 263.856 324 263.825 324 263.794C324 263.762 323.993 263.731 323.981 263.702C323.968 263.673 323.949 263.647 323.925 263.624C323.901 263.602 323.873 263.584 323.842 263.572C323.811 263.56 323.778 263.554 323.744 263.554H9.54953C9.48175 263.554 9.41672 263.579 9.36877 263.624C9.32083 263.669 9.29391 263.73 9.29391 263.794C9.29391 263.857 9.32083 263.918 9.36877 263.963C9.41672 264.008 9.48175 264.033 9.54953 264.033H9.5488Z" fill="#292A2E"></path><g opacity="0.65"><path d="M9.5488 264.033H323.744C323.778 264.033 323.811 264.027 323.842 264.015C323.873 264.003 323.901 263.985 323.925 263.963C323.949 263.941 323.968 263.914 323.981 263.885C323.993 263.856 324 263.825 324 263.794C324 263.762 323.993 263.731 323.981 263.702C323.968 263.673 323.949 263.647 323.925 263.624C323.901 263.602 323.873 263.584 323.842 263.572C323.811 263.56 323.778 263.554 323.744 263.554H9.54953C9.48175 263.554 9.41672 263.579 9.36877 263.624C9.32083 263.669 9.29391 263.73 9.29391 263.794C9.29391 263.857 9.32083 263.918 9.36877 263.963C9.41672 264.008 9.48175 264.033 9.54953 264.033H9.5488Z" fill="#292A2E"></path></g><path d="M301.87 263.612L302.587 263.483L291.378 159.15L290.661 159.279L301.87 263.612Z" fill="#494949"></path><path d="M260.132 263.612L260.85 263.483L249.64 159.15L248.924 159.279L260.132 263.612Z" fill="#494949"></path><path d="M167.874 263.612L167.157 263.483L178.366 159.15L179.083 159.279L167.874 263.612Z" fill="#494949"></path><path d="M209.611 263.612L208.895 263.483L220.103 159.15L220.821 159.279L209.611 263.612Z" fill="#494949"></path><path d="M224.477 113.233L225.201 113.324L218.653 159.261L217.929 159.17L224.477 113.233Z" fill="#494949"></path><path d="M299.637 113.233L300.361 113.323L293.812 159.26L293.089 159.17L299.637 113.233Z" fill="#494949"></path><path d="M217.991 155.851H291.506C293.49 155.851 295.098 157.357 295.098 159.215V159.215C295.098 161.073 293.49 162.579 291.506 162.579H217.991C216.008 162.579 214.4 161.073 214.4 159.215V159.215C214.4 157.357 216.008 155.851 217.991 155.851Z" fill="#292A2E"></path><path opacity="0.8" d="M217.991 155.851H291.506C293.49 155.851 295.098 157.357 295.098 159.215V159.215C295.098 161.073 293.49 162.579 291.506 162.579H217.991C216.008 162.579 214.4 161.073 214.4 159.215V159.215C214.4 157.357 216.008 155.851 217.991 155.851Z" fill="#C1D8ED"></path><path d="M217.993 162.921H291.506C292.549 162.912 293.546 162.517 294.28 161.823C295.013 161.129 295.425 160.192 295.425 159.215C295.425 158.238 295.013 157.301 294.28 156.607C293.546 155.913 292.549 155.518 291.506 155.509H217.993C216.95 155.518 215.953 155.913 215.219 156.607C214.486 157.301 214.074 158.238 214.074 159.215C214.074 160.192 214.486 161.129 215.219 161.823C215.953 162.517 216.95 162.912 217.993 162.921ZM291.506 156.193C292.356 156.201 293.168 156.523 293.766 157.089C294.363 157.655 294.698 158.419 294.698 159.215C294.698 160.011 294.363 160.775 293.766 161.341C293.168 161.906 292.356 162.229 291.506 162.237H217.993C217.143 162.229 216.331 161.906 215.733 161.341C215.136 160.775 214.8 160.011 214.8 159.215C214.8 158.419 215.136 157.655 215.733 157.089C216.331 156.523 217.143 156.201 217.993 156.193H291.506Z" fill="#292A2E"></path><path d="M177.642 155.851H251.157C253.141 155.851 254.749 157.357 254.749 159.215V159.215C254.749 161.073 253.141 162.579 251.157 162.579H177.642C175.659 162.579 174.051 161.073 174.051 159.215V159.215C174.051 157.357 175.659 155.851 177.642 155.851Z" fill="#C1D8ED"></path><path d="M177.642 162.921H251.157C251.68 162.926 252.198 162.833 252.683 162.649C253.167 162.465 253.608 162.193 253.979 161.848C254.351 161.504 254.646 161.093 254.847 160.641C255.048 160.189 255.152 159.705 255.152 159.215C255.152 158.725 255.048 158.24 254.847 157.788C254.646 157.336 254.351 156.926 253.979 156.582C253.608 156.237 253.167 155.965 252.683 155.781C252.198 155.596 251.68 155.504 251.157 155.509H177.642C177.119 155.504 176.601 155.596 176.116 155.781C175.632 155.965 175.191 156.237 174.82 156.582C174.448 156.926 174.153 157.336 173.952 157.788C173.751 158.24 173.647 158.725 173.647 159.215C173.647 159.705 173.751 160.189 173.952 160.641C174.153 161.093 174.448 161.504 174.82 161.848C175.191 162.193 175.632 162.465 176.116 162.649C176.601 162.833 177.119 162.926 177.642 162.921ZM251.157 156.193C251.584 156.189 252.007 156.264 252.402 156.414C252.798 156.564 253.157 156.785 253.461 157.066C253.764 157.348 254.005 157.682 254.169 158.051C254.333 158.42 254.418 158.815 254.418 159.215C254.418 159.614 254.333 160.01 254.169 160.379C254.005 160.748 253.764 161.082 253.461 161.363C253.157 161.644 252.798 161.866 252.402 162.016C252.007 162.166 251.584 162.241 251.157 162.237H177.642C177.215 162.241 176.792 162.166 176.397 162.016C176.001 161.866 175.642 161.644 175.338 161.363C175.035 161.082 174.794 160.748 174.63 160.379C174.466 160.01 174.381 159.614 174.381 159.215C174.381 158.815 174.466 158.42 174.63 158.051C174.794 157.682 175.035 157.348 175.338 157.066C175.642 156.785 176.001 156.564 176.397 156.414C176.792 156.264 177.215 156.189 177.642 156.193H251.157Z" fill="#292A2E"></path><path d="M228.504 113.278H299.801C300.967 113.278 302.093 112.88 302.969 112.16C303.844 111.439 304.41 110.445 304.561 109.362L309.277 75.4388C309.365 74.8047 309.308 74.1603 309.109 73.5486C308.91 72.9368 308.574 72.3718 308.124 71.8914C307.673 71.4109 307.118 71.026 306.497 70.7623C305.875 70.4986 305.2 70.3622 304.517 70.3623H233.22C232.054 70.3623 230.929 70.7596 230.053 71.4801C229.177 72.2006 228.611 73.1949 228.461 74.2776L223.744 108.201C223.656 108.835 223.714 109.479 223.912 110.091C224.111 110.703 224.447 111.268 224.898 111.748C225.348 112.229 225.903 112.614 226.525 112.877C227.147 113.141 227.821 113.277 228.504 113.278Z" fill="#292A2E"></path><path opacity="0.8" d="M228.504 113.278H299.801C300.967 113.278 302.093 112.88 302.969 112.16C303.844 111.439 304.41 110.445 304.561 109.362L309.277 75.4388C309.365 74.8047 309.308 74.1603 309.109 73.5486C308.91 72.9368 308.574 72.3718 308.124 71.8914C307.673 71.4109 307.118 71.026 306.497 70.7623C305.875 70.4986 305.2 70.3622 304.517 70.3623H233.22C232.054 70.3623 230.929 70.7596 230.053 71.4801C229.177 72.2006 228.611 73.1949 228.461 74.2776L223.744 108.201C223.656 108.835 223.714 109.479 223.912 110.091C224.111 110.703 224.447 111.268 224.898 111.748C225.348 112.229 225.903 112.614 226.525 112.877C227.147 113.141 227.821 113.277 228.504 113.278Z" fill="#C1D8ED"></path><path d="M228.504 113.62H299.801C301.055 113.617 302.265 113.189 303.206 112.414C304.148 111.639 304.758 110.571 304.923 109.407L309.639 75.4837C309.734 74.8014 309.672 74.1079 309.458 73.4497C309.245 72.7914 308.883 72.1835 308.398 71.6665C307.914 71.1494 307.317 70.7352 306.647 70.4515C305.978 70.1677 305.252 70.021 304.517 70.021H233.22C231.966 70.0237 230.756 70.4522 229.814 71.227C228.873 72.0019 228.263 73.0705 228.098 74.2346L223.382 108.158C223.287 108.84 223.349 109.533 223.563 110.192C223.777 110.85 224.138 111.458 224.623 111.975C225.108 112.492 225.705 112.906 226.374 113.19C227.043 113.473 227.769 113.62 228.504 113.62V113.62ZM304.517 70.7044C305.148 70.7044 305.772 70.8304 306.346 71.0741C306.921 71.3177 307.433 71.6734 307.849 72.1173C308.266 72.5612 308.576 73.0832 308.76 73.6484C308.943 74.2135 308.996 74.8089 308.915 75.3948L304.199 109.318C304.057 110.317 303.534 111.235 302.725 111.9C301.916 112.565 300.878 112.933 299.801 112.936H228.504C227.873 112.936 227.25 112.809 226.675 112.566C226.1 112.322 225.588 111.966 225.171 111.522C224.755 111.078 224.445 110.556 224.261 109.991C224.077 109.426 224.025 108.83 224.106 108.244L228.822 74.3211C228.964 73.3218 229.488 72.4045 230.296 71.7394C231.105 71.0743 232.144 70.7066 233.22 70.7044H304.517Z" fill="#292A2E"></path><path d="M224.472 113.278H295.77C296.935 113.278 298.061 112.88 298.937 112.16C299.813 111.439 300.379 110.445 300.529 109.362L305.246 75.4388C305.334 74.8048 305.276 74.1604 305.077 73.5487C304.878 72.937 304.543 72.3721 304.092 71.8916C303.642 71.4112 303.087 71.0262 302.465 70.7625C301.843 70.4988 301.168 70.3624 300.486 70.3623H229.188C228.023 70.3623 226.897 70.7596 226.021 71.4801C225.145 72.2005 224.579 73.1949 224.428 74.2776L219.712 108.201C219.624 108.835 219.682 109.479 219.88 110.091C220.079 110.703 220.415 111.268 220.866 111.748C221.316 112.229 221.871 112.614 222.493 112.877C223.115 113.141 223.79 113.277 224.472 113.278Z" fill="#C1D8ED"></path><path d="M224.472 113.62H295.769C297.023 113.617 298.233 113.189 299.175 112.414C300.117 111.639 300.727 110.571 300.891 109.407L305.607 75.4837C305.702 74.8014 305.641 74.1079 305.427 73.4497C305.213 72.7914 304.851 72.1835 304.367 71.6665C303.882 71.1494 303.285 70.7352 302.616 70.4515C301.946 70.1677 301.22 70.021 300.486 70.021H229.188C227.935 70.0236 226.725 70.4521 225.783 71.227C224.841 72.0019 224.231 73.0705 224.067 74.2346L219.35 108.158C219.256 108.84 219.317 109.533 219.531 110.192C219.745 110.85 220.107 111.458 220.591 111.975C221.076 112.492 221.673 112.906 222.342 113.19C223.011 113.474 223.738 113.62 224.472 113.62V113.62ZM300.486 70.7044C301.116 70.7044 301.74 70.8304 302.314 71.0741C302.889 71.3177 303.402 71.6734 303.818 72.1173C304.234 72.5612 304.544 73.0832 304.728 73.6483C304.912 74.2135 304.965 74.8089 304.883 75.3948L300.167 109.318C300.026 110.318 299.502 111.235 298.693 111.9C297.885 112.565 296.846 112.933 295.769 112.936H224.472C223.841 112.936 223.218 112.81 222.643 112.566C222.068 112.322 221.556 111.966 221.139 111.522C220.723 111.078 220.413 110.556 220.229 109.991C220.045 109.426 219.993 108.83 220.074 108.244L224.79 74.3211C224.932 73.3216 225.455 72.4042 226.264 71.7389C227.073 71.0736 228.112 70.7056 229.188 70.7034L300.486 70.7044Z" fill="#292A2E"></path><path d="M123.919 246.163C123.919 246.163 121.961 255.669 112.458 256.199C102.956 256.728 105.016 263.819 105.016 263.819H141.33V246.825L123.919 246.163Z" fill="#0066F5"></path><path d="M193.003 240.16C193.003 240.16 195.726 249.5 187.449 253.905C179.172 258.309 184.363 263.819 184.363 263.819L216.947 248.804L208.939 233.555L193.003 240.16Z" fill="#0066F5"></path><path d="M222.244 18.6471C222.244 18.6471 217.506 15.2975 216.332 7.58727C215.423 1.61733 221.302 5.48476 221.302 5.48476C221.302 5.48476 220.692 1.18055 224.041 1.60741C227.389 2.03427 229.263 6.55671 229.263 6.55671" fill="#0C0C0C"></path><path d="M241.346 2.11108C241.346 2.11108 257.959 3.77955 251.953 24.8655L250.483 24.9575L247.499 25.145" fill="#0C0C0C"></path><path d="M225.026 46.8867C225.099 46.8778 225.91 59.4738 241.534 58.3765C252.35 57.6179 256.206 46.869 256.454 46.869C255.288 46.6367 253.847 46.2844 253.274 46.1633C252.026 45.8919 250.896 45.271 250.033 44.3831C249.171 43.4952 248.618 42.3824 248.447 41.1928C248.131 39.4074 248.667 30.2722 248.503 28.4656L231.9 31.9369C232.132 35.7524 233.755 44.5978 228.065 46.1633C227.117 46.4223 226.097 46.6603 225.026 46.8867Z" fill="#E98862"></path><path opacity="0.52" d="M231.666 42.5483C231.926 41.7633 232.094 40.954 232.166 40.1348C232.348 38.2654 232.311 36.3829 232.056 34.521C235.431 34.0943 238.61 32.7896 241.233 30.7551C241.541 31.8216 243.236 36.4815 242.766 37.4953C241.881 39.4111 237.712 42.5483 231.666 42.5483Z" fill="#0C0C0C"></path><path d="M235.093 40.0553C241.643 39.505 249.483 35.6287 249.596 27.3004L249.698 19.7861C249.811 11.4578 245.233 4.65093 236.861 4.5514C228.49 4.45152 222.141 11.1285 222.028 19.4564L221.983 22.7831C221.988 23.9256 222.077 25.0664 222.249 26.1976C222.678 29.1905 223.344 33.7406 225.512 36.819C227.56 39.7246 230.909 40.407 235.093 40.0553Z" fill="#E98862"></path><path d="M232.054 32.4427C230.702 32.5001 229.355 32.2591 228.121 31.7391C228.096 31.729 228.073 31.7141 228.053 31.6956C228.034 31.677 228.019 31.6551 228.008 31.631C227.998 31.6068 227.993 31.5811 227.993 31.5551C227.993 31.5291 227.999 31.5034 228.01 31.4795C228.021 31.4556 228.037 31.434 228.056 31.4158C228.076 31.3976 228.1 31.3833 228.125 31.3736C228.151 31.3639 228.179 31.3591 228.206 31.3594C228.234 31.3596 228.262 31.365 228.287 31.3752C230.945 32.4373 233.36 32.2816 235.268 30.9254C235.306 30.8969 235.347 30.8703 235.388 30.8457C235.436 30.8249 235.491 30.8217 235.541 30.8367C235.591 30.8517 235.634 30.8838 235.66 30.9267C235.687 30.9696 235.695 31.0202 235.683 31.0686C235.672 31.1169 235.641 31.1594 235.598 31.1878C235.583 31.1967 235.558 31.2148 235.525 31.2398C234.522 31.9555 233.313 32.3744 232.054 32.4427Z" fill="#0C0C0C"></path><path d="M232.117 34.3189C231.873 34.3332 231.628 34.3277 231.385 34.3025C231.329 34.297 231.278 34.271 231.243 34.2302C231.208 34.1894 231.191 34.1371 231.197 34.085C231.203 34.0328 231.231 33.985 231.274 33.952C231.318 33.9191 231.374 33.9036 231.429 33.9092C232.893 34.0549 233.591 33.4269 233.62 33.3999C233.66 33.3644 233.713 33.345 233.768 33.3457C233.823 33.3464 233.876 33.3672 233.915 33.4036C233.954 33.4401 233.976 33.4893 233.977 33.5408C233.978 33.5924 233.957 33.6422 233.919 33.6797C233.415 34.0812 232.779 34.307 232.117 34.3189Z" fill="#0C0C0C"></path><path d="M224.792 24.3845C224.223 24.3845 223.761 23.952 223.761 23.4186C223.761 22.8851 224.223 22.4526 224.792 22.4526C225.362 22.4526 225.824 22.8851 225.824 23.4186C225.824 23.952 225.362 24.3845 224.792 24.3845Z" fill="#0C0C0C"></path><path d="M234.867 23.7924C234.297 23.7924 233.835 23.36 233.835 22.8265C233.835 22.2931 234.297 21.8606 234.867 21.8606C235.436 21.8606 235.898 22.2931 235.898 22.8265C235.898 23.36 235.436 23.7924 234.867 23.7924Z" fill="#0C0C0C"></path><path d="M249.042 29.8314C251.586 29.8619 253.682 27.3369 253.716 24.954C253.749 22.571 251.704 21.2326 249.16 21.2021L247.827 22.783L246.855 29.8054L249.042 29.8314Z" fill="#E98862"></path><path d="M246.512 26.0022C246.512 26.0022 245.653 14.2179 241.838 13.4904C239.297 13.0057 233.136 16.3813 227.429 15.3617C224.932 14.917 222.562 15.4948 222.321 16.5992C222.225 17.0367 220.67 10.7503 224.58 5.98095C227.693 2.18432 237.88 1.11032 242.515 2.35534C255.348 5.80377 249.685 21.7209 249.685 21.7209L249.112 25.7833L246.512 26.0022Z" fill="#0C0C0C"></path><path d="M230.518 29.6617C230.512 29.662 230.507 29.662 230.501 29.6617C229.682 29.6538 228.308 29.5553 228.313 28.9807C228.318 28.5045 229.765 23.3798 229.93 22.7969C229.948 22.7515 229.984 22.7141 230.03 22.6919C230.076 22.6696 230.129 22.6643 230.179 22.6768C230.229 22.6892 230.273 22.7187 230.301 22.7595C230.329 22.8002 230.34 22.8493 230.332 22.8972C229.689 25.1669 228.733 28.6612 228.729 28.9854C228.808 29.1223 229.655 29.2628 230.504 29.271C230.557 29.2721 230.608 29.2924 230.646 29.3277C230.684 29.363 230.706 29.4107 230.708 29.4608C230.71 29.511 230.691 29.5598 230.655 29.5971C230.619 29.6345 230.569 29.6576 230.516 29.6617H230.518Z" fill="#0C0C0C"></path><path d="M227.719 18.181C226.858 17.9589 225.948 17.9589 225.086 18.181C224.663 18.2876 224.259 18.4531 223.889 18.6722C223.522 18.8866 223.186 19.1436 222.888 19.437C222.831 19.4887 222.798 19.5594 222.796 19.6337C222.794 19.7081 222.823 19.7803 222.877 19.8348C222.931 19.8894 223.006 19.922 223.085 19.9256C223.164 19.9292 223.242 19.9036 223.302 19.8543L223.32 19.8392C223.596 19.6002 223.903 19.3946 224.233 19.2273C224.557 19.0609 224.907 18.9416 225.269 18.8733C225.982 18.7328 226.723 18.7715 227.415 18.9855L227.444 18.9951C227.559 19.0329 227.684 19.0267 227.793 18.9777C227.903 18.9288 227.987 18.8413 228.027 18.7343C228.068 18.6273 228.061 18.5096 228.009 18.4072C227.957 18.3048 227.863 18.226 227.749 18.1882L227.719 18.181Z" fill="#0C0C0C"></path><path d="M233.82 18.6657C234.476 18.3673 235.204 18.2364 235.931 18.2864C236.3 18.3089 236.663 18.3836 237.008 18.508C237.359 18.6328 237.692 18.7983 237.999 19.0006L238.018 19.0129C238.084 19.0524 238.164 19.0667 238.241 19.0527C238.317 19.0387 238.385 18.9975 238.431 18.9377C238.476 18.8779 238.495 18.8041 238.483 18.7316C238.472 18.6591 238.431 18.5935 238.37 18.5484C238.033 18.2948 237.663 18.082 237.269 17.9149C236.871 17.7444 236.447 17.6307 236.013 17.5777C235.577 17.5204 235.136 17.5194 234.7 17.5746C234.253 17.6267 233.816 17.738 233.403 17.9054C233.291 17.9507 233.204 18.0357 233.159 18.1415C233.115 18.2473 233.117 18.3654 233.165 18.4697C233.214 18.574 233.304 18.6561 233.417 18.6978C233.53 18.7395 233.656 18.7374 233.768 18.692C233.776 18.6886 233.785 18.6849 233.793 18.6808L233.82 18.6657Z" fill="#0C0C0C"></path><path d="M228.945 10.0686C227.062 9.70013 226.005 7.2968 226.584 4.70066C227.163 2.10452 229.159 0.298686 231.042 0.667207C232.925 1.03573 233.983 3.43906 233.403 6.03519C232.824 8.63133 230.828 10.4372 228.945 10.0686Z" fill="#0C0C0C"></path><path d="M213.185 237.522L185.707 156.326H235.515C245.521 156.326 249.692 148.378 249.692 139.007C249.692 129.636 239.856 121.421 229.851 121.421H162.628C156.525 121.421 149.683 124.917 146.334 129.695C142.984 134.473 143.89 141.877 146.316 147.122L190.319 247.225" fill="#013856"></path><path opacity="0.8" d="M213.185 237.522L185.707 156.326H235.515C245.521 156.326 249.692 148.378 249.692 139.007C249.692 129.636 239.856 121.421 229.851 121.421H162.628C156.525 121.421 149.683 124.917 146.334 129.695C142.984 134.473 143.89 141.877 146.316 147.122L190.319 247.225" fill="#013856"></path><path d="M143.418 254.991L189.364 156.326L249.692 156.322C263.828 155.284 270.302 148.027 270.096 138.658C269.893 129.408 264.893 120.271 255.061 120.271H173.749C166.475 120.411 160.752 127.941 158.054 134.269L119.858 248.95" fill="#013856"></path><path d="M274.211 120.385C274.211 120.385 276.89 136.75 272.643 145.848C267.341 157.207 247.466 156.323 247.466 156.323L248.586 120.272L274.211 120.385Z" fill="#013856"></path><path d="M156.325 120.062L198.94 111.791C200.716 111.447 202.37 110.688 203.75 109.586C205.129 108.483 206.19 107.073 206.833 105.485L223.594 64.1141C224.105 62.8725 224.348 61.5487 224.311 60.2187C224.273 58.8887 223.956 57.5788 223.376 56.3641C222.797 55.1494 221.966 54.054 220.934 53.1407C219.901 52.2273 218.685 51.5142 217.357 51.0421C216.029 50.5701 214.615 50.3484 213.195 50.3899C211.775 50.4314 210.379 50.7352 209.085 51.2839C207.791 51.8326 206.625 52.6154 205.655 53.5872C204.685 54.5591 203.929 55.7009 203.432 56.947L188.77 93.1347L151.948 100.281C151.948 100.281 155.586 120.206 156.325 120.062Z" fill="#0066F5"></path><path d="M205.614 74.6216C206.106 80.0371 209.594 113.823 210.069 120.493H274.183C274.551 114.477 276.205 88.1704 277.602 76.4043C278.936 65.1783 280.805 60.0696 279.269 56.5808C276.56 50.4279 267.938 47.6799 262.099 46.9398C258.534 46.4876 253.172 46.1633 253.172 46.1633C253.172 46.1633 252.717 54.7666 241.891 55.2455C227.153 55.8953 228.137 46.1633 228.064 46.1633C225.677 46.1633 212.681 47.7897 209.431 49.7735C204.841 52.5759 203.485 56.3944 203.431 59.903C203.369 63.9425 205.056 68.4783 205.614 74.6216Z" fill="#0066F5"></path><path d="M208.133 102.226H208.149C208.173 102.225 208.196 102.218 208.217 102.208C208.238 102.198 208.257 102.184 208.273 102.167C208.288 102.149 208.3 102.13 208.307 102.108C208.315 102.087 208.318 102.064 208.316 102.042L206.651 83.3138C206.65 83.2912 206.644 83.2691 206.633 83.2489C206.622 83.2286 206.607 83.2106 206.589 83.196C206.57 83.1814 206.549 83.1704 206.526 83.1638C206.503 83.1572 206.478 83.155 206.454 83.1575C206.43 83.1593 206.407 83.1656 206.386 83.1759C206.364 83.1862 206.345 83.2003 206.33 83.2174C206.314 83.2346 206.303 83.2544 206.295 83.2758C206.288 83.2972 206.285 83.3198 206.287 83.3422L207.952 102.07C207.956 102.113 207.977 102.152 208.01 102.181C208.044 102.21 208.088 102.226 208.133 102.226Z" fill="#0C0C0C"></path><path d="M197.826 116.779L183.758 76.2736C183.511 75.5618 183.03 74.9416 182.383 74.5018C181.736 74.0619 180.958 73.825 180.159 73.825H122.845C122.248 73.8249 121.659 73.9574 121.127 74.2115C120.594 74.4655 120.134 74.8341 119.783 75.2869C119.432 75.7396 119.2 76.2639 119.107 76.8166C119.013 77.3694 119.061 77.935 119.246 78.4671L133.314 118.972C133.561 119.684 134.042 120.304 134.689 120.744C135.335 121.184 136.114 121.421 136.913 121.421H194.226C194.824 121.421 195.413 121.289 195.945 121.034C196.477 120.78 196.938 120.412 197.289 119.959C197.64 119.506 197.872 118.982 197.965 118.429C198.058 117.877 198.011 117.311 197.826 116.779Z" fill="#292A2E"></path><path opacity="0.2" d="M197.826 116.779L183.758 76.2736C183.511 75.5618 183.03 74.9416 182.383 74.5018C181.736 74.0619 180.958 73.825 180.159 73.825H122.845C122.248 73.8249 121.659 73.9574 121.127 74.2115C120.594 74.4655 120.134 74.8341 119.783 75.2869C119.432 75.7396 119.2 76.2639 119.107 76.8166C119.013 77.3694 119.061 77.935 119.246 78.4671L133.314 118.972C133.561 119.684 134.042 120.304 134.689 120.744C135.335 121.184 136.114 121.421 136.913 121.421H194.226C194.824 121.421 195.413 121.289 195.945 121.034C196.477 120.78 196.938 120.412 197.289 119.959C197.64 119.506 197.872 118.982 197.965 118.429C198.058 117.877 198.011 117.311 197.826 116.779Z" fill="#C1D8ED"></path><path d="M186.35 118.137H224.716C225.672 118.137 226.447 118.863 226.447 119.758V119.8C226.447 120.695 225.672 121.421 224.716 121.421H186.35C185.394 121.421 184.619 120.695 184.619 119.8V119.758C184.619 118.863 185.394 118.137 186.35 118.137Z" fill="#292A2E"></path><path opacity="0.2" d="M186.35 118.137H224.716C225.672 118.137 226.447 118.863 226.447 119.758V119.8C226.447 120.695 225.672 121.421 224.716 121.421H186.35C185.394 121.421 184.619 120.695 184.619 119.8V119.758C184.619 118.863 185.394 118.137 186.35 118.137Z" fill="#C1D8ED"></path><path d="M158.536 105.229C155.216 105.229 152.525 102.709 152.525 99.599C152.525 96.4895 155.216 93.9688 158.536 93.9688C161.856 93.9688 164.547 96.4895 164.547 99.599C164.547 102.709 161.856 105.229 158.536 105.229Z" fill="#C1D8ED"></path><path d="M205.033 67.0715H220.273V84.5784H205.033V67.0715Z" fill="#C1D8ED"></path><path d="M220.273 81.6703C221.507 81.6703 222.714 81.3275 223.74 80.6851C224.766 80.0428 225.566 79.1298 226.039 78.0616C226.511 76.9934 226.635 75.8181 226.394 74.6841C226.153 73.5501 225.559 72.5085 224.686 71.6909C223.813 70.8734 222.701 70.3166 221.49 70.0911C220.28 69.8655 219.025 69.9813 217.884 70.4238C216.744 70.8662 215.769 71.6155 215.084 72.5768C214.398 73.5381 214.032 74.6684 214.032 75.8245C214.034 77.3744 214.692 78.8603 215.862 79.9562C217.032 81.0522 218.618 81.6686 220.273 81.6703ZM220.273 72.3734C221.002 72.3734 221.714 72.5758 222.32 72.9551C222.926 73.3344 223.398 73.8734 223.677 74.5041C223.956 75.1348 224.029 75.8288 223.887 76.4984C223.745 77.1679 223.394 77.7829 222.878 78.2656C222.363 78.7483 221.706 79.077 220.991 79.2101C220.277 79.3433 219.536 79.2749 218.862 79.0136C218.189 78.7523 217.614 78.3098 217.209 77.7422C216.804 77.1745 216.588 76.5072 216.588 75.8245C216.589 74.9095 216.977 74.0321 217.668 73.3851C218.359 72.738 219.296 72.3742 220.273 72.3734Z" fill="#C1D8ED"></path><path d="M219.394 78.4182C219.533 78.08 219.794 77.7985 220.133 77.6228C220.471 77.4471 220.864 77.3886 221.244 77.4574C221.237 77.441 221.233 77.4235 221.233 77.4058L220.722 77.1916C220.363 77.049 220.069 76.7948 219.888 76.4721C219.707 76.1495 219.65 75.7781 219.728 75.4209C219.782 75.1979 219.888 74.9888 220.038 74.8087C220.188 74.6286 220.38 74.4821 220.598 74.3796C220.816 74.2771 221.056 74.2212 221.3 74.2159C221.544 74.2107 221.786 74.2563 222.009 74.3493L223.215 74.8545C223.215 74.85 223.215 74.8456 223.217 74.8411C223.222 74.8321 223.228 74.8236 223.235 74.8158C222.938 74.6061 222.725 74.3083 222.632 73.9709C222.539 73.6336 222.57 73.2766 222.722 72.9582C223.056 72.1096 224.243 72.0419 225.028 72.3699L228.181 73.5612L227.229 72.6572C226.931 72.3625 226.764 71.9727 226.76 71.5667C226.757 71.1606 226.919 70.7686 227.212 70.4699C227.37 70.3207 227.558 70.2031 227.766 70.1243C227.973 70.0455 228.196 70.0072 228.42 70.0116C228.643 70.016 228.864 70.0631 229.068 70.15C229.272 70.2369 229.454 70.3618 229.605 70.5171L240.816 81.985L236.981 85.4437C235.791 86.518 234.285 87.2348 232.656 87.5021C231.028 87.7694 229.352 87.5752 227.842 86.9442L221.009 84.0748C220.651 83.9322 220.356 83.6781 220.175 83.3554C219.994 83.0327 219.938 82.6613 220.015 82.3041C220.093 81.9834 220.278 81.6944 220.543 81.4791C220.808 81.2637 221.14 81.1334 221.49 81.1069C221.486 81.0892 221.486 81.0709 221.49 81.0531C221.493 81.0353 221.501 81.0184 221.512 81.0034C221.522 80.9883 221.536 80.9754 221.552 80.9654C221.569 80.9555 221.587 80.9486 221.606 80.9452L220.344 80.4177C219.945 80.2593 219.624 79.9647 219.448 79.5935C219.271 79.2223 219.252 78.8022 219.394 78.4182Z" fill="#E98862"></path><path opacity="0.2" d="M225.494 75.825C225.53 75.8251 225.566 75.8134 225.593 75.7919C225.621 75.7703 225.64 75.7403 225.647 75.7071C225.654 75.6738 225.648 75.6394 225.63 75.6097C225.613 75.5801 225.585 75.5571 225.551 75.5448L223.419 74.7581C223.4 74.7512 223.38 74.7477 223.359 74.7481C223.339 74.7484 223.319 74.7525 223.3 74.7601C223.282 74.7677 223.265 74.7786 223.251 74.7923C223.236 74.806 223.225 74.8222 223.218 74.8399C223.21 74.8576 223.207 74.8765 223.207 74.8956C223.207 74.9146 223.212 74.9334 223.22 74.9509C223.228 74.9684 223.24 74.9842 223.254 74.9974C223.269 75.0106 223.286 75.021 223.305 75.028L225.438 75.8147C225.456 75.8214 225.475 75.8249 225.494 75.825Z" fill="#0C0C0C"></path><path opacity="0.2" d="M224.304 78.6493C224.34 78.6492 224.375 78.6374 224.403 78.616C224.43 78.5946 224.449 78.5648 224.456 78.5318C224.463 78.4988 224.457 78.4646 224.44 78.435C224.423 78.4055 224.395 78.3825 224.362 78.3698L221.445 77.2709C221.407 77.2585 221.366 77.2602 221.33 77.2756C221.294 77.2911 221.265 77.319 221.25 77.3536C221.235 77.3883 221.235 77.4269 221.25 77.4616C221.265 77.4963 221.293 77.5242 221.33 77.5397L224.246 78.639C224.265 78.6457 224.284 78.6492 224.304 78.6493Z" fill="#0C0C0C"></path><path opacity="0.2" d="M223.032 81.7162C223.068 81.7162 223.103 81.7043 223.131 81.6825C223.159 81.6608 223.178 81.6305 223.184 81.5971C223.191 81.5636 223.185 81.5291 223.167 81.4996C223.149 81.47 223.12 81.4473 223.086 81.4354L221.696 80.9466C221.657 80.933 221.615 80.9343 221.577 80.9501C221.54 80.966 221.511 80.9951 221.496 81.0311C221.482 81.0671 221.483 81.1071 221.5 81.1422C221.517 81.1772 221.548 81.2046 221.586 81.2182L222.977 81.707C222.995 81.7131 223.013 81.7162 223.032 81.7162Z" fill="#0C0C0C"></path><path d="M216.151 55.9358C216.218 55.9359 216.284 55.9185 216.342 55.8857C216.399 55.8529 216.446 55.8058 216.477 55.7497C217.308 54.2314 218.343 52.3413 218.226 50.3599C218.133 48.7841 217.344 47.3842 216.582 46.0321C216.09 45.2148 215.671 44.3609 215.328 43.4791C214.91 42.2623 214.805 40.9703 215.021 39.7081C215.236 38.446 215.767 37.2493 216.57 36.2156C216.6 36.1796 216.622 36.1383 216.635 36.0942C216.647 36.0501 216.65 36.004 216.644 35.9587C216.637 35.9134 216.621 35.8698 216.596 35.8305C216.571 35.7912 216.538 35.7569 216.499 35.7298C216.46 35.7026 216.415 35.6831 216.368 35.6724C216.32 35.6617 216.271 35.66 216.223 35.6674C216.175 35.6748 216.129 35.6911 216.087 35.7155C216.046 35.7399 216.01 35.7717 215.983 35.8092C215.111 36.931 214.534 38.2298 214.299 39.5999C214.064 40.9699 214.178 42.3725 214.631 43.6936C214.986 44.6118 215.422 45.5009 215.934 46.3515C216.693 47.6988 217.41 48.9712 217.494 50.3979C217.6 52.1939 216.657 53.9174 215.824 55.4378C215.796 55.4899 215.782 55.548 215.784 55.6065C215.787 55.6651 215.805 55.722 215.838 55.772C215.87 55.822 215.916 55.8633 215.971 55.892C216.025 55.9207 216.087 55.9357 216.149 55.9358H216.151Z" fill="#C1D8ED"></path><path d="M210.288 61.2744C210.369 61.2744 210.447 61.2492 210.511 61.2027C210.575 61.1563 210.621 61.0912 210.641 61.0178C210.662 60.9444 210.655 60.8668 210.623 60.7971C210.591 60.7275 210.535 60.6698 210.465 60.6331C209.111 59.9339 208.96 57.9881 209.595 56.5108C209.911 55.8318 210.28 55.1758 210.699 54.5482C211.26 53.735 211.716 52.8624 212.058 51.9487C212.406 50.8347 212.428 49.6532 212.121 48.5286C211.814 47.4039 211.189 46.3775 210.312 45.5574C210.242 45.4951 210.149 45.4612 210.052 45.463C209.956 45.4647 209.865 45.502 209.798 45.5667C209.73 45.6314 209.693 45.7183 209.694 45.8085C209.695 45.8986 209.734 45.9848 209.803 46.0482C210.585 46.7796 211.142 47.6949 211.416 48.6978C211.69 49.7007 211.671 50.7542 211.36 51.7476C211.035 52.6096 210.603 53.4326 210.071 54.1993C209.632 54.8561 209.247 55.5432 208.918 56.2546C208.174 57.9843 208.34 60.3163 210.112 61.2316C210.166 61.2595 210.226 61.2742 210.288 61.2744Z" fill="#C1D8ED"></path><path d="M227.962 91.0891L281.732 111.933C283.671 112.676 285.799 112.875 287.856 112.504C289.913 112.133 291.81 111.208 293.315 109.844C294.821 108.48 295.869 106.734 296.333 104.821C296.796 102.907 296.655 100.909 295.925 99.0692L279.888 58.0403C277.815 52.8113 271.974 49.8044 266.391 51.7468C263.71 52.6795 261.535 54.5715 260.343 57.0065C259.151 59.4415 259.041 62.2202 260.037 64.7313L267.352 84.1505L235.838 72.7706" fill="#0066F5"></path><path d="M228.093 91.2752C228.121 91.275 228.149 91.2669 228.173 91.252C228.197 91.237 228.215 91.2158 228.226 91.1911L236.05 72.9946L267.458 84.3483C267.484 84.3577 267.513 84.3599 267.54 84.3545C267.567 84.3491 267.592 84.3363 267.612 84.3178C267.632 84.2993 267.645 84.2758 267.651 84.2503C267.656 84.2247 267.654 84.1981 267.644 84.1738L262.787 72.498C262.773 72.4648 262.746 72.438 262.711 72.4237C262.676 72.4094 262.637 72.4086 262.601 72.4216C262.566 72.4345 262.537 72.4602 262.522 72.4929C262.506 72.5255 262.506 72.5626 262.519 72.5958L267.258 83.9867L236.021 72.695C235.986 72.6823 235.947 72.6831 235.912 72.6971C235.878 72.7112 235.85 72.7375 235.836 72.7703L227.96 91.0902C227.946 91.1234 227.946 91.1603 227.961 91.1931C227.976 91.2258 228.004 91.2519 228.039 91.2657C228.056 91.272 228.074 91.2752 228.093 91.2752Z" fill="#0C0C0C"></path><path d="M277.322 87.9611C277.356 87.9614 277.389 87.9506 277.415 87.9306C277.441 87.9106 277.458 87.8827 277.465 87.8517C277.471 87.8208 277.465 87.7887 277.449 87.7612C277.433 87.7337 277.406 87.7124 277.375 87.7012L267.538 84.0756C267.52 84.0688 267.501 84.0653 267.482 84.0654C267.463 84.0655 267.444 84.0692 267.427 84.0762C267.409 84.0832 267.393 84.0934 267.38 84.1062C267.367 84.119 267.356 84.1341 267.349 84.1508C267.342 84.1674 267.339 84.1851 267.339 84.203C267.34 84.2209 267.344 84.2385 267.352 84.2548C267.359 84.2711 267.37 84.2859 267.384 84.2981C267.398 84.3104 267.415 84.32 267.432 84.3263L277.27 87.9519C277.287 87.958 277.304 87.9611 277.322 87.9611Z" fill="#0C0C0C"></path><path d="M275.031 109.499C275.065 109.499 275.097 109.488 275.123 109.469C275.149 109.449 275.166 109.421 275.173 109.391C275.179 109.36 275.174 109.328 275.158 109.301C275.143 109.273 275.117 109.252 275.086 109.24L228.146 91.0163C228.129 91.0095 228.11 91.0061 228.091 91.0061C228.072 91.0061 228.054 91.0096 228.036 91.0164C228.019 91.0232 228.003 91.0331 227.99 91.0456C227.976 91.0581 227.966 91.073 227.959 91.0893C227.951 91.1056 227.948 91.1231 227.948 91.1408C227.948 91.1585 227.952 91.1759 227.959 91.1922C227.966 91.2086 227.977 91.2234 227.99 91.2358C228.003 91.2483 228.019 91.2582 228.037 91.2649L274.977 109.489C274.994 109.496 275.013 109.499 275.031 109.499Z" fill="#0C0C0C"></path><path d="M36.721 219.178C36.8179 219.178 36.9107 219.142 36.9792 219.077C37.4937 218.595 38.3322 209.754 40.5911 183.429C41.5157 172.657 42.3888 162.483 43.0256 156.3C43.0713 155.859 43.2538 155.807 43.3141 155.79C44.1861 155.544 46.8387 157.503 48.3194 159.218C48.3803 159.289 48.4686 159.334 48.5649 159.343C48.6612 159.353 48.7577 159.326 48.833 159.269C48.9084 159.212 48.9564 159.13 48.9667 159.039C48.9769 158.949 48.9485 158.859 48.8876 158.788C47.9082 157.654 44.7167 154.68 43.1041 155.135C42.7788 155.227 42.3738 155.491 42.2986 156.234C41.661 162.423 40.7879 172.6 39.8633 183.374C38.4906 199.371 36.9354 217.494 36.4245 218.636C36.3853 218.687 36.3619 218.747 36.3568 218.81C36.3518 218.873 36.3653 218.936 36.396 218.992C36.4267 219.048 36.4732 219.095 36.5306 219.127C36.5879 219.16 36.6538 219.178 36.721 219.178Z" fill="#494949"></path><path d="M43.9638 167.646C37.9043 163.096 35.8959 156.015 39.478 151.829C43.06 147.644 50.876 147.939 56.9355 152.488C62.9949 157.038 65.0033 164.119 61.4213 168.305C57.8392 172.49 50.0232 172.195 43.9638 167.646Z" fill="#0CBC8B"></path><path opacity="0.2" d="M43.9638 167.646C37.9043 163.096 35.8959 156.015 39.478 151.829C43.06 147.644 50.876 147.939 56.9355 152.488C62.9949 157.038 65.0033 164.119 61.4213 168.305C57.8392 172.49 50.0232 172.195 43.9638 167.646Z" fill="#C1D8ED"></path><path d="M59.7227 169.37C59.7574 169.37 59.7914 169.36 59.8207 169.343C59.8499 169.326 59.8733 169.301 59.888 169.271C59.9027 169.242 59.9082 169.209 59.9038 169.177C59.8993 169.145 59.8852 169.114 59.863 169.089L42.594 149.583C42.5788 149.565 42.56 149.551 42.5387 149.54C42.5174 149.529 42.494 149.522 42.4699 149.52C42.4458 149.518 42.4214 149.52 42.3982 149.526C42.375 149.533 42.3534 149.544 42.3348 149.559C42.3161 149.573 42.3008 149.591 42.2896 149.611C42.2784 149.631 42.2715 149.653 42.2695 149.676C42.2675 149.698 42.2703 149.721 42.2778 149.743C42.2853 149.764 42.2973 149.784 42.3132 149.802L59.5822 169.308C59.5993 169.327 59.6208 169.343 59.6451 169.353C59.6694 169.364 59.6959 169.37 59.7227 169.37Z" fill="#C1D8ED"></path><path d="M32.9544 214.996C33.0127 214.996 33.0701 214.983 33.122 214.958C33.1738 214.933 33.2185 214.897 33.2522 214.852C33.286 214.808 33.3079 214.756 33.3161 214.702C33.3244 214.648 33.3186 214.593 33.2995 214.542L26.8127 197.068C26.6217 196.554 26.2962 196.094 25.8661 195.729C25.436 195.364 24.9149 195.106 24.3506 194.978C23.7864 194.851 23.197 194.858 22.6364 194.999C22.0758 195.14 21.562 195.411 21.142 195.786L17.7128 198.855C17.6428 198.917 17.6022 199.003 17.6 199.094C17.5978 199.185 17.6342 199.273 17.7011 199.338C17.768 199.404 17.86 199.442 17.9568 199.444C18.0537 199.446 18.1474 199.412 18.2174 199.349L21.6467 196.281C21.9782 195.985 22.3838 195.771 22.8263 195.66C23.2687 195.548 23.7339 195.543 24.1793 195.643C24.6247 195.744 25.036 195.948 25.3755 196.236C25.7151 196.524 25.972 196.887 26.1229 197.293L32.6097 214.766C32.6345 214.833 32.6811 214.891 32.7429 214.933C32.8046 214.974 32.8786 214.996 32.9544 214.996Z" fill="#494949"></path><path d="M8.13102 208.529C3.64038 205.2 3.90726 197.877 8.72709 192.173C13.5469 186.47 21.0946 184.545 25.5852 187.875C30.0758 191.204 29.809 198.527 24.9891 204.23C20.1693 209.934 12.6217 211.858 8.13102 208.529Z" fill="#0CBC8B"></path><path d="M39.6679 218.063C39.75 218.063 39.8297 218.037 39.8941 217.99C39.9585 217.942 40.0038 217.875 40.0229 217.801L50.9084 175.168C50.9829 174.877 51.1414 174.611 51.3666 174.4C51.5918 174.188 51.875 174.039 52.185 173.968C52.495 173.897 52.8198 173.908 53.1237 173.999C53.4276 174.09 53.6988 174.258 53.9075 174.484L57.263 178.116C57.2944 178.15 57.3326 178.178 57.3755 178.198C57.4184 178.218 57.4651 178.23 57.5129 178.233C57.5608 178.236 57.6088 178.231 57.6544 178.217C57.6999 178.202 57.742 178.18 57.7783 178.151C57.8145 178.121 57.8443 178.085 57.8658 178.045C57.8873 178.005 57.9001 177.961 57.9036 177.916C57.9071 177.872 57.9011 177.827 57.886 177.784C57.8708 177.741 57.8469 177.702 57.8155 177.668L54.4597 174.036C54.1628 173.715 53.7773 173.477 53.3456 173.348C52.9138 173.219 52.4525 173.204 52.0123 173.305C51.572 173.406 51.1699 173.618 50.8502 173.919C50.5304 174.22 50.3053 174.597 50.1996 175.01L39.3141 217.643C39.2916 217.731 39.3074 217.824 39.3581 217.901C39.4088 217.979 39.4901 218.034 39.5843 218.055C39.6117 218.061 39.6398 218.064 39.6679 218.063Z" fill="#494949"></path><path d="M43.6829 187.586C42.3596 180.419 45.8617 173.867 51.5051 172.953C57.1485 172.039 62.7962 177.108 64.1195 184.276C65.4428 191.444 61.9406 197.995 56.2972 198.91C50.6538 199.824 45.0062 194.754 43.6829 187.586Z" fill="#0CBC8B"></path><path d="M36.7203 219.178C36.7354 219.178 36.7506 219.177 36.7656 219.175C36.8617 219.164 36.9492 219.118 37.0089 219.046C37.0685 218.975 37.0954 218.884 37.0836 218.794L30.132 165.929C30.0565 165.353 29.8048 164.81 29.4073 164.364C29.0098 163.919 28.4834 163.591 27.8914 163.419C27.2994 163.247 26.6671 163.24 26.0705 163.397C25.4739 163.554 24.9384 163.869 24.5286 164.304L16.5833 172.733C16.5192 172.801 16.4866 172.89 16.4926 172.981C16.4986 173.071 16.5428 173.156 16.6154 173.216C16.6881 173.276 16.7832 173.307 16.8799 173.301C16.9766 173.295 17.067 173.254 17.1311 173.186L25.0763 164.757C25.3932 164.42 25.8072 164.177 26.2684 164.055C26.7297 163.934 27.2186 163.94 27.6761 164.073C28.1337 164.206 28.5406 164.46 28.8477 164.804C29.1548 165.149 29.3491 165.569 29.4072 166.014L36.3599 218.877C36.3707 218.96 36.4133 219.036 36.4796 219.091C36.546 219.147 36.6315 219.177 36.7203 219.178Z" fill="#494949"></path><path d="M8.43595 177.417C5.66383 172.723 8.92546 166.063 15.721 162.542C22.5166 159.021 30.2727 159.972 33.0448 164.666C35.8169 169.361 32.5553 176.02 25.7598 179.541C18.9642 183.062 11.2081 182.111 8.43595 177.417Z" fill="#0CBC8B"></path><path opacity="0.2" d="M8.13102 208.529C3.64038 205.2 3.90726 197.877 8.72709 192.173C13.5469 186.47 21.0946 184.545 25.5852 187.875C30.0758 191.204 29.809 198.527 24.9891 204.23C20.1693 209.934 12.6217 211.858 8.13102 208.529Z" fill="#C1D8ED"></path><path opacity="0.5" d="M43.6829 187.586C42.3596 180.419 45.8617 173.867 51.5051 172.953C57.1485 172.039 62.7962 177.108 64.1195 184.276C65.4428 191.444 61.9406 197.995 56.2972 198.91C50.6538 199.824 45.0062 194.754 43.6829 187.586Z" fill="#C1D8ED"></path><path opacity="0.5" d="M8.43595 177.417C5.66383 172.723 8.92546 166.063 15.721 162.542C22.5166 159.021 30.2727 159.972 33.0448 164.666C35.8169 169.361 32.5553 176.02 25.7598 179.541C18.9642 183.062 11.2081 182.111 8.43595 177.417Z" fill="#C1D8ED"></path><path d="M27.83 264.033H45.6121L48.5586 210.742H24.8831L27.83 264.033Z" fill="#292A2E"></path><path opacity="0.3" d="M27.83 264.033H45.6121L48.5586 210.742H24.8831L27.83 264.033Z" fill="#C1D8ED"></path><path d="M8.13086 208.698C8.15844 208.698 8.18568 208.692 8.21054 208.681C8.23539 208.67 8.25721 208.654 8.27437 208.633L25.7292 187.979C25.7593 187.943 25.7731 187.898 25.7675 187.853C25.7619 187.808 25.7374 187.767 25.6995 187.738C25.6615 187.71 25.6131 187.697 25.565 187.703C25.5169 187.708 25.473 187.731 25.4429 187.766L7.98808 208.421C7.96673 208.446 7.95339 208.476 7.94959 208.508C7.94579 208.54 7.95167 208.572 7.96657 208.601C7.98148 208.63 8.0048 208.655 8.03386 208.672C8.06292 208.689 8.09653 208.698 8.13086 208.698Z" fill="#C1D8ED"></path><path d="M9.59661 179.072C9.63539 179.071 9.67304 179.059 9.70397 179.038L32.04 163.762C32.0594 163.749 32.0758 163.732 32.0883 163.713C32.1007 163.694 32.1091 163.673 32.1128 163.651C32.1165 163.628 32.1154 163.606 32.1098 163.584C32.1041 163.562 32.0939 163.541 32.0798 163.523C32.0656 163.505 32.0478 163.49 32.0274 163.478C32.0069 163.466 31.9841 163.459 31.9604 163.455C31.9367 163.452 31.9125 163.453 31.8892 163.458C31.8659 163.463 31.8439 163.473 31.8246 163.486L9.48889 178.763C9.45836 178.784 9.43578 178.814 9.4243 178.848C9.41283 178.882 9.41304 178.919 9.42493 178.953C9.43682 178.987 9.45977 179.016 9.49056 179.037C9.52136 179.058 9.55844 179.07 9.59661 179.07V179.072Z" fill="#C1D8ED"></path><path d="M57.2049 198.687C57.2208 198.687 57.2367 198.685 57.2521 198.681C57.2988 198.669 57.3387 198.641 57.363 198.602C57.3872 198.562 57.3938 198.516 57.3813 198.472L50.2708 173.519C50.265 173.497 50.2545 173.476 50.24 173.458C50.2255 173.44 50.2073 173.425 50.1864 173.413C50.1655 173.402 50.1424 173.394 50.1184 173.391C50.0944 173.388 50.07 173.389 50.0466 173.395C50.0231 173.401 50.0012 173.411 49.982 173.425C49.9629 173.439 49.9468 173.456 49.9349 173.476C49.9229 173.496 49.9153 173.518 49.9124 173.54C49.9095 173.563 49.9114 173.585 49.9181 173.607L57.0282 198.56C57.0386 198.596 57.0616 198.629 57.0935 198.652C57.1255 198.675 57.1647 198.687 57.2049 198.687Z" fill="#C1D8ED"></path></svg>