<svg xmlns="http://www.w3.org/2000/svg" width="244" height="328" viewBox="0 0 244 328" fill="none"><path d="M141.632 141.833V113.784H7.56134V141.833C7.56278 156.5 12.3744 170.762 21.2589 182.433C30.1433 194.105 42.6104 202.541 56.7494 206.45C58.8248 207.032 60.6528 208.277 61.9549 209.995C63.2569 211.712 63.9617 213.809 63.9617 215.964C63.9617 218.119 63.2569 220.215 61.9549 221.933C60.6528 223.65 58.8248 224.895 56.7494 225.478C42.61 229.387 30.1426 237.823 21.2581 249.495C12.3736 261.167 7.56218 275.429 7.56134 290.097V318.147H141.632V290.097C141.631 275.43 136.819 261.168 127.934 249.497C119.05 237.825 106.583 229.389 92.4441 225.48C90.3684 224.898 88.5401 223.653 87.2378 221.935C85.9355 220.218 85.2307 218.121 85.2307 215.966C85.2307 213.811 85.9355 211.714 87.2378 209.997C88.5401 208.279 90.3684 207.034 92.4441 206.452C106.583 202.543 119.05 194.107 127.935 182.435C136.819 170.764 141.631 156.502 141.632 141.835" fill="#0066F5"></path><path opacity="0.8" d="M141.632 141.833V113.784H7.56134V141.833C7.56278 156.5 12.3744 170.762 21.2589 182.433C30.1433 194.105 42.6104 202.541 56.7494 206.45C58.8248 207.032 60.6528 208.277 61.9549 209.995C63.2569 211.712 63.9617 213.809 63.9617 215.964C63.9617 218.119 63.2569 220.215 61.9549 221.933C60.6528 223.65 58.8248 224.895 56.7494 225.478C42.61 229.387 30.1426 237.823 21.2581 249.495C12.3736 261.167 7.56218 275.429 7.56134 290.097V318.147H141.632V290.097C141.631 275.43 136.819 261.168 127.934 249.497C119.05 237.825 106.583 229.389 92.4441 225.48C90.3684 224.898 88.5401 223.653 87.2378 221.935C85.9355 220.218 85.2307 218.121 85.2307 215.966C85.2307 213.811 85.9355 211.714 87.2378 209.997C88.5401 208.279 90.3684 207.034 92.4441 206.452C106.583 202.543 119.05 194.107 127.935 182.435C136.819 170.764 141.631 156.502 141.632 141.835" fill="white"></path><path d="M142.056 318.57H7.13788V290.097C7.16101 275.342 12.0115 261 20.9491 249.259C29.8867 237.518 42.4207 229.023 56.6385 225.071C58.6248 224.513 60.3743 223.321 61.6204 221.678C62.8665 220.034 63.541 218.027 63.541 215.965C63.541 213.902 62.8665 211.896 61.6204 210.252C60.3743 208.608 58.6248 207.416 56.6385 206.859C42.4208 202.906 29.887 194.411 20.9494 182.67C12.0118 170.929 7.16129 156.587 7.13788 141.832V113.36H142.056V141.833C142.032 156.587 137.182 170.929 128.245 182.67C119.308 194.411 106.774 202.906 92.5567 206.859C90.5705 207.416 88.821 208.608 87.5748 210.252C86.3287 211.896 85.6542 213.902 85.6542 215.965C85.6542 218.027 86.3287 220.034 87.5748 221.678C88.821 223.321 90.5705 224.513 92.5567 225.071C106.774 229.024 119.308 237.519 128.245 249.26C137.182 261.001 142.032 275.343 142.056 290.097V318.57ZM7.98659 317.723H141.209V290.097C141.186 275.528 136.396 261.366 127.571 249.773C118.747 238.179 106.371 229.791 92.3319 225.887C90.1666 225.28 88.2592 223.982 86.9006 222.191C85.5419 220.4 84.8064 218.213 84.8064 215.965C84.8064 213.716 85.5419 211.53 86.9006 209.738C88.2592 207.947 90.1666 206.649 92.3319 206.042C106.371 202.139 118.747 193.75 127.572 182.157C136.396 170.564 141.186 156.402 141.209 141.833V114.207H7.9849V141.832C8.008 156.402 12.7976 170.564 21.6228 182.157C30.4481 193.75 42.8244 202.139 56.8634 206.042C59.0284 206.649 60.9355 207.947 62.2939 209.739C63.6524 211.53 64.3876 213.717 64.3876 215.965C64.3876 218.213 63.6524 220.399 62.2939 222.191C60.9355 223.982 59.0284 225.28 56.8634 225.887C42.8243 229.79 30.4478 238.179 21.6226 249.772C12.7973 261.366 8.00779 275.528 7.9849 290.097L7.98659 317.723Z" fill="#013856"></path><path d="M149.421 108.678C149.421 110.012 148.899 111.293 147.966 112.247C147.033 113.201 145.763 113.752 144.429 113.781C144.39 113.784 144.354 113.784 144.314 113.784H5.1067C5.06732 113.784 5.03089 113.784 4.99193 113.781C3.64791 113.751 2.36994 113.192 1.43541 112.226C0.500884 111.26 -0.0147875 109.964 0.000322952 108.62C0.0154334 107.276 0.560103 105.992 1.51612 105.047C2.47213 104.102 3.76234 103.572 5.1067 103.572H144.313C144.983 103.572 145.647 103.704 146.267 103.96C146.887 104.217 147.45 104.593 147.924 105.067C148.399 105.541 148.775 106.104 149.032 106.724C149.289 107.343 149.421 108.007 149.421 108.678Z" fill="#013856"></path><path d="M76.9656 271.094V210.47C76.914 208.167 77.6199 205.91 78.975 204.047C80.3302 202.184 82.2596 200.817 84.4668 200.157C108.189 193.63 130.259 172.353 131.343 147.914C131.401 146.603 130.249 145.74 128.937 145.74H20.2548C18.9419 145.74 17.7912 146.603 17.8488 147.914C18.9334 172.353 41.0029 193.63 64.7254 200.157C68.0825 201.085 72.2283 205.199 72.2283 210.622V271.098C72.2283 275.46 70.5855 279.163 67.5015 282.247C64.9549 284.793 26.607 318.146 26.607 318.146H122.586C122.586 318.146 83.8841 284.413 81.753 282.281C78.6686 279.199 76.9656 275.455 76.9656 271.094Z" fill="#FAFAFA"></path><path d="M149.457 321.917C149.458 323.252 148.935 324.533 148.002 325.487C147.069 326.441 145.799 326.991 144.465 327.02C144.426 327.023 144.39 327.023 144.351 327.023H5.14314C5.10418 327.023 5.06776 327.023 5.0288 327.02C3.68481 326.99 2.40687 326.432 1.47235 325.465C0.53783 324.499 0.0221315 323.203 0.0371858 321.859C0.0522401 320.515 0.596832 319.231 1.55276 318.286C2.50869 317.341 3.79882 316.811 5.14314 316.812H144.351C145.705 316.812 147.004 317.35 147.961 318.307C148.919 319.265 149.457 320.563 149.457 321.917Z" fill="#013856"></path><path d="M184.013 326.714C216.882 326.714 243.527 300.073 243.527 267.209C243.527 234.346 216.882 207.705 184.013 207.705C151.144 207.705 124.498 234.346 124.498 267.209C124.498 300.073 151.144 326.714 184.013 326.714Z" fill="white"></path><path d="M201.374 324.442C169.81 334.011 136.344 316.126 126.771 284.567C117.198 253.009 135.088 219.548 166.651 209.978C198.215 200.409 231.683 218.293 241.254 249.851C250.825 281.409 232.937 314.87 201.374 324.442ZM166.827 210.555C135.582 220.029 117.873 253.153 127.349 284.392C136.825 315.631 169.954 333.338 201.199 323.864C232.444 314.389 250.153 281.265 240.677 250.026C231.201 218.787 198.072 201.08 166.827 210.555Z" fill="#013856"></path><path opacity="0.45" d="M184.013 319.598C212.951 319.598 236.41 296.143 236.41 267.209C236.41 238.276 212.951 214.82 184.013 214.82C155.075 214.82 131.615 238.276 131.615 267.209C131.615 296.143 155.075 319.598 184.013 319.598Z" fill="#0066F5"></path><path d="M184.013 270.36C185.753 270.36 187.163 268.949 187.163 267.21C187.163 265.47 185.753 264.06 184.013 264.06C182.273 264.06 180.862 265.47 180.862 267.21C180.862 268.949 182.273 270.36 184.013 270.36Z" fill="#013856"></path><path d="M222.852 288.215C222.814 288.226 222.774 288.23 222.734 288.226C222.695 288.222 222.657 288.211 222.622 288.192L183.871 267.476C183.822 267.45 183.782 267.412 183.754 267.365C183.726 267.318 183.711 267.264 183.711 267.21L183.698 236.665C183.698 236.585 183.73 236.508 183.786 236.452C183.843 236.395 183.92 236.363 184 236.363C184.08 236.363 184.157 236.395 184.213 236.452C184.27 236.508 184.302 236.585 184.302 236.665L184.315 267.029L222.906 287.66C222.959 287.688 223.002 287.731 223.03 287.784C223.058 287.837 223.07 287.896 223.064 287.956C223.059 288.015 223.035 288.072 222.997 288.118C222.959 288.164 222.909 288.198 222.852 288.215V288.215Z" fill="#013856"></path><path d="M82.4597 181.793C82.4597 181.793 83.6964 188.203 89.6992 188.561C95.702 188.918 94.4002 193.7 94.4002 193.7H71.4604V182.24L82.4597 181.793Z" fill="#0066F5"></path><path d="M69.3716 162.511C69.3716 162.511 67.6513 168.809 72.8799 171.778C78.1086 174.748 74.8281 178.464 74.8281 178.464L54.2455 168.34L59.3044 158.058L69.3716 162.511Z" fill="#0066F5"></path><path d="M71.5493 166.675L87.0591 108.164C88.2364 101.7 86.4661 98.8982 83.7354 96.1764C78.9404 91.3945 59.0719 81.2166 59.0719 81.2166L35.2359 81.1519C28.9155 81.1519 22.7 87.3832 22.7 93.7022C22.7 100.021 29.1255 105.38 35.4477 105.38L64.8003 108.311L56.8438 161.886L71.5493 166.675Z" fill="#013856"></path><path d="M56.8438 161.884L59.9761 140.792L75.8449 150.471L71.5493 166.675L56.8438 161.884Z" fill="#013856"></path><path d="M53.2465 93.0571C53.2465 93.0571 63.2667 95.2899 73.1904 105.212C79.2072 111.228 78.7138 122.114 77.8113 143.052L67.955 128.497L57.1445 109.003L53.2465 93.0571Z" fill="#013856"></path><path d="M18.553 81.1446L34.7404 81.0684L34.7467 81.2801H39.6484C39.6484 81.2801 51.926 92.5766 61.8115 99.6951C69.0019 104.872 73.3882 109.809 73.7676 115.188C74.693 128.303 85.1283 184.234 85.1283 184.234L69.4233 186.612L55.6419 119.77C55.6419 119.77 34.0907 109.836 29.106 106.379C24.4123 103.125 21.0966 101.866 19.5436 98.3138C16.8607 92.1798 18.553 81.1446 18.553 81.1446Z" fill="#013856"></path><path d="M36.7135 85.2218L62.9741 85.5695L48.2431 94.3665L35.9838 88.0377C35.6881 87.8792 35.4543 87.626 35.3198 87.3187C35.1853 87.0114 35.1579 86.6678 35.242 86.3431C35.3262 86.0184 35.517 85.7313 35.7838 85.528C36.0506 85.3247 36.3781 85.2169 36.7135 85.2218Z" fill="#013856"></path><path opacity="0.2" d="M36.7135 85.2218L62.9741 85.5695L48.2431 94.3665L35.9838 88.0377C35.6881 87.8792 35.4543 87.626 35.3198 87.3187C35.1853 87.0114 35.1579 86.6678 35.242 86.3431C35.3262 86.0184 35.517 85.7313 35.7838 85.528C36.0506 85.3247 36.3781 85.2169 36.7135 85.2218Z" fill="white"></path><path d="M62.8237 38.1182L70.2508 62.1814L85.1283 81.6571L76.4374 91.6317L58.7377 71.8799C57.9221 71.2354 57.2843 70.3936 56.8844 69.4341L56.6083 68.7672L46.3861 44.0357L62.8237 38.1182Z" fill="#0066F5"></path><path d="M51.3814 12.5742C51.3814 12.5742 54.3743 10.3155 55.1159 5.11654C55.6901 1.0909 51.9764 3.69886 51.9764 3.69886C51.9764 3.69886 52.3614 0.796605 50.2472 1.08454C48.133 1.37248 46.9476 4.42168 46.9476 4.42168" fill="#013856"></path><path d="M39.3143 1.42432C39.3143 1.42432 28.8197 2.5494 32.6135 16.7677L33.5423 16.8299L35.4273 16.957" fill="#013856"></path><path d="M49.6238 31.6166C49.5776 31.6107 49.0656 40.1053 39.1957 39.3656C32.3628 38.8537 29.9268 31.6056 29.7701 31.6056C30.507 31.449 31.4171 31.2114 31.7792 31.1297C32.5678 30.9467 33.2819 30.5281 33.8266 29.9294C34.3713 29.3307 34.7208 28.5803 34.8285 27.7782C35.0284 26.5743 34.6892 20.4145 34.7938 19.1963L45.282 21.5366C45.1355 24.1095 44.1097 30.074 47.7049 31.1297C48.3029 31.3037 48.947 31.4642 49.6238 31.6166Z" fill="#E98862"></path><path opacity="0.52" d="M45.4281 28.6917C45.2639 28.1622 45.1581 27.6164 45.1126 27.064C44.9972 25.8034 45.0202 24.534 45.1812 23.2784C43.0494 22.9903 41.0411 22.1101 39.3846 20.7378C39.1898 21.4576 38.1188 24.5991 38.4152 25.2826C38.9768 26.5762 41.6106 28.6917 45.4281 28.6917Z" fill="#013856"></path><path d="M43.2644 27.0105C39.1263 26.6396 34.1742 24.0257 34.1026 18.41L34.0382 13.3427C33.9667 7.72703 36.8588 3.13779 42.1472 3.06961C47.4355 3.00144 51.4466 7.50472 51.5177 13.1217L51.5465 15.3659C51.5422 16.1364 51.4856 16.9057 51.3771 17.6686C51.1057 19.6863 50.6855 22.7549 49.3155 24.8302C48.0234 26.7878 45.9079 27.2476 43.2644 27.0105Z" fill="#E98862"></path><path opacity="0.52" d="M45.1842 21.8772C46.038 21.916 46.889 21.7534 47.6685 21.4026C47.6996 21.3878 47.7238 21.3615 47.736 21.3293C47.7482 21.2971 47.7474 21.2614 47.7339 21.2298C47.7204 21.1981 47.6951 21.1729 47.6634 21.1594C47.6317 21.1459 47.5961 21.1452 47.5639 21.1574C45.8842 21.8734 44.3592 21.7684 43.1539 20.8542C43.1296 20.835 43.1042 20.817 43.078 20.8004C43.0473 20.7828 43.0108 20.7781 42.9767 20.7874C42.9425 20.7966 42.9134 20.8191 42.8957 20.8498C42.8781 20.8805 42.8734 20.9169 42.8826 20.9511C42.8919 20.9853 42.9143 21.0144 42.9451 21.0321C42.9548 21.038 42.9705 21.0503 42.9925 21.0668C43.626 21.5491 44.3892 21.8313 45.1842 21.8772Z" fill="#013856"></path><path opacity="0.52" d="M45.1443 23.1425C45.2985 23.1519 45.4532 23.1482 45.6068 23.1315C45.642 23.1278 45.6743 23.1102 45.6966 23.0827C45.7189 23.0552 45.7293 23.02 45.7256 22.9848C45.7219 22.9496 45.7044 22.9173 45.6768 22.895C45.6493 22.8727 45.6141 22.8623 45.5789 22.866C45.337 22.9105 45.0884 22.9029 44.8498 22.8436C44.6111 22.7844 44.3878 22.675 44.1948 22.5226C44.1698 22.4975 44.1359 22.4834 44.1005 22.4834C44.0652 22.4834 44.0312 22.4974 44.0062 22.5224C43.9811 22.5473 43.967 22.5813 43.967 22.6166C43.9669 22.652 43.981 22.686 44.0059 22.711C44.3241 22.9821 44.7264 23.1345 45.1443 23.1425Z" fill="#013856"></path><path d="M49.7716 16.4431C49.4119 16.4431 49.1203 16.1516 49.1203 15.7919C49.1203 15.4322 49.4119 15.1406 49.7716 15.1406C50.1314 15.1406 50.423 15.4322 50.423 15.7919C50.423 16.1516 50.1314 16.4431 49.7716 16.4431Z" fill="#013856"></path><path d="M43.4071 16.0442C43.0474 16.0442 42.7557 15.7526 42.7557 15.3929C42.7557 15.0333 43.0474 14.7417 43.4071 14.7417C43.7668 14.7417 44.0584 15.0333 44.0584 15.3929C44.0584 15.7526 43.7668 16.0442 43.4071 16.0442Z" fill="#013856"></path><path d="M34.4528 20.1163C32.8456 20.137 31.5209 18.4344 31.5006 16.8274C31.4802 15.2205 32.7711 14.3181 34.3804 14.2974L35.2215 15.3657L35.8356 20.101L34.4528 20.1163Z" fill="#E98862"></path><path d="M36.0516 17.5344C36.0516 17.5344 36.5946 9.58809 39.0043 9.09733C40.6094 8.77043 44.5015 11.0452 48.1068 10.3592C49.684 10.0585 51.1815 10.4489 51.3335 11.1938C51.3941 11.4902 52.3766 7.25028 49.9067 4.0334C47.9404 1.47244 41.5047 0.749202 38.577 1.58931C30.4702 3.91442 34.0476 14.6457 34.0476 14.6457L34.4088 17.3853L36.0516 17.5344Z" fill="#013856"></path><g opacity="0.52"><path d="M46.1557 20.0018H46.1659C46.6838 19.9967 47.552 19.9303 47.5482 19.5428C47.5448 19.2218 46.6313 15.7657 46.5271 15.3728C46.5156 15.3421 46.4931 15.3168 46.4639 15.3018C46.4348 15.2868 46.4011 15.2831 46.3694 15.2916C46.3377 15.3 46.3103 15.3199 46.2925 15.3475C46.2747 15.375 46.2677 15.4082 46.273 15.4405C46.6792 16.9713 47.2835 19.3273 47.286 19.5454C46.9334 19.6995 46.5485 19.7656 46.1646 19.738C46.1297 19.737 46.0958 19.7499 46.0703 19.7739C46.0449 19.7979 46.0301 19.831 46.0291 19.8659C46.0281 19.9008 46.041 19.9347 46.065 19.9601C46.0889 19.9855 46.122 20.0004 46.157 20.0014L46.1557 20.0018Z" fill="#013856"></path></g><path d="M47.9226 12.2602C48.4669 12.1105 49.0414 12.1105 49.5857 12.2602C49.8531 12.3321 50.1082 12.4437 50.3425 12.5913C50.5739 12.7361 50.7862 12.9094 50.9744 13.1071C51.0092 13.1423 51.0291 13.1896 51.0299 13.2392C51.0307 13.2887 51.0123 13.3366 50.9786 13.3729C50.9449 13.4093 50.8985 13.4312 50.849 13.4341C50.7995 13.437 50.7508 13.4207 50.7131 13.3887L50.7017 13.3785C50.5278 13.2172 50.3343 13.0785 50.1257 12.9656C49.9208 12.8536 49.7002 12.7731 49.4714 12.7268C49.0208 12.6326 48.5534 12.6588 48.1161 12.8026L48.0975 12.809C48.0253 12.8345 47.946 12.8302 47.8769 12.7972C47.8079 12.7643 47.7548 12.7052 47.7293 12.633C47.7038 12.5609 47.708 12.4815 47.741 12.4125C47.774 12.3435 47.8331 12.2903 47.9052 12.2648L47.9226 12.2602Z" fill="#013856"></path><path d="M44.0682 12.5874C43.6541 12.3864 43.1941 12.2987 42.735 12.3333C42.5019 12.3484 42.2724 12.3988 42.0544 12.4828C41.8328 12.5668 41.6227 12.6783 41.4289 12.8148L41.4162 12.8228C41.3746 12.8499 41.3242 12.8599 41.2755 12.8506C41.2267 12.8413 41.1835 12.8135 41.1548 12.773C41.1261 12.7325 41.1143 12.6824 41.1217 12.6334C41.1292 12.5843 41.1553 12.5401 41.1947 12.5099C41.4074 12.3387 41.6409 12.1952 41.8897 12.0827C42.1415 11.9676 42.4092 11.8909 42.6838 11.8553C43.2431 11.7792 43.8126 11.8555 44.3321 12.0763C44.4023 12.1067 44.4575 12.1638 44.4856 12.235C44.5137 12.3061 44.5124 12.3855 44.482 12.4557C44.4515 12.5259 44.3945 12.5811 44.3233 12.6092C44.2521 12.6373 44.1727 12.636 44.1025 12.6056L44.0864 12.598L44.0682 12.5874Z" fill="#013856"></path><path d="M44.3319 4.06977C43.966 2.31901 44.6338 0.698284 45.8235 0.449773C47.0131 0.201262 48.2741 1.41908 48.64 3.16983C49.0058 4.92058 48.338 6.5413 47.1483 6.78981C45.9587 7.03832 44.6977 5.82052 44.3319 4.06977Z" fill="#013856"></path><path d="M61.8861 50.2853C61.5752 53.9366 59.3709 76.719 59.0723 81.2168H18.5708C18.3379 77.1602 17.2931 59.4214 16.4109 51.4883C15.5686 43.9185 14.3874 40.4733 15.3577 38.1211C17.0691 33.9714 22.515 32.1193 26.2042 31.6201C28.4564 31.3152 31.844 31.0967 31.844 31.0967C31.844 31.0967 32.1308 36.8978 38.97 37.2205C48.28 37.66 47.6583 31.0967 47.7045 31.0967C49.2126 31.0967 57.4227 32.193 59.4755 33.531C60.6458 34.2426 61.6107 35.2466 62.2753 36.4442C62.9398 37.6418 63.2811 38.9917 63.2655 40.3611C63.3044 43.0851 62.2393 46.1436 61.8861 50.2853Z" fill="#0066F5"></path><path d="M59.8325 72.2392C59.8613 72.2391 59.8891 72.2283 59.9103 72.2088C59.9316 72.1893 59.9447 72.1625 59.9473 72.1338L61.4816 54.5869C61.4833 54.5716 61.4819 54.5562 61.4775 54.5415C61.4731 54.5269 61.4658 54.5132 61.456 54.5014C61.4463 54.4895 61.4343 54.4798 61.4207 54.4726C61.4072 54.4655 61.3923 54.4611 61.377 54.4598C61.3617 54.458 61.3462 54.4592 61.3314 54.4635C61.3166 54.4679 61.3028 54.4752 61.2909 54.485C61.279 54.4948 61.2693 54.507 61.2622 54.5207C61.2552 54.5344 61.251 54.5495 61.25 54.5648L59.7152 72.1118C59.7138 72.1269 59.7155 72.1421 59.7201 72.1566C59.7246 72.171 59.732 72.1844 59.7417 72.196C59.7515 72.2077 59.7635 72.2172 59.7769 72.2242C59.7904 72.2312 59.8051 72.2354 59.8202 72.2367L59.8325 72.2392Z" fill="#013856"></path><path d="M56.8959 82.4317L51.3348 77.9204L52.2703 78.1851C52.5742 78.2644 52.8968 78.2254 53.173 78.0761C53.4493 77.9268 53.6585 77.6782 53.7585 77.3805C53.8047 77.2251 53.8187 77.0619 53.7998 76.9009C53.7808 76.7399 53.7292 76.5845 53.6481 76.444C53.5671 76.3036 53.4583 76.1812 53.3284 76.0842C53.1985 75.9872 53.0501 75.9177 52.8925 75.8799L41.2095 73.0386L40.2045 76.7598C39.8927 77.9153 39.933 79.1376 40.3204 80.27C40.7078 81.4025 41.4245 82.3935 42.3788 83.116L46.7079 86.382C46.9295 86.5561 47.2045 86.6483 47.4863 86.643C47.768 86.6377 48.0393 86.5352 48.2542 86.3528C48.4447 86.184 48.5762 85.9588 48.6295 85.71C48.6829 85.4612 48.6552 85.2018 48.5506 84.9698C48.5642 84.966 48.5768 84.9595 48.5877 84.9507C48.5987 84.9418 48.6077 84.9309 48.6142 84.9184C48.6208 84.906 48.6247 84.8923 48.6258 84.8783C48.6269 84.8643 48.6251 84.8502 48.6205 84.8369L49.418 85.4411C49.6644 85.6357 49.9755 85.7295 50.2884 85.7034C50.6013 85.6774 50.8927 85.5336 51.1035 85.301C51.2849 85.0867 51.3847 84.8153 51.3856 84.5346C51.3864 84.2539 51.2882 83.9818 51.1082 83.7664C51.1207 83.7644 51.1327 83.7602 51.1438 83.7542L51.4716 84.0023C51.6932 84.1763 51.9682 84.2683 52.25 84.2629C52.5317 84.2575 52.803 84.155 53.0178 83.9726C53.2492 83.7679 53.3922 83.4816 53.417 83.1736C53.4417 82.8657 53.3461 82.5602 53.1504 82.3212C53.1548 82.3144 53.1586 82.3071 53.1618 82.2996L55.4776 84.178C55.5923 84.2712 55.7244 84.3408 55.8661 84.3829C56.0078 84.425 56.1564 84.4389 56.3034 84.4236C56.4505 84.4083 56.5931 84.3642 56.723 84.2938C56.853 84.2234 56.9679 84.1281 57.061 84.0133C57.1542 83.8985 57.2238 83.7665 57.266 83.6248C57.3081 83.4832 57.3219 83.3346 57.3066 83.1876C57.2913 83.0405 57.2472 82.898 57.1768 82.768C57.1064 82.638 57.0111 82.5232 56.8963 82.43L56.8959 82.4317Z" fill="#E98862"></path><path opacity="0.2" d="M53.0199 82.3674C53.0075 82.363 52.9961 82.3564 52.986 82.3479L50.7579 80.4975C50.7359 80.4783 50.7223 80.4512 50.7199 80.422C50.7176 80.3929 50.7267 80.3639 50.7454 80.3414C50.764 80.3189 50.7907 80.3045 50.8198 80.3014C50.8489 80.2983 50.8781 80.3067 50.9011 80.3247L53.1296 82.1756C53.1498 82.1925 53.1635 82.216 53.1681 82.2419C53.1728 82.2678 53.1682 82.2946 53.1551 82.3175C53.142 82.3403 53.1213 82.3579 53.0966 82.367C53.0719 82.3761 53.0447 82.3763 53.0199 82.3674Z" fill="#013856"></path><path opacity="0.2" d="M51.0561 83.7655C51.0442 83.761 51.033 83.7547 51.0231 83.7468L49.2604 82.3071C49.2389 82.2879 49.2256 82.261 49.2234 82.2323C49.2212 82.2035 49.2301 82.1749 49.2484 82.1525C49.2667 82.1302 49.2929 82.1157 49.3215 82.1122C49.3502 82.1086 49.3791 82.1163 49.4023 82.1335L51.1649 83.5732C51.1852 83.59 51.1989 83.6134 51.2037 83.6393C51.2084 83.6652 51.2039 83.692 51.191 83.7149C51.178 83.7378 51.1574 83.7554 51.1327 83.7647C51.1081 83.7739 51.0809 83.7742 51.0561 83.7655Z" fill="#013856"></path><path opacity="0.2" d="M48.4774 84.9734C48.4645 84.9688 48.4526 84.9619 48.4422 84.953L47.6257 84.2527C47.6145 84.2431 47.6054 84.2314 47.5988 84.2183C47.5922 84.2052 47.5883 84.1909 47.5872 84.1762C47.5861 84.1616 47.5879 84.1469 47.5925 84.1329C47.5971 84.119 47.6044 84.1061 47.614 84.0949C47.6236 84.0838 47.6353 84.0747 47.6484 84.0681C47.6616 84.0615 47.6758 84.0575 47.6905 84.0565C47.7051 84.0554 47.7199 84.0572 47.7338 84.0618C47.7478 84.0664 47.7607 84.0737 47.7718 84.0833L48.5883 84.7832C48.6081 84.8004 48.6212 84.8239 48.6255 84.8496C48.6297 84.8754 48.6249 84.9019 48.6117 84.9245C48.5986 84.947 48.578 84.9643 48.5534 84.9733C48.5289 84.9823 48.502 84.9825 48.4774 84.9738V84.9734Z" fill="#013856"></path><path d="M7.74463 71.3827L7.78699 71.193L15.1785 38.5034L29.8035 41.8088L24.0337 67.327L47.1484 73.0045L44.3041 86.0464L13.5022 80.1716C13.4319 80.1577 13.3328 80.1369 13.2604 80.1212C12.3243 79.9098 11.439 79.5159 10.6551 78.9623C9.87122 78.4086 9.20411 77.706 8.69189 76.8945C8.17968 76.083 7.83237 75.1785 7.66984 74.2328C7.50731 73.2871 7.53272 72.3186 7.74463 71.3827Z" fill="#0066F5"></path><path d="M47.2615 73.0279C47.2676 72.9987 47.2622 72.9683 47.2464 72.943C47.2306 72.9178 47.2057 72.8996 47.1768 72.8924L24.1662 67.2424L27.9079 50.7198C27.9147 50.69 27.9093 50.6587 27.893 50.6328C27.8766 50.607 27.8507 50.5887 27.8209 50.5819C27.7911 50.5752 27.7598 50.5806 27.7339 50.5969C27.7081 50.6132 27.6898 50.6391 27.6831 50.669L23.9164 67.3017C23.9096 67.3311 23.9147 67.3621 23.9305 67.3878C23.9464 67.4136 23.9717 67.4321 24.0011 67.4393L47.0133 73.0897C47.0133 73.0897 46.8591 73.7621 46.8155 73.9878C46.8132 74.0168 46.8222 74.0455 46.8406 74.068C46.859 74.0904 46.8854 74.1049 46.9142 74.1083C46.9431 74.1117 46.9721 74.1038 46.9953 74.0862C47.0184 74.0686 47.0338 74.0428 47.0383 74.0141C47.0912 73.7668 47.2615 73.0279 47.2615 73.0279Z" fill="#013856"></path><path d="M46.3598 91.2372L55.2467 63.9253C55.4029 63.4454 55.707 63.0271 56.1154 62.7305C56.5239 62.4338 57.0157 62.274 57.5205 62.2739H93.7255C94.1029 62.2739 94.475 62.3631 94.8113 62.5344C95.1476 62.7057 95.4385 62.9542 95.6603 63.2595C95.8821 63.5648 96.0285 63.9183 96.0874 64.2911C96.1463 64.6638 96.1161 65.0452 95.9993 65.404L87.1124 92.7159C86.9564 93.196 86.6524 93.6143 86.2439 93.911C85.8354 94.2077 85.3435 94.3674 84.8386 94.3673H48.6332C48.2558 94.3672 47.8839 94.2779 47.5477 94.1065C47.2115 93.9351 46.9207 93.6866 46.6989 93.3814C46.4772 93.0761 46.3309 92.7227 46.2719 92.35C46.213 91.9773 46.2431 91.596 46.3598 91.2372Z" fill="#013856"></path><path opacity="0.2" d="M46.3598 91.2372L55.2467 63.9253C55.4029 63.4454 55.707 63.0271 56.1154 62.7305C56.5239 62.4338 57.0157 62.274 57.5205 62.2739H93.7255C94.1029 62.2739 94.475 62.3631 94.8113 62.5344C95.1476 62.7057 95.4385 62.9542 95.6603 63.2595C95.8821 63.5648 96.0285 63.9183 96.0874 64.2911C96.1463 64.6638 96.1161 65.0452 95.9993 65.404L87.1124 92.7159C86.9564 93.196 86.6524 93.6143 86.2439 93.911C85.8354 94.2077 85.3435 94.3674 84.8386 94.3673H48.6332C48.2558 94.3672 47.8839 94.2779 47.5477 94.1065C47.2115 93.9351 46.9207 93.6866 46.6989 93.3814C46.4772 93.0761 46.3309 92.7227 46.2719 92.35C46.213 91.9773 46.2431 91.596 46.3598 91.2372Z" fill="white"></path><path d="M72.2223 82.1166C70.1251 82.1166 68.4251 80.4168 68.4251 78.32C68.4251 76.2232 70.1251 74.5234 72.2223 74.5234C74.3194 74.5234 76.0194 76.2232 76.0194 78.32C76.0194 80.4168 74.3194 82.1166 72.2223 82.1166Z" fill="white"></path><path d="M96.5645 98.75V208.75C96.5645 212.397 98.0131 215.894 100.592 218.473C103.17 221.051 106.668 222.5 110.314 222.5H192.814C196.461 222.5 199.959 221.051 202.537 218.473C205.116 215.894 206.564 212.397 206.564 208.75V128.601C206.564 126.769 206.198 124.956 205.487 123.268C204.777 121.58 203.736 120.05 202.426 118.77L171.901 88.9187C169.332 86.407 165.882 85.0004 162.289 85H110.314C106.668 85 103.17 86.4487 100.592 89.0273C98.0131 91.6059 96.5645 95.1033 96.5645 98.75V98.75Z" stroke="#0CBC8B" stroke-width="2" stroke-linecap="round" stroke-linejoin="round"></path><path d="M165.314 85V112.5C165.314 116.147 166.763 119.644 169.342 122.223C171.92 124.801 175.418 126.25 179.064 126.25H206.564" stroke="#0CBC8B" stroke-width="2" stroke-linejoin="round"></path></svg>